%TF.GenerationSoftware,KiCad,Pcbnew,(7.0.0-0)*%
%TF.CreationDate,2023-03-31T20:35:08+03:00*%
%TF.ProjectId,base_board,62617365-5f62-46f6-9172-642e6b696361,rev?*%
%TF.SameCoordinates,Original*%
%TF.FileFunction,Soldermask,Bot*%
%TF.FilePolarity,Negative*%
%FSLAX46Y46*%
G04 Gerber Fmt 4.6, Leading zero omitted, Abs format (unit mm)*
G04 Created by KiCad (PCBNEW (7.0.0-0)) date 2023-03-31 20:35:08*
%MOMM*%
%LPD*%
G01*
G04 APERTURE LIST*
G04 Aperture macros list*
%AMRoundRect*
0 Rectangle with rounded corners*
0 $1 Rounding radius*
0 $2 $3 $4 $5 $6 $7 $8 $9 X,Y pos of 4 corners*
0 Add a 4 corners polygon primitive as box body*
4,1,4,$2,$3,$4,$5,$6,$7,$8,$9,$2,$3,0*
0 Add four circle primitives for the rounded corners*
1,1,$1+$1,$2,$3*
1,1,$1+$1,$4,$5*
1,1,$1+$1,$6,$7*
1,1,$1+$1,$8,$9*
0 Add four rect primitives between the rounded corners*
20,1,$1+$1,$2,$3,$4,$5,0*
20,1,$1+$1,$4,$5,$6,$7,0*
20,1,$1+$1,$6,$7,$8,$9,0*
20,1,$1+$1,$8,$9,$2,$3,0*%
G04 Aperture macros list end*
%ADD10C,3.200000*%
%ADD11R,1.700000X1.700000*%
%ADD12O,1.700000X1.700000*%
%ADD13C,0.650000*%
%ADD14O,2.100000X1.000000*%
%ADD15O,1.600000X1.000000*%
%ADD16RoundRect,0.225000X-0.225000X-0.250000X0.225000X-0.250000X0.225000X0.250000X-0.225000X0.250000X0*%
%ADD17RoundRect,0.225000X0.250000X-0.225000X0.250000X0.225000X-0.250000X0.225000X-0.250000X-0.225000X0*%
%ADD18RoundRect,0.225000X-0.250000X0.225000X-0.250000X-0.225000X0.250000X-0.225000X0.250000X0.225000X0*%
%ADD19RoundRect,0.225000X-0.335876X-0.017678X-0.017678X-0.335876X0.335876X0.017678X0.017678X0.335876X0*%
%ADD20RoundRect,0.225000X0.225000X0.250000X-0.225000X0.250000X-0.225000X-0.250000X0.225000X-0.250000X0*%
%ADD21RoundRect,0.200000X-0.200000X-0.275000X0.200000X-0.275000X0.200000X0.275000X-0.200000X0.275000X0*%
%ADD22RoundRect,0.200000X0.200000X0.275000X-0.200000X0.275000X-0.200000X-0.275000X0.200000X-0.275000X0*%
G04 APERTURE END LIST*
D10*
X107000000Y-114000000D03*
D11*
X115839999Y-70459999D03*
D12*
X115839999Y-72999999D03*
X118379999Y-70459999D03*
X118379999Y-72999999D03*
X120919999Y-70459999D03*
X120919999Y-72999999D03*
X123459999Y-70459999D03*
X123459999Y-72999999D03*
X125999999Y-70459999D03*
X125999999Y-72999999D03*
X128539999Y-70459999D03*
X128539999Y-72999999D03*
X131079999Y-70459999D03*
X131079999Y-72999999D03*
X133619999Y-70459999D03*
X133619999Y-72999999D03*
X136159999Y-70459999D03*
X136159999Y-72999999D03*
X138699999Y-70459999D03*
X138699999Y-72999999D03*
D11*
X133169999Y-115749999D03*
D12*
X130629999Y-115749999D03*
X128089999Y-115749999D03*
X125549999Y-115749999D03*
X123009999Y-115749999D03*
X120469999Y-115749999D03*
D10*
X149000000Y-114000000D03*
X149000000Y-72000000D03*
D11*
X120279999Y-111869999D03*
D12*
X117739999Y-111869999D03*
X115199999Y-111869999D03*
X112659999Y-111869999D03*
D13*
X109915000Y-98090000D03*
X109915000Y-103870000D03*
D14*
X110414999Y-96659999D03*
D15*
X106234999Y-96659999D03*
D14*
X110414999Y-105299999D03*
D15*
X106234999Y-105299999D03*
D10*
X107000000Y-72000000D03*
D16*
X131310000Y-107910000D03*
X132860000Y-107910000D03*
D17*
X134180000Y-100075000D03*
X134180000Y-98525000D03*
D18*
X126450000Y-106705000D03*
X126450000Y-108255000D03*
D19*
X129161992Y-86661992D03*
X130258008Y-87758008D03*
D18*
X124890000Y-106705000D03*
X124890000Y-108255000D03*
X128620000Y-106525000D03*
X128620000Y-108075000D03*
D20*
X127075000Y-104110000D03*
X125525000Y-104110000D03*
D16*
X122435000Y-104610000D03*
X123985000Y-104610000D03*
D20*
X122985000Y-107040000D03*
X121435000Y-107040000D03*
D21*
X107855000Y-99750000D03*
X109505000Y-99750000D03*
D17*
X132630000Y-100075000D03*
X132630000Y-98525000D03*
D22*
X109515000Y-101690000D03*
X107865000Y-101690000D03*
D16*
X119390000Y-102980000D03*
X120940000Y-102980000D03*
M02*
