%TF.GenerationSoftware,KiCad,Pcbnew,(7.0.0-0)*%
%TF.CreationDate,2023-03-31T20:35:08+03:00*%
%TF.ProjectId,base_board,62617365-5f62-46f6-9172-642e6b696361,rev?*%
%TF.SameCoordinates,Original*%
%TF.FileFunction,Legend,Bot*%
%TF.FilePolarity,Positive*%
%FSLAX46Y46*%
G04 Gerber Fmt 4.6, Leading zero omitted, Abs format (unit mm)*
G04 Created by KiCad (PCBNEW (7.0.0-0)) date 2023-03-31 20:35:08*
%MOMM*%
%LPD*%
G01*
G04 APERTURE LIST*
G04 Aperture macros list*
%AMRoundRect*
0 Rectangle with rounded corners*
0 $1 Rounding radius*
0 $2 $3 $4 $5 $6 $7 $8 $9 X,Y pos of 4 corners*
0 Add a 4 corners polygon primitive as box body*
4,1,4,$2,$3,$4,$5,$6,$7,$8,$9,$2,$3,0*
0 Add four circle primitives for the rounded corners*
1,1,$1+$1,$2,$3*
1,1,$1+$1,$4,$5*
1,1,$1+$1,$6,$7*
1,1,$1+$1,$8,$9*
0 Add four rect primitives between the rounded corners*
20,1,$1+$1,$2,$3,$4,$5,0*
20,1,$1+$1,$4,$5,$6,$7,0*
20,1,$1+$1,$6,$7,$8,$9,0*
20,1,$1+$1,$8,$9,$2,$3,0*%
G04 Aperture macros list end*
%ADD10C,0.150000*%
%ADD11C,0.120000*%
%ADD12C,3.200000*%
%ADD13R,1.700000X1.700000*%
%ADD14O,1.700000X1.700000*%
%ADD15C,0.650000*%
%ADD16O,2.100000X1.000000*%
%ADD17O,1.600000X1.000000*%
%ADD18RoundRect,0.225000X-0.225000X-0.250000X0.225000X-0.250000X0.225000X0.250000X-0.225000X0.250000X0*%
%ADD19RoundRect,0.225000X0.250000X-0.225000X0.250000X0.225000X-0.250000X0.225000X-0.250000X-0.225000X0*%
%ADD20RoundRect,0.225000X-0.250000X0.225000X-0.250000X-0.225000X0.250000X-0.225000X0.250000X0.225000X0*%
%ADD21RoundRect,0.225000X-0.335876X-0.017678X-0.017678X-0.335876X0.335876X0.017678X0.017678X0.335876X0*%
%ADD22RoundRect,0.225000X0.225000X0.250000X-0.225000X0.250000X-0.225000X-0.250000X0.225000X-0.250000X0*%
%ADD23RoundRect,0.200000X-0.200000X-0.275000X0.200000X-0.275000X0.200000X0.275000X-0.200000X0.275000X0*%
%ADD24RoundRect,0.200000X0.200000X0.275000X-0.200000X0.275000X-0.200000X-0.275000X0.200000X-0.275000X0*%
G04 APERTURE END LIST*
D10*
X132727857Y-109772142D02*
X132775476Y-109819761D01*
X132775476Y-109819761D02*
X132918333Y-109867380D01*
X132918333Y-109867380D02*
X133013571Y-109867380D01*
X133013571Y-109867380D02*
X133156428Y-109819761D01*
X133156428Y-109819761D02*
X133251666Y-109724523D01*
X133251666Y-109724523D02*
X133299285Y-109629285D01*
X133299285Y-109629285D02*
X133346904Y-109438809D01*
X133346904Y-109438809D02*
X133346904Y-109295952D01*
X133346904Y-109295952D02*
X133299285Y-109105476D01*
X133299285Y-109105476D02*
X133251666Y-109010238D01*
X133251666Y-109010238D02*
X133156428Y-108915000D01*
X133156428Y-108915000D02*
X133013571Y-108867380D01*
X133013571Y-108867380D02*
X132918333Y-108867380D01*
X132918333Y-108867380D02*
X132775476Y-108915000D01*
X132775476Y-108915000D02*
X132727857Y-108962619D01*
X132346904Y-108962619D02*
X132299285Y-108915000D01*
X132299285Y-108915000D02*
X132204047Y-108867380D01*
X132204047Y-108867380D02*
X131965952Y-108867380D01*
X131965952Y-108867380D02*
X131870714Y-108915000D01*
X131870714Y-108915000D02*
X131823095Y-108962619D01*
X131823095Y-108962619D02*
X131775476Y-109057857D01*
X131775476Y-109057857D02*
X131775476Y-109153095D01*
X131775476Y-109153095D02*
X131823095Y-109295952D01*
X131823095Y-109295952D02*
X132394523Y-109867380D01*
X132394523Y-109867380D02*
X131775476Y-109867380D01*
X131156428Y-108867380D02*
X131061190Y-108867380D01*
X131061190Y-108867380D02*
X130965952Y-108915000D01*
X130965952Y-108915000D02*
X130918333Y-108962619D01*
X130918333Y-108962619D02*
X130870714Y-109057857D01*
X130870714Y-109057857D02*
X130823095Y-109248333D01*
X130823095Y-109248333D02*
X130823095Y-109486428D01*
X130823095Y-109486428D02*
X130870714Y-109676904D01*
X130870714Y-109676904D02*
X130918333Y-109772142D01*
X130918333Y-109772142D02*
X130965952Y-109819761D01*
X130965952Y-109819761D02*
X131061190Y-109867380D01*
X131061190Y-109867380D02*
X131156428Y-109867380D01*
X131156428Y-109867380D02*
X131251666Y-109819761D01*
X131251666Y-109819761D02*
X131299285Y-109772142D01*
X131299285Y-109772142D02*
X131346904Y-109676904D01*
X131346904Y-109676904D02*
X131394523Y-109486428D01*
X131394523Y-109486428D02*
X131394523Y-109248333D01*
X131394523Y-109248333D02*
X131346904Y-109057857D01*
X131346904Y-109057857D02*
X131299285Y-108962619D01*
X131299285Y-108962619D02*
X131251666Y-108915000D01*
X131251666Y-108915000D02*
X131156428Y-108867380D01*
X134522142Y-95607142D02*
X134569761Y-95559523D01*
X134569761Y-95559523D02*
X134617380Y-95416666D01*
X134617380Y-95416666D02*
X134617380Y-95321428D01*
X134617380Y-95321428D02*
X134569761Y-95178571D01*
X134569761Y-95178571D02*
X134474523Y-95083333D01*
X134474523Y-95083333D02*
X134379285Y-95035714D01*
X134379285Y-95035714D02*
X134188809Y-94988095D01*
X134188809Y-94988095D02*
X134045952Y-94988095D01*
X134045952Y-94988095D02*
X133855476Y-95035714D01*
X133855476Y-95035714D02*
X133760238Y-95083333D01*
X133760238Y-95083333D02*
X133665000Y-95178571D01*
X133665000Y-95178571D02*
X133617380Y-95321428D01*
X133617380Y-95321428D02*
X133617380Y-95416666D01*
X133617380Y-95416666D02*
X133665000Y-95559523D01*
X133665000Y-95559523D02*
X133712619Y-95607142D01*
X133712619Y-95988095D02*
X133665000Y-96035714D01*
X133665000Y-96035714D02*
X133617380Y-96130952D01*
X133617380Y-96130952D02*
X133617380Y-96369047D01*
X133617380Y-96369047D02*
X133665000Y-96464285D01*
X133665000Y-96464285D02*
X133712619Y-96511904D01*
X133712619Y-96511904D02*
X133807857Y-96559523D01*
X133807857Y-96559523D02*
X133903095Y-96559523D01*
X133903095Y-96559523D02*
X134045952Y-96511904D01*
X134045952Y-96511904D02*
X134617380Y-95940476D01*
X134617380Y-95940476D02*
X134617380Y-96559523D01*
X133617380Y-96892857D02*
X133617380Y-97511904D01*
X133617380Y-97511904D02*
X133998333Y-97178571D01*
X133998333Y-97178571D02*
X133998333Y-97321428D01*
X133998333Y-97321428D02*
X134045952Y-97416666D01*
X134045952Y-97416666D02*
X134093571Y-97464285D01*
X134093571Y-97464285D02*
X134188809Y-97511904D01*
X134188809Y-97511904D02*
X134426904Y-97511904D01*
X134426904Y-97511904D02*
X134522142Y-97464285D01*
X134522142Y-97464285D02*
X134569761Y-97416666D01*
X134569761Y-97416666D02*
X134617380Y-97321428D01*
X134617380Y-97321428D02*
X134617380Y-97035714D01*
X134617380Y-97035714D02*
X134569761Y-96940476D01*
X134569761Y-96940476D02*
X134522142Y-96892857D01*
X126772142Y-110333333D02*
X126819761Y-110285714D01*
X126819761Y-110285714D02*
X126867380Y-110142857D01*
X126867380Y-110142857D02*
X126867380Y-110047619D01*
X126867380Y-110047619D02*
X126819761Y-109904762D01*
X126819761Y-109904762D02*
X126724523Y-109809524D01*
X126724523Y-109809524D02*
X126629285Y-109761905D01*
X126629285Y-109761905D02*
X126438809Y-109714286D01*
X126438809Y-109714286D02*
X126295952Y-109714286D01*
X126295952Y-109714286D02*
X126105476Y-109761905D01*
X126105476Y-109761905D02*
X126010238Y-109809524D01*
X126010238Y-109809524D02*
X125915000Y-109904762D01*
X125915000Y-109904762D02*
X125867380Y-110047619D01*
X125867380Y-110047619D02*
X125867380Y-110142857D01*
X125867380Y-110142857D02*
X125915000Y-110285714D01*
X125915000Y-110285714D02*
X125962619Y-110333333D01*
X125962619Y-110714286D02*
X125915000Y-110761905D01*
X125915000Y-110761905D02*
X125867380Y-110857143D01*
X125867380Y-110857143D02*
X125867380Y-111095238D01*
X125867380Y-111095238D02*
X125915000Y-111190476D01*
X125915000Y-111190476D02*
X125962619Y-111238095D01*
X125962619Y-111238095D02*
X126057857Y-111285714D01*
X126057857Y-111285714D02*
X126153095Y-111285714D01*
X126153095Y-111285714D02*
X126295952Y-111238095D01*
X126295952Y-111238095D02*
X126867380Y-110666667D01*
X126867380Y-110666667D02*
X126867380Y-111285714D01*
X125272142Y-110333333D02*
X125319761Y-110285714D01*
X125319761Y-110285714D02*
X125367380Y-110142857D01*
X125367380Y-110142857D02*
X125367380Y-110047619D01*
X125367380Y-110047619D02*
X125319761Y-109904762D01*
X125319761Y-109904762D02*
X125224523Y-109809524D01*
X125224523Y-109809524D02*
X125129285Y-109761905D01*
X125129285Y-109761905D02*
X124938809Y-109714286D01*
X124938809Y-109714286D02*
X124795952Y-109714286D01*
X124795952Y-109714286D02*
X124605476Y-109761905D01*
X124605476Y-109761905D02*
X124510238Y-109809524D01*
X124510238Y-109809524D02*
X124415000Y-109904762D01*
X124415000Y-109904762D02*
X124367380Y-110047619D01*
X124367380Y-110047619D02*
X124367380Y-110142857D01*
X124367380Y-110142857D02*
X124415000Y-110285714D01*
X124415000Y-110285714D02*
X124462619Y-110333333D01*
X125367380Y-111285714D02*
X125367380Y-110714286D01*
X125367380Y-111000000D02*
X124367380Y-111000000D01*
X124367380Y-111000000D02*
X124510238Y-110904762D01*
X124510238Y-110904762D02*
X124605476Y-110809524D01*
X124605476Y-110809524D02*
X124653095Y-110714286D01*
X129022142Y-104583333D02*
X129069761Y-104535714D01*
X129069761Y-104535714D02*
X129117380Y-104392857D01*
X129117380Y-104392857D02*
X129117380Y-104297619D01*
X129117380Y-104297619D02*
X129069761Y-104154762D01*
X129069761Y-104154762D02*
X128974523Y-104059524D01*
X128974523Y-104059524D02*
X128879285Y-104011905D01*
X128879285Y-104011905D02*
X128688809Y-103964286D01*
X128688809Y-103964286D02*
X128545952Y-103964286D01*
X128545952Y-103964286D02*
X128355476Y-104011905D01*
X128355476Y-104011905D02*
X128260238Y-104059524D01*
X128260238Y-104059524D02*
X128165000Y-104154762D01*
X128165000Y-104154762D02*
X128117380Y-104297619D01*
X128117380Y-104297619D02*
X128117380Y-104392857D01*
X128117380Y-104392857D02*
X128165000Y-104535714D01*
X128165000Y-104535714D02*
X128212619Y-104583333D01*
X128450714Y-105440476D02*
X129117380Y-105440476D01*
X128069761Y-105202381D02*
X128784047Y-104964286D01*
X128784047Y-104964286D02*
X128784047Y-105583333D01*
X126466666Y-102952142D02*
X126514285Y-102999761D01*
X126514285Y-102999761D02*
X126657142Y-103047380D01*
X126657142Y-103047380D02*
X126752380Y-103047380D01*
X126752380Y-103047380D02*
X126895237Y-102999761D01*
X126895237Y-102999761D02*
X126990475Y-102904523D01*
X126990475Y-102904523D02*
X127038094Y-102809285D01*
X127038094Y-102809285D02*
X127085713Y-102618809D01*
X127085713Y-102618809D02*
X127085713Y-102475952D01*
X127085713Y-102475952D02*
X127038094Y-102285476D01*
X127038094Y-102285476D02*
X126990475Y-102190238D01*
X126990475Y-102190238D02*
X126895237Y-102095000D01*
X126895237Y-102095000D02*
X126752380Y-102047380D01*
X126752380Y-102047380D02*
X126657142Y-102047380D01*
X126657142Y-102047380D02*
X126514285Y-102095000D01*
X126514285Y-102095000D02*
X126466666Y-102142619D01*
X126133332Y-102047380D02*
X125514285Y-102047380D01*
X125514285Y-102047380D02*
X125847618Y-102428333D01*
X125847618Y-102428333D02*
X125704761Y-102428333D01*
X125704761Y-102428333D02*
X125609523Y-102475952D01*
X125609523Y-102475952D02*
X125561904Y-102523571D01*
X125561904Y-102523571D02*
X125514285Y-102618809D01*
X125514285Y-102618809D02*
X125514285Y-102856904D01*
X125514285Y-102856904D02*
X125561904Y-102952142D01*
X125561904Y-102952142D02*
X125609523Y-102999761D01*
X125609523Y-102999761D02*
X125704761Y-103047380D01*
X125704761Y-103047380D02*
X125990475Y-103047380D01*
X125990475Y-103047380D02*
X126085713Y-102999761D01*
X126085713Y-102999761D02*
X126133332Y-102952142D01*
X123852857Y-103522142D02*
X123900476Y-103569761D01*
X123900476Y-103569761D02*
X124043333Y-103617380D01*
X124043333Y-103617380D02*
X124138571Y-103617380D01*
X124138571Y-103617380D02*
X124281428Y-103569761D01*
X124281428Y-103569761D02*
X124376666Y-103474523D01*
X124376666Y-103474523D02*
X124424285Y-103379285D01*
X124424285Y-103379285D02*
X124471904Y-103188809D01*
X124471904Y-103188809D02*
X124471904Y-103045952D01*
X124471904Y-103045952D02*
X124424285Y-102855476D01*
X124424285Y-102855476D02*
X124376666Y-102760238D01*
X124376666Y-102760238D02*
X124281428Y-102665000D01*
X124281428Y-102665000D02*
X124138571Y-102617380D01*
X124138571Y-102617380D02*
X124043333Y-102617380D01*
X124043333Y-102617380D02*
X123900476Y-102665000D01*
X123900476Y-102665000D02*
X123852857Y-102712619D01*
X122900476Y-103617380D02*
X123471904Y-103617380D01*
X123186190Y-103617380D02*
X123186190Y-102617380D01*
X123186190Y-102617380D02*
X123281428Y-102760238D01*
X123281428Y-102760238D02*
X123376666Y-102855476D01*
X123376666Y-102855476D02*
X123471904Y-102903095D01*
X122043333Y-102950714D02*
X122043333Y-103617380D01*
X122281428Y-102569761D02*
X122519523Y-103284047D01*
X122519523Y-103284047D02*
X121900476Y-103284047D01*
X122642857Y-109272142D02*
X122690476Y-109319761D01*
X122690476Y-109319761D02*
X122833333Y-109367380D01*
X122833333Y-109367380D02*
X122928571Y-109367380D01*
X122928571Y-109367380D02*
X123071428Y-109319761D01*
X123071428Y-109319761D02*
X123166666Y-109224523D01*
X123166666Y-109224523D02*
X123214285Y-109129285D01*
X123214285Y-109129285D02*
X123261904Y-108938809D01*
X123261904Y-108938809D02*
X123261904Y-108795952D01*
X123261904Y-108795952D02*
X123214285Y-108605476D01*
X123214285Y-108605476D02*
X123166666Y-108510238D01*
X123166666Y-108510238D02*
X123071428Y-108415000D01*
X123071428Y-108415000D02*
X122928571Y-108367380D01*
X122928571Y-108367380D02*
X122833333Y-108367380D01*
X122833333Y-108367380D02*
X122690476Y-108415000D01*
X122690476Y-108415000D02*
X122642857Y-108462619D01*
X122261904Y-108462619D02*
X122214285Y-108415000D01*
X122214285Y-108415000D02*
X122119047Y-108367380D01*
X122119047Y-108367380D02*
X121880952Y-108367380D01*
X121880952Y-108367380D02*
X121785714Y-108415000D01*
X121785714Y-108415000D02*
X121738095Y-108462619D01*
X121738095Y-108462619D02*
X121690476Y-108557857D01*
X121690476Y-108557857D02*
X121690476Y-108653095D01*
X121690476Y-108653095D02*
X121738095Y-108795952D01*
X121738095Y-108795952D02*
X122309523Y-109367380D01*
X122309523Y-109367380D02*
X121690476Y-109367380D01*
X121309523Y-108462619D02*
X121261904Y-108415000D01*
X121261904Y-108415000D02*
X121166666Y-108367380D01*
X121166666Y-108367380D02*
X120928571Y-108367380D01*
X120928571Y-108367380D02*
X120833333Y-108415000D01*
X120833333Y-108415000D02*
X120785714Y-108462619D01*
X120785714Y-108462619D02*
X120738095Y-108557857D01*
X120738095Y-108557857D02*
X120738095Y-108653095D01*
X120738095Y-108653095D02*
X120785714Y-108795952D01*
X120785714Y-108795952D02*
X121357142Y-109367380D01*
X121357142Y-109367380D02*
X120738095Y-109367380D01*
X111416666Y-100117380D02*
X111749999Y-99641190D01*
X111988094Y-100117380D02*
X111988094Y-99117380D01*
X111988094Y-99117380D02*
X111607142Y-99117380D01*
X111607142Y-99117380D02*
X111511904Y-99165000D01*
X111511904Y-99165000D02*
X111464285Y-99212619D01*
X111464285Y-99212619D02*
X111416666Y-99307857D01*
X111416666Y-99307857D02*
X111416666Y-99450714D01*
X111416666Y-99450714D02*
X111464285Y-99545952D01*
X111464285Y-99545952D02*
X111511904Y-99593571D01*
X111511904Y-99593571D02*
X111607142Y-99641190D01*
X111607142Y-99641190D02*
X111988094Y-99641190D01*
X110559523Y-99450714D02*
X110559523Y-100117380D01*
X110797618Y-99069761D02*
X111035713Y-99784047D01*
X111035713Y-99784047D02*
X110416666Y-99784047D01*
X133022142Y-95607142D02*
X133069761Y-95559523D01*
X133069761Y-95559523D02*
X133117380Y-95416666D01*
X133117380Y-95416666D02*
X133117380Y-95321428D01*
X133117380Y-95321428D02*
X133069761Y-95178571D01*
X133069761Y-95178571D02*
X132974523Y-95083333D01*
X132974523Y-95083333D02*
X132879285Y-95035714D01*
X132879285Y-95035714D02*
X132688809Y-94988095D01*
X132688809Y-94988095D02*
X132545952Y-94988095D01*
X132545952Y-94988095D02*
X132355476Y-95035714D01*
X132355476Y-95035714D02*
X132260238Y-95083333D01*
X132260238Y-95083333D02*
X132165000Y-95178571D01*
X132165000Y-95178571D02*
X132117380Y-95321428D01*
X132117380Y-95321428D02*
X132117380Y-95416666D01*
X132117380Y-95416666D02*
X132165000Y-95559523D01*
X132165000Y-95559523D02*
X132212619Y-95607142D01*
X132212619Y-95988095D02*
X132165000Y-96035714D01*
X132165000Y-96035714D02*
X132117380Y-96130952D01*
X132117380Y-96130952D02*
X132117380Y-96369047D01*
X132117380Y-96369047D02*
X132165000Y-96464285D01*
X132165000Y-96464285D02*
X132212619Y-96511904D01*
X132212619Y-96511904D02*
X132307857Y-96559523D01*
X132307857Y-96559523D02*
X132403095Y-96559523D01*
X132403095Y-96559523D02*
X132545952Y-96511904D01*
X132545952Y-96511904D02*
X133117380Y-95940476D01*
X133117380Y-95940476D02*
X133117380Y-96559523D01*
X133117380Y-97511904D02*
X133117380Y-96940476D01*
X133117380Y-97226190D02*
X132117380Y-97226190D01*
X132117380Y-97226190D02*
X132260238Y-97130952D01*
X132260238Y-97130952D02*
X132355476Y-97035714D01*
X132355476Y-97035714D02*
X132403095Y-96940476D01*
X111416666Y-102117380D02*
X111749999Y-101641190D01*
X111988094Y-102117380D02*
X111988094Y-101117380D01*
X111988094Y-101117380D02*
X111607142Y-101117380D01*
X111607142Y-101117380D02*
X111511904Y-101165000D01*
X111511904Y-101165000D02*
X111464285Y-101212619D01*
X111464285Y-101212619D02*
X111416666Y-101307857D01*
X111416666Y-101307857D02*
X111416666Y-101450714D01*
X111416666Y-101450714D02*
X111464285Y-101545952D01*
X111464285Y-101545952D02*
X111511904Y-101593571D01*
X111511904Y-101593571D02*
X111607142Y-101641190D01*
X111607142Y-101641190D02*
X111988094Y-101641190D01*
X110511904Y-101117380D02*
X110988094Y-101117380D01*
X110988094Y-101117380D02*
X111035713Y-101593571D01*
X111035713Y-101593571D02*
X110988094Y-101545952D01*
X110988094Y-101545952D02*
X110892856Y-101498333D01*
X110892856Y-101498333D02*
X110654761Y-101498333D01*
X110654761Y-101498333D02*
X110559523Y-101545952D01*
X110559523Y-101545952D02*
X110511904Y-101593571D01*
X110511904Y-101593571D02*
X110464285Y-101688809D01*
X110464285Y-101688809D02*
X110464285Y-101926904D01*
X110464285Y-101926904D02*
X110511904Y-102022142D01*
X110511904Y-102022142D02*
X110559523Y-102069761D01*
X110559523Y-102069761D02*
X110654761Y-102117380D01*
X110654761Y-102117380D02*
X110892856Y-102117380D01*
X110892856Y-102117380D02*
X110988094Y-102069761D01*
X110988094Y-102069761D02*
X111035713Y-102022142D01*
X120807857Y-104682142D02*
X120855476Y-104729761D01*
X120855476Y-104729761D02*
X120998333Y-104777380D01*
X120998333Y-104777380D02*
X121093571Y-104777380D01*
X121093571Y-104777380D02*
X121236428Y-104729761D01*
X121236428Y-104729761D02*
X121331666Y-104634523D01*
X121331666Y-104634523D02*
X121379285Y-104539285D01*
X121379285Y-104539285D02*
X121426904Y-104348809D01*
X121426904Y-104348809D02*
X121426904Y-104205952D01*
X121426904Y-104205952D02*
X121379285Y-104015476D01*
X121379285Y-104015476D02*
X121331666Y-103920238D01*
X121331666Y-103920238D02*
X121236428Y-103825000D01*
X121236428Y-103825000D02*
X121093571Y-103777380D01*
X121093571Y-103777380D02*
X120998333Y-103777380D01*
X120998333Y-103777380D02*
X120855476Y-103825000D01*
X120855476Y-103825000D02*
X120807857Y-103872619D01*
X119855476Y-104777380D02*
X120426904Y-104777380D01*
X120141190Y-104777380D02*
X120141190Y-103777380D01*
X120141190Y-103777380D02*
X120236428Y-103920238D01*
X120236428Y-103920238D02*
X120331666Y-104015476D01*
X120331666Y-104015476D02*
X120426904Y-104063095D01*
X119522142Y-103777380D02*
X118903095Y-103777380D01*
X118903095Y-103777380D02*
X119236428Y-104158333D01*
X119236428Y-104158333D02*
X119093571Y-104158333D01*
X119093571Y-104158333D02*
X118998333Y-104205952D01*
X118998333Y-104205952D02*
X118950714Y-104253571D01*
X118950714Y-104253571D02*
X118903095Y-104348809D01*
X118903095Y-104348809D02*
X118903095Y-104586904D01*
X118903095Y-104586904D02*
X118950714Y-104682142D01*
X118950714Y-104682142D02*
X118998333Y-104729761D01*
X118998333Y-104729761D02*
X119093571Y-104777380D01*
X119093571Y-104777380D02*
X119379285Y-104777380D01*
X119379285Y-104777380D02*
X119474523Y-104729761D01*
X119474523Y-104729761D02*
X119522142Y-104682142D01*
D11*
X131944420Y-107400000D02*
X132225580Y-107400000D01*
X131944420Y-108420000D02*
X132225580Y-108420000D01*
X133670000Y-99440580D02*
X133670000Y-99159420D01*
X134690000Y-99440580D02*
X134690000Y-99159420D01*
X126960000Y-107339420D02*
X126960000Y-107620580D01*
X125940000Y-107339420D02*
X125940000Y-107620580D01*
X129971219Y-86749970D02*
X130170030Y-86948781D01*
X129249970Y-87471219D02*
X129448781Y-87670030D01*
X125400000Y-107339420D02*
X125400000Y-107620580D01*
X124380000Y-107339420D02*
X124380000Y-107620580D01*
X129130000Y-107159420D02*
X129130000Y-107440580D01*
X128110000Y-107159420D02*
X128110000Y-107440580D01*
X126440580Y-104620000D02*
X126159420Y-104620000D01*
X126440580Y-103600000D02*
X126159420Y-103600000D01*
X123069420Y-104100000D02*
X123350580Y-104100000D01*
X123069420Y-105120000D02*
X123350580Y-105120000D01*
X122350580Y-107550000D02*
X122069420Y-107550000D01*
X122350580Y-106530000D02*
X122069420Y-106530000D01*
X108442742Y-99227500D02*
X108917258Y-99227500D01*
X108442742Y-100272500D02*
X108917258Y-100272500D01*
X132120000Y-99440580D02*
X132120000Y-99159420D01*
X133140000Y-99440580D02*
X133140000Y-99159420D01*
X108927258Y-102212500D02*
X108452742Y-102212500D01*
X108927258Y-101167500D02*
X108452742Y-101167500D01*
X120024420Y-102470000D02*
X120305580Y-102470000D01*
X120024420Y-103490000D02*
X120305580Y-103490000D01*
%LPC*%
D12*
X107000000Y-114000000D03*
D13*
X115839999Y-70459999D03*
D14*
X115839999Y-72999999D03*
X118379999Y-70459999D03*
X118379999Y-72999999D03*
X120919999Y-70459999D03*
X120919999Y-72999999D03*
X123459999Y-70459999D03*
X123459999Y-72999999D03*
X125999999Y-70459999D03*
X125999999Y-72999999D03*
X128539999Y-70459999D03*
X128539999Y-72999999D03*
X131079999Y-70459999D03*
X131079999Y-72999999D03*
X133619999Y-70459999D03*
X133619999Y-72999999D03*
X136159999Y-70459999D03*
X136159999Y-72999999D03*
X138699999Y-70459999D03*
X138699999Y-72999999D03*
D13*
X133169999Y-115749999D03*
D14*
X130629999Y-115749999D03*
X128089999Y-115749999D03*
X125549999Y-115749999D03*
X123009999Y-115749999D03*
X120469999Y-115749999D03*
D12*
X149000000Y-114000000D03*
X149000000Y-72000000D03*
D13*
X120279999Y-111869999D03*
D14*
X117739999Y-111869999D03*
X115199999Y-111869999D03*
X112659999Y-111869999D03*
D15*
X109915000Y-98090000D03*
X109915000Y-103870000D03*
D16*
X110414999Y-96659999D03*
D17*
X106234999Y-96659999D03*
D16*
X110414999Y-105299999D03*
D17*
X106234999Y-105299999D03*
D12*
X107000000Y-72000000D03*
D18*
X131310000Y-107910000D03*
X132860000Y-107910000D03*
D19*
X134180000Y-100075000D03*
X134180000Y-98525000D03*
D20*
X126450000Y-106705000D03*
X126450000Y-108255000D03*
D21*
X129161992Y-86661992D03*
X130258008Y-87758008D03*
D20*
X124890000Y-106705000D03*
X124890000Y-108255000D03*
X128620000Y-106525000D03*
X128620000Y-108075000D03*
D22*
X127075000Y-104110000D03*
X125525000Y-104110000D03*
D18*
X122435000Y-104610000D03*
X123985000Y-104610000D03*
D22*
X122985000Y-107040000D03*
X121435000Y-107040000D03*
D23*
X107855000Y-99750000D03*
X109505000Y-99750000D03*
D19*
X132630000Y-100075000D03*
X132630000Y-98525000D03*
D24*
X109515000Y-101690000D03*
X107865000Y-101690000D03*
D18*
X119390000Y-102980000D03*
X120940000Y-102980000D03*
M02*
