%TF.GenerationSoftware,KiCad,Pcbnew,(7.0.0)*%
%TF.CreationDate,2023-04-01T17:32:58+03:00*%
%TF.ProjectId,base_board,62617365-5f62-46f6-9172-642e6b696361,rev?*%
%TF.SameCoordinates,Original*%
%TF.FileFunction,Drillmap*%
%TF.FilePolarity,Positive*%
%FSLAX45Y45*%
G04 Gerber Fmt 4.5, Leading zero omitted, Abs format (unit mm)*
G04 Created by KiCad (PCBNEW (7.0.0)) date 2023-04-01 17:32:58*
%MOMM*%
%LPD*%
G01*
G04 APERTURE LIST*
%ADD10C,0.100000*%
%ADD11C,0.200000*%
%ADD12C,0.065000*%
%ADD13C,0.320000*%
G04 APERTURE END LIST*
D10*
X10300000Y-11400000D02*
G75*
G03*
X10700000Y-11800000I400000J0D01*
G01*
X14900000Y-11800000D02*
G75*
G03*
X15300000Y-11400000I0J400000D01*
G01*
X10700000Y-6800000D02*
G75*
G03*
X10300000Y-7200000I0J-400000D01*
G01*
X15300000Y-7200000D02*
G75*
G03*
X14900000Y-6800000I-400000J0D01*
G01*
X10300000Y-11400000D02*
X10300000Y-7200000D01*
X10700000Y-6800000D02*
X14900000Y-6800000D01*
X14900000Y-11800000D02*
X10700000Y-11800000D01*
X15300000Y-7200000D02*
X15300000Y-11400000D01*
D11*
D12*
X10959000Y-9776500D02*
X11024000Y-9841500D01*
X11024000Y-9776500D02*
X10959000Y-9841500D01*
X10959000Y-10354500D02*
X11024000Y-10419500D01*
X11024000Y-10354500D02*
X10959000Y-10419500D01*
D13*
X10860000Y-7200000D02*
G75*
G03*
X10860000Y-7200000I-160000J0D01*
G01*
X10860000Y-11400000D02*
G75*
G03*
X10860000Y-11400000I-160000J0D01*
G01*
X15060000Y-7200000D02*
G75*
G03*
X15060000Y-7200000I-160000J0D01*
G01*
X15060000Y-11400000D02*
G75*
G03*
X15060000Y-11400000I-160000J0D01*
G01*
D11*
X10542619Y-12098476D02*
X10542619Y-11898476D01*
X10542619Y-11898476D02*
X10590238Y-11898476D01*
X10590238Y-11898476D02*
X10618810Y-11908000D01*
X10618810Y-11908000D02*
X10637857Y-11927048D01*
X10637857Y-11927048D02*
X10647381Y-11946095D01*
X10647381Y-11946095D02*
X10656905Y-11984190D01*
X10656905Y-11984190D02*
X10656905Y-12012762D01*
X10656905Y-12012762D02*
X10647381Y-12050857D01*
X10647381Y-12050857D02*
X10637857Y-12069905D01*
X10637857Y-12069905D02*
X10618810Y-12088952D01*
X10618810Y-12088952D02*
X10590238Y-12098476D01*
X10590238Y-12098476D02*
X10542619Y-12098476D01*
X10742619Y-12098476D02*
X10742619Y-11965143D01*
X10742619Y-12003238D02*
X10752143Y-11984190D01*
X10752143Y-11984190D02*
X10761667Y-11974667D01*
X10761667Y-11974667D02*
X10780714Y-11965143D01*
X10780714Y-11965143D02*
X10799762Y-11965143D01*
X10866429Y-12098476D02*
X10866429Y-11965143D01*
X10866429Y-11898476D02*
X10856905Y-11908000D01*
X10856905Y-11908000D02*
X10866429Y-11917524D01*
X10866429Y-11917524D02*
X10875952Y-11908000D01*
X10875952Y-11908000D02*
X10866429Y-11898476D01*
X10866429Y-11898476D02*
X10866429Y-11917524D01*
X10990238Y-12098476D02*
X10971190Y-12088952D01*
X10971190Y-12088952D02*
X10961667Y-12069905D01*
X10961667Y-12069905D02*
X10961667Y-11898476D01*
X11095000Y-12098476D02*
X11075952Y-12088952D01*
X11075952Y-12088952D02*
X11066429Y-12069905D01*
X11066429Y-12069905D02*
X11066429Y-11898476D01*
X11291190Y-12098476D02*
X11291190Y-11898476D01*
X11291190Y-11898476D02*
X11357857Y-12041333D01*
X11357857Y-12041333D02*
X11424524Y-11898476D01*
X11424524Y-11898476D02*
X11424524Y-12098476D01*
X11605476Y-12098476D02*
X11605476Y-11993714D01*
X11605476Y-11993714D02*
X11595952Y-11974667D01*
X11595952Y-11974667D02*
X11576905Y-11965143D01*
X11576905Y-11965143D02*
X11538809Y-11965143D01*
X11538809Y-11965143D02*
X11519762Y-11974667D01*
X11605476Y-12088952D02*
X11586428Y-12098476D01*
X11586428Y-12098476D02*
X11538809Y-12098476D01*
X11538809Y-12098476D02*
X11519762Y-12088952D01*
X11519762Y-12088952D02*
X11510238Y-12069905D01*
X11510238Y-12069905D02*
X11510238Y-12050857D01*
X11510238Y-12050857D02*
X11519762Y-12031809D01*
X11519762Y-12031809D02*
X11538809Y-12022286D01*
X11538809Y-12022286D02*
X11586428Y-12022286D01*
X11586428Y-12022286D02*
X11605476Y-12012762D01*
X11700714Y-11965143D02*
X11700714Y-12165143D01*
X11700714Y-11974667D02*
X11719762Y-11965143D01*
X11719762Y-11965143D02*
X11757857Y-11965143D01*
X11757857Y-11965143D02*
X11776905Y-11974667D01*
X11776905Y-11974667D02*
X11786428Y-11984190D01*
X11786428Y-11984190D02*
X11795952Y-12003238D01*
X11795952Y-12003238D02*
X11795952Y-12060381D01*
X11795952Y-12060381D02*
X11786428Y-12079428D01*
X11786428Y-12079428D02*
X11776905Y-12088952D01*
X11776905Y-12088952D02*
X11757857Y-12098476D01*
X11757857Y-12098476D02*
X11719762Y-12098476D01*
X11719762Y-12098476D02*
X11700714Y-12088952D01*
X11881667Y-12079428D02*
X11891190Y-12088952D01*
X11891190Y-12088952D02*
X11881667Y-12098476D01*
X11881667Y-12098476D02*
X11872143Y-12088952D01*
X11872143Y-12088952D02*
X11881667Y-12079428D01*
X11881667Y-12079428D02*
X11881667Y-12098476D01*
X11881667Y-11974667D02*
X11891190Y-11984190D01*
X11891190Y-11984190D02*
X11881667Y-11993714D01*
X11881667Y-11993714D02*
X11872143Y-11984190D01*
X11872143Y-11984190D02*
X11881667Y-11974667D01*
X11881667Y-11974667D02*
X11881667Y-11993714D01*
D12*
X10230000Y-12412500D02*
X10295000Y-12477500D01*
X10295000Y-12412500D02*
X10230000Y-12477500D01*
D11*
X10580714Y-12318476D02*
X10599762Y-12318476D01*
X10599762Y-12318476D02*
X10618810Y-12328000D01*
X10618810Y-12328000D02*
X10628333Y-12337524D01*
X10628333Y-12337524D02*
X10637857Y-12356571D01*
X10637857Y-12356571D02*
X10647381Y-12394667D01*
X10647381Y-12394667D02*
X10647381Y-12442286D01*
X10647381Y-12442286D02*
X10637857Y-12480381D01*
X10637857Y-12480381D02*
X10628333Y-12499428D01*
X10628333Y-12499428D02*
X10618810Y-12508952D01*
X10618810Y-12508952D02*
X10599762Y-12518476D01*
X10599762Y-12518476D02*
X10580714Y-12518476D01*
X10580714Y-12518476D02*
X10561667Y-12508952D01*
X10561667Y-12508952D02*
X10552143Y-12499428D01*
X10552143Y-12499428D02*
X10542619Y-12480381D01*
X10542619Y-12480381D02*
X10533095Y-12442286D01*
X10533095Y-12442286D02*
X10533095Y-12394667D01*
X10533095Y-12394667D02*
X10542619Y-12356571D01*
X10542619Y-12356571D02*
X10552143Y-12337524D01*
X10552143Y-12337524D02*
X10561667Y-12328000D01*
X10561667Y-12328000D02*
X10580714Y-12318476D01*
X10733095Y-12499428D02*
X10742619Y-12508952D01*
X10742619Y-12508952D02*
X10733095Y-12518476D01*
X10733095Y-12518476D02*
X10723571Y-12508952D01*
X10723571Y-12508952D02*
X10733095Y-12499428D01*
X10733095Y-12499428D02*
X10733095Y-12518476D01*
X10914048Y-12318476D02*
X10875952Y-12318476D01*
X10875952Y-12318476D02*
X10856905Y-12328000D01*
X10856905Y-12328000D02*
X10847381Y-12337524D01*
X10847381Y-12337524D02*
X10828333Y-12366095D01*
X10828333Y-12366095D02*
X10818810Y-12404190D01*
X10818810Y-12404190D02*
X10818810Y-12480381D01*
X10818810Y-12480381D02*
X10828333Y-12499428D01*
X10828333Y-12499428D02*
X10837857Y-12508952D01*
X10837857Y-12508952D02*
X10856905Y-12518476D01*
X10856905Y-12518476D02*
X10895000Y-12518476D01*
X10895000Y-12518476D02*
X10914048Y-12508952D01*
X10914048Y-12508952D02*
X10923571Y-12499428D01*
X10923571Y-12499428D02*
X10933095Y-12480381D01*
X10933095Y-12480381D02*
X10933095Y-12432762D01*
X10933095Y-12432762D02*
X10923571Y-12413714D01*
X10923571Y-12413714D02*
X10914048Y-12404190D01*
X10914048Y-12404190D02*
X10895000Y-12394667D01*
X10895000Y-12394667D02*
X10856905Y-12394667D01*
X10856905Y-12394667D02*
X10837857Y-12404190D01*
X10837857Y-12404190D02*
X10828333Y-12413714D01*
X10828333Y-12413714D02*
X10818810Y-12432762D01*
X11114048Y-12318476D02*
X11018810Y-12318476D01*
X11018810Y-12318476D02*
X11009286Y-12413714D01*
X11009286Y-12413714D02*
X11018810Y-12404190D01*
X11018810Y-12404190D02*
X11037857Y-12394667D01*
X11037857Y-12394667D02*
X11085476Y-12394667D01*
X11085476Y-12394667D02*
X11104524Y-12404190D01*
X11104524Y-12404190D02*
X11114048Y-12413714D01*
X11114048Y-12413714D02*
X11123571Y-12432762D01*
X11123571Y-12432762D02*
X11123571Y-12480381D01*
X11123571Y-12480381D02*
X11114048Y-12499428D01*
X11114048Y-12499428D02*
X11104524Y-12508952D01*
X11104524Y-12508952D02*
X11085476Y-12518476D01*
X11085476Y-12518476D02*
X11037857Y-12518476D01*
X11037857Y-12518476D02*
X11018810Y-12508952D01*
X11018810Y-12508952D02*
X11009286Y-12499428D01*
X11247381Y-12318476D02*
X11266429Y-12318476D01*
X11266429Y-12318476D02*
X11285476Y-12328000D01*
X11285476Y-12328000D02*
X11295000Y-12337524D01*
X11295000Y-12337524D02*
X11304524Y-12356571D01*
X11304524Y-12356571D02*
X11314048Y-12394667D01*
X11314048Y-12394667D02*
X11314048Y-12442286D01*
X11314048Y-12442286D02*
X11304524Y-12480381D01*
X11304524Y-12480381D02*
X11295000Y-12499428D01*
X11295000Y-12499428D02*
X11285476Y-12508952D01*
X11285476Y-12508952D02*
X11266429Y-12518476D01*
X11266429Y-12518476D02*
X11247381Y-12518476D01*
X11247381Y-12518476D02*
X11228333Y-12508952D01*
X11228333Y-12508952D02*
X11218809Y-12499428D01*
X11218809Y-12499428D02*
X11209286Y-12480381D01*
X11209286Y-12480381D02*
X11199762Y-12442286D01*
X11199762Y-12442286D02*
X11199762Y-12394667D01*
X11199762Y-12394667D02*
X11209286Y-12356571D01*
X11209286Y-12356571D02*
X11218809Y-12337524D01*
X11218809Y-12337524D02*
X11228333Y-12328000D01*
X11228333Y-12328000D02*
X11247381Y-12318476D01*
X11399762Y-12518476D02*
X11399762Y-12385143D01*
X11399762Y-12404190D02*
X11409286Y-12394667D01*
X11409286Y-12394667D02*
X11428333Y-12385143D01*
X11428333Y-12385143D02*
X11456905Y-12385143D01*
X11456905Y-12385143D02*
X11475952Y-12394667D01*
X11475952Y-12394667D02*
X11485476Y-12413714D01*
X11485476Y-12413714D02*
X11485476Y-12518476D01*
X11485476Y-12413714D02*
X11495000Y-12394667D01*
X11495000Y-12394667D02*
X11514048Y-12385143D01*
X11514048Y-12385143D02*
X11542619Y-12385143D01*
X11542619Y-12385143D02*
X11561667Y-12394667D01*
X11561667Y-12394667D02*
X11571190Y-12413714D01*
X11571190Y-12413714D02*
X11571190Y-12518476D01*
X11666429Y-12518476D02*
X11666429Y-12385143D01*
X11666429Y-12404190D02*
X11675952Y-12394667D01*
X11675952Y-12394667D02*
X11695000Y-12385143D01*
X11695000Y-12385143D02*
X11723571Y-12385143D01*
X11723571Y-12385143D02*
X11742619Y-12394667D01*
X11742619Y-12394667D02*
X11752143Y-12413714D01*
X11752143Y-12413714D02*
X11752143Y-12518476D01*
X11752143Y-12413714D02*
X11761667Y-12394667D01*
X11761667Y-12394667D02*
X11780714Y-12385143D01*
X11780714Y-12385143D02*
X11809286Y-12385143D01*
X11809286Y-12385143D02*
X11828333Y-12394667D01*
X11828333Y-12394667D02*
X11837857Y-12413714D01*
X11837857Y-12413714D02*
X11837857Y-12518476D01*
X12195952Y-12308952D02*
X12024524Y-12566095D01*
X12420714Y-12318476D02*
X12439762Y-12318476D01*
X12439762Y-12318476D02*
X12458810Y-12328000D01*
X12458810Y-12328000D02*
X12468333Y-12337524D01*
X12468333Y-12337524D02*
X12477857Y-12356571D01*
X12477857Y-12356571D02*
X12487381Y-12394667D01*
X12487381Y-12394667D02*
X12487381Y-12442286D01*
X12487381Y-12442286D02*
X12477857Y-12480381D01*
X12477857Y-12480381D02*
X12468333Y-12499428D01*
X12468333Y-12499428D02*
X12458810Y-12508952D01*
X12458810Y-12508952D02*
X12439762Y-12518476D01*
X12439762Y-12518476D02*
X12420714Y-12518476D01*
X12420714Y-12518476D02*
X12401667Y-12508952D01*
X12401667Y-12508952D02*
X12392143Y-12499428D01*
X12392143Y-12499428D02*
X12382619Y-12480381D01*
X12382619Y-12480381D02*
X12373095Y-12442286D01*
X12373095Y-12442286D02*
X12373095Y-12394667D01*
X12373095Y-12394667D02*
X12382619Y-12356571D01*
X12382619Y-12356571D02*
X12392143Y-12337524D01*
X12392143Y-12337524D02*
X12401667Y-12328000D01*
X12401667Y-12328000D02*
X12420714Y-12318476D01*
X12573095Y-12499428D02*
X12582619Y-12508952D01*
X12582619Y-12508952D02*
X12573095Y-12518476D01*
X12573095Y-12518476D02*
X12563571Y-12508952D01*
X12563571Y-12508952D02*
X12573095Y-12499428D01*
X12573095Y-12499428D02*
X12573095Y-12518476D01*
X12706429Y-12318476D02*
X12725476Y-12318476D01*
X12725476Y-12318476D02*
X12744524Y-12328000D01*
X12744524Y-12328000D02*
X12754048Y-12337524D01*
X12754048Y-12337524D02*
X12763571Y-12356571D01*
X12763571Y-12356571D02*
X12773095Y-12394667D01*
X12773095Y-12394667D02*
X12773095Y-12442286D01*
X12773095Y-12442286D02*
X12763571Y-12480381D01*
X12763571Y-12480381D02*
X12754048Y-12499428D01*
X12754048Y-12499428D02*
X12744524Y-12508952D01*
X12744524Y-12508952D02*
X12725476Y-12518476D01*
X12725476Y-12518476D02*
X12706429Y-12518476D01*
X12706429Y-12518476D02*
X12687381Y-12508952D01*
X12687381Y-12508952D02*
X12677857Y-12499428D01*
X12677857Y-12499428D02*
X12668333Y-12480381D01*
X12668333Y-12480381D02*
X12658810Y-12442286D01*
X12658810Y-12442286D02*
X12658810Y-12394667D01*
X12658810Y-12394667D02*
X12668333Y-12356571D01*
X12668333Y-12356571D02*
X12677857Y-12337524D01*
X12677857Y-12337524D02*
X12687381Y-12328000D01*
X12687381Y-12328000D02*
X12706429Y-12318476D01*
X12849286Y-12337524D02*
X12858810Y-12328000D01*
X12858810Y-12328000D02*
X12877857Y-12318476D01*
X12877857Y-12318476D02*
X12925476Y-12318476D01*
X12925476Y-12318476D02*
X12944524Y-12328000D01*
X12944524Y-12328000D02*
X12954048Y-12337524D01*
X12954048Y-12337524D02*
X12963571Y-12356571D01*
X12963571Y-12356571D02*
X12963571Y-12375619D01*
X12963571Y-12375619D02*
X12954048Y-12404190D01*
X12954048Y-12404190D02*
X12839762Y-12518476D01*
X12839762Y-12518476D02*
X12963571Y-12518476D01*
X13144524Y-12318476D02*
X13049286Y-12318476D01*
X13049286Y-12318476D02*
X13039762Y-12413714D01*
X13039762Y-12413714D02*
X13049286Y-12404190D01*
X13049286Y-12404190D02*
X13068333Y-12394667D01*
X13068333Y-12394667D02*
X13115952Y-12394667D01*
X13115952Y-12394667D02*
X13135000Y-12404190D01*
X13135000Y-12404190D02*
X13144524Y-12413714D01*
X13144524Y-12413714D02*
X13154048Y-12432762D01*
X13154048Y-12432762D02*
X13154048Y-12480381D01*
X13154048Y-12480381D02*
X13144524Y-12499428D01*
X13144524Y-12499428D02*
X13135000Y-12508952D01*
X13135000Y-12508952D02*
X13115952Y-12518476D01*
X13115952Y-12518476D02*
X13068333Y-12518476D01*
X13068333Y-12518476D02*
X13049286Y-12508952D01*
X13049286Y-12508952D02*
X13039762Y-12499428D01*
X13325476Y-12318476D02*
X13287381Y-12318476D01*
X13287381Y-12318476D02*
X13268333Y-12328000D01*
X13268333Y-12328000D02*
X13258810Y-12337524D01*
X13258810Y-12337524D02*
X13239762Y-12366095D01*
X13239762Y-12366095D02*
X13230238Y-12404190D01*
X13230238Y-12404190D02*
X13230238Y-12480381D01*
X13230238Y-12480381D02*
X13239762Y-12499428D01*
X13239762Y-12499428D02*
X13249286Y-12508952D01*
X13249286Y-12508952D02*
X13268333Y-12518476D01*
X13268333Y-12518476D02*
X13306429Y-12518476D01*
X13306429Y-12518476D02*
X13325476Y-12508952D01*
X13325476Y-12508952D02*
X13335000Y-12499428D01*
X13335000Y-12499428D02*
X13344524Y-12480381D01*
X13344524Y-12480381D02*
X13344524Y-12432762D01*
X13344524Y-12432762D02*
X13335000Y-12413714D01*
X13335000Y-12413714D02*
X13325476Y-12404190D01*
X13325476Y-12404190D02*
X13306429Y-12394667D01*
X13306429Y-12394667D02*
X13268333Y-12394667D01*
X13268333Y-12394667D02*
X13249286Y-12404190D01*
X13249286Y-12404190D02*
X13239762Y-12413714D01*
X13239762Y-12413714D02*
X13230238Y-12432762D01*
X13420714Y-12318476D02*
X13420714Y-12356571D01*
X13496905Y-12318476D02*
X13496905Y-12356571D01*
X13759762Y-12594667D02*
X13750238Y-12585143D01*
X13750238Y-12585143D02*
X13731191Y-12556571D01*
X13731191Y-12556571D02*
X13721667Y-12537524D01*
X13721667Y-12537524D02*
X13712143Y-12508952D01*
X13712143Y-12508952D02*
X13702619Y-12461333D01*
X13702619Y-12461333D02*
X13702619Y-12423238D01*
X13702619Y-12423238D02*
X13712143Y-12375619D01*
X13712143Y-12375619D02*
X13721667Y-12347048D01*
X13721667Y-12347048D02*
X13731191Y-12328000D01*
X13731191Y-12328000D02*
X13750238Y-12299428D01*
X13750238Y-12299428D02*
X13759762Y-12289905D01*
X13826429Y-12337524D02*
X13835952Y-12328000D01*
X13835952Y-12328000D02*
X13855000Y-12318476D01*
X13855000Y-12318476D02*
X13902619Y-12318476D01*
X13902619Y-12318476D02*
X13921667Y-12328000D01*
X13921667Y-12328000D02*
X13931191Y-12337524D01*
X13931191Y-12337524D02*
X13940714Y-12356571D01*
X13940714Y-12356571D02*
X13940714Y-12375619D01*
X13940714Y-12375619D02*
X13931191Y-12404190D01*
X13931191Y-12404190D02*
X13816905Y-12518476D01*
X13816905Y-12518476D02*
X13940714Y-12518476D01*
X14146429Y-12518476D02*
X14146429Y-12318476D01*
X14232143Y-12518476D02*
X14232143Y-12413714D01*
X14232143Y-12413714D02*
X14222619Y-12394667D01*
X14222619Y-12394667D02*
X14203572Y-12385143D01*
X14203572Y-12385143D02*
X14175000Y-12385143D01*
X14175000Y-12385143D02*
X14155952Y-12394667D01*
X14155952Y-12394667D02*
X14146429Y-12404190D01*
X14355952Y-12518476D02*
X14336905Y-12508952D01*
X14336905Y-12508952D02*
X14327381Y-12499428D01*
X14327381Y-12499428D02*
X14317857Y-12480381D01*
X14317857Y-12480381D02*
X14317857Y-12423238D01*
X14317857Y-12423238D02*
X14327381Y-12404190D01*
X14327381Y-12404190D02*
X14336905Y-12394667D01*
X14336905Y-12394667D02*
X14355952Y-12385143D01*
X14355952Y-12385143D02*
X14384524Y-12385143D01*
X14384524Y-12385143D02*
X14403572Y-12394667D01*
X14403572Y-12394667D02*
X14413095Y-12404190D01*
X14413095Y-12404190D02*
X14422619Y-12423238D01*
X14422619Y-12423238D02*
X14422619Y-12480381D01*
X14422619Y-12480381D02*
X14413095Y-12499428D01*
X14413095Y-12499428D02*
X14403572Y-12508952D01*
X14403572Y-12508952D02*
X14384524Y-12518476D01*
X14384524Y-12518476D02*
X14355952Y-12518476D01*
X14536905Y-12518476D02*
X14517857Y-12508952D01*
X14517857Y-12508952D02*
X14508333Y-12489905D01*
X14508333Y-12489905D02*
X14508333Y-12318476D01*
X14689286Y-12508952D02*
X14670238Y-12518476D01*
X14670238Y-12518476D02*
X14632143Y-12518476D01*
X14632143Y-12518476D02*
X14613095Y-12508952D01*
X14613095Y-12508952D02*
X14603572Y-12489905D01*
X14603572Y-12489905D02*
X14603572Y-12413714D01*
X14603572Y-12413714D02*
X14613095Y-12394667D01*
X14613095Y-12394667D02*
X14632143Y-12385143D01*
X14632143Y-12385143D02*
X14670238Y-12385143D01*
X14670238Y-12385143D02*
X14689286Y-12394667D01*
X14689286Y-12394667D02*
X14698810Y-12413714D01*
X14698810Y-12413714D02*
X14698810Y-12432762D01*
X14698810Y-12432762D02*
X14603572Y-12451809D01*
X14775000Y-12508952D02*
X14794048Y-12518476D01*
X14794048Y-12518476D02*
X14832143Y-12518476D01*
X14832143Y-12518476D02*
X14851191Y-12508952D01*
X14851191Y-12508952D02*
X14860714Y-12489905D01*
X14860714Y-12489905D02*
X14860714Y-12480381D01*
X14860714Y-12480381D02*
X14851191Y-12461333D01*
X14851191Y-12461333D02*
X14832143Y-12451809D01*
X14832143Y-12451809D02*
X14803572Y-12451809D01*
X14803572Y-12451809D02*
X14784524Y-12442286D01*
X14784524Y-12442286D02*
X14775000Y-12423238D01*
X14775000Y-12423238D02*
X14775000Y-12413714D01*
X14775000Y-12413714D02*
X14784524Y-12394667D01*
X14784524Y-12394667D02*
X14803572Y-12385143D01*
X14803572Y-12385143D02*
X14832143Y-12385143D01*
X14832143Y-12385143D02*
X14851191Y-12394667D01*
X14927381Y-12594667D02*
X14936905Y-12585143D01*
X14936905Y-12585143D02*
X14955953Y-12556571D01*
X14955953Y-12556571D02*
X14965476Y-12537524D01*
X14965476Y-12537524D02*
X14975000Y-12508952D01*
X14975000Y-12508952D02*
X14984524Y-12461333D01*
X14984524Y-12461333D02*
X14984524Y-12423238D01*
X14984524Y-12423238D02*
X14975000Y-12375619D01*
X14975000Y-12375619D02*
X14965476Y-12347048D01*
X14965476Y-12347048D02*
X14955953Y-12328000D01*
X14955953Y-12328000D02*
X14936905Y-12299428D01*
X14936905Y-12299428D02*
X14927381Y-12289905D01*
X15256905Y-12594667D02*
X15247381Y-12585143D01*
X15247381Y-12585143D02*
X15228333Y-12556571D01*
X15228333Y-12556571D02*
X15218810Y-12537524D01*
X15218810Y-12537524D02*
X15209286Y-12508952D01*
X15209286Y-12508952D02*
X15199762Y-12461333D01*
X15199762Y-12461333D02*
X15199762Y-12423238D01*
X15199762Y-12423238D02*
X15209286Y-12375619D01*
X15209286Y-12375619D02*
X15218810Y-12347048D01*
X15218810Y-12347048D02*
X15228333Y-12328000D01*
X15228333Y-12328000D02*
X15247381Y-12299428D01*
X15247381Y-12299428D02*
X15256905Y-12289905D01*
X15333095Y-12385143D02*
X15333095Y-12518476D01*
X15333095Y-12404190D02*
X15342619Y-12394667D01*
X15342619Y-12394667D02*
X15361667Y-12385143D01*
X15361667Y-12385143D02*
X15390238Y-12385143D01*
X15390238Y-12385143D02*
X15409286Y-12394667D01*
X15409286Y-12394667D02*
X15418810Y-12413714D01*
X15418810Y-12413714D02*
X15418810Y-12518476D01*
X15542619Y-12518476D02*
X15523572Y-12508952D01*
X15523572Y-12508952D02*
X15514048Y-12499428D01*
X15514048Y-12499428D02*
X15504524Y-12480381D01*
X15504524Y-12480381D02*
X15504524Y-12423238D01*
X15504524Y-12423238D02*
X15514048Y-12404190D01*
X15514048Y-12404190D02*
X15523572Y-12394667D01*
X15523572Y-12394667D02*
X15542619Y-12385143D01*
X15542619Y-12385143D02*
X15571191Y-12385143D01*
X15571191Y-12385143D02*
X15590238Y-12394667D01*
X15590238Y-12394667D02*
X15599762Y-12404190D01*
X15599762Y-12404190D02*
X15609286Y-12423238D01*
X15609286Y-12423238D02*
X15609286Y-12480381D01*
X15609286Y-12480381D02*
X15599762Y-12499428D01*
X15599762Y-12499428D02*
X15590238Y-12508952D01*
X15590238Y-12508952D02*
X15571191Y-12518476D01*
X15571191Y-12518476D02*
X15542619Y-12518476D01*
X15666429Y-12385143D02*
X15742619Y-12385143D01*
X15695000Y-12318476D02*
X15695000Y-12489905D01*
X15695000Y-12489905D02*
X15704524Y-12508952D01*
X15704524Y-12508952D02*
X15723572Y-12518476D01*
X15723572Y-12518476D02*
X15742619Y-12518476D01*
X15929286Y-12385143D02*
X15929286Y-12585143D01*
X15929286Y-12394667D02*
X15948333Y-12385143D01*
X15948333Y-12385143D02*
X15986429Y-12385143D01*
X15986429Y-12385143D02*
X16005476Y-12394667D01*
X16005476Y-12394667D02*
X16015000Y-12404190D01*
X16015000Y-12404190D02*
X16024524Y-12423238D01*
X16024524Y-12423238D02*
X16024524Y-12480381D01*
X16024524Y-12480381D02*
X16015000Y-12499428D01*
X16015000Y-12499428D02*
X16005476Y-12508952D01*
X16005476Y-12508952D02*
X15986429Y-12518476D01*
X15986429Y-12518476D02*
X15948333Y-12518476D01*
X15948333Y-12518476D02*
X15929286Y-12508952D01*
X16138810Y-12518476D02*
X16119762Y-12508952D01*
X16119762Y-12508952D02*
X16110238Y-12489905D01*
X16110238Y-12489905D02*
X16110238Y-12318476D01*
X16300714Y-12518476D02*
X16300714Y-12413714D01*
X16300714Y-12413714D02*
X16291191Y-12394667D01*
X16291191Y-12394667D02*
X16272143Y-12385143D01*
X16272143Y-12385143D02*
X16234048Y-12385143D01*
X16234048Y-12385143D02*
X16215000Y-12394667D01*
X16300714Y-12508952D02*
X16281667Y-12518476D01*
X16281667Y-12518476D02*
X16234048Y-12518476D01*
X16234048Y-12518476D02*
X16215000Y-12508952D01*
X16215000Y-12508952D02*
X16205476Y-12489905D01*
X16205476Y-12489905D02*
X16205476Y-12470857D01*
X16205476Y-12470857D02*
X16215000Y-12451809D01*
X16215000Y-12451809D02*
X16234048Y-12442286D01*
X16234048Y-12442286D02*
X16281667Y-12442286D01*
X16281667Y-12442286D02*
X16300714Y-12432762D01*
X16367381Y-12385143D02*
X16443572Y-12385143D01*
X16395953Y-12318476D02*
X16395953Y-12489905D01*
X16395953Y-12489905D02*
X16405476Y-12508952D01*
X16405476Y-12508952D02*
X16424524Y-12518476D01*
X16424524Y-12518476D02*
X16443572Y-12518476D01*
X16586429Y-12508952D02*
X16567381Y-12518476D01*
X16567381Y-12518476D02*
X16529286Y-12518476D01*
X16529286Y-12518476D02*
X16510238Y-12508952D01*
X16510238Y-12508952D02*
X16500714Y-12489905D01*
X16500714Y-12489905D02*
X16500714Y-12413714D01*
X16500714Y-12413714D02*
X16510238Y-12394667D01*
X16510238Y-12394667D02*
X16529286Y-12385143D01*
X16529286Y-12385143D02*
X16567381Y-12385143D01*
X16567381Y-12385143D02*
X16586429Y-12394667D01*
X16586429Y-12394667D02*
X16595953Y-12413714D01*
X16595953Y-12413714D02*
X16595953Y-12432762D01*
X16595953Y-12432762D02*
X16500714Y-12451809D01*
X16767381Y-12518476D02*
X16767381Y-12318476D01*
X16767381Y-12508952D02*
X16748334Y-12518476D01*
X16748334Y-12518476D02*
X16710238Y-12518476D01*
X16710238Y-12518476D02*
X16691191Y-12508952D01*
X16691191Y-12508952D02*
X16681667Y-12499428D01*
X16681667Y-12499428D02*
X16672143Y-12480381D01*
X16672143Y-12480381D02*
X16672143Y-12423238D01*
X16672143Y-12423238D02*
X16681667Y-12404190D01*
X16681667Y-12404190D02*
X16691191Y-12394667D01*
X16691191Y-12394667D02*
X16710238Y-12385143D01*
X16710238Y-12385143D02*
X16748334Y-12385143D01*
X16748334Y-12385143D02*
X16767381Y-12394667D01*
X16843572Y-12594667D02*
X16853096Y-12585143D01*
X16853096Y-12585143D02*
X16872143Y-12556571D01*
X16872143Y-12556571D02*
X16881667Y-12537524D01*
X16881667Y-12537524D02*
X16891191Y-12508952D01*
X16891191Y-12508952D02*
X16900715Y-12461333D01*
X16900715Y-12461333D02*
X16900715Y-12423238D01*
X16900715Y-12423238D02*
X16891191Y-12375619D01*
X16891191Y-12375619D02*
X16881667Y-12347048D01*
X16881667Y-12347048D02*
X16872143Y-12328000D01*
X16872143Y-12328000D02*
X16853096Y-12299428D01*
X16853096Y-12299428D02*
X16843572Y-12289905D01*
X10295000Y-12709000D02*
G75*
G03*
X10295000Y-12709000I-100000J0D01*
G01*
X10523571Y-12582476D02*
X10647381Y-12582476D01*
X10647381Y-12582476D02*
X10580714Y-12658667D01*
X10580714Y-12658667D02*
X10609286Y-12658667D01*
X10609286Y-12658667D02*
X10628333Y-12668190D01*
X10628333Y-12668190D02*
X10637857Y-12677714D01*
X10637857Y-12677714D02*
X10647381Y-12696762D01*
X10647381Y-12696762D02*
X10647381Y-12744381D01*
X10647381Y-12744381D02*
X10637857Y-12763428D01*
X10637857Y-12763428D02*
X10628333Y-12772952D01*
X10628333Y-12772952D02*
X10609286Y-12782476D01*
X10609286Y-12782476D02*
X10552143Y-12782476D01*
X10552143Y-12782476D02*
X10533095Y-12772952D01*
X10533095Y-12772952D02*
X10523571Y-12763428D01*
X10733095Y-12763428D02*
X10742619Y-12772952D01*
X10742619Y-12772952D02*
X10733095Y-12782476D01*
X10733095Y-12782476D02*
X10723571Y-12772952D01*
X10723571Y-12772952D02*
X10733095Y-12763428D01*
X10733095Y-12763428D02*
X10733095Y-12782476D01*
X10818810Y-12601524D02*
X10828333Y-12592000D01*
X10828333Y-12592000D02*
X10847381Y-12582476D01*
X10847381Y-12582476D02*
X10895000Y-12582476D01*
X10895000Y-12582476D02*
X10914048Y-12592000D01*
X10914048Y-12592000D02*
X10923571Y-12601524D01*
X10923571Y-12601524D02*
X10933095Y-12620571D01*
X10933095Y-12620571D02*
X10933095Y-12639619D01*
X10933095Y-12639619D02*
X10923571Y-12668190D01*
X10923571Y-12668190D02*
X10809286Y-12782476D01*
X10809286Y-12782476D02*
X10933095Y-12782476D01*
X11056905Y-12582476D02*
X11075952Y-12582476D01*
X11075952Y-12582476D02*
X11095000Y-12592000D01*
X11095000Y-12592000D02*
X11104524Y-12601524D01*
X11104524Y-12601524D02*
X11114048Y-12620571D01*
X11114048Y-12620571D02*
X11123571Y-12658667D01*
X11123571Y-12658667D02*
X11123571Y-12706286D01*
X11123571Y-12706286D02*
X11114048Y-12744381D01*
X11114048Y-12744381D02*
X11104524Y-12763428D01*
X11104524Y-12763428D02*
X11095000Y-12772952D01*
X11095000Y-12772952D02*
X11075952Y-12782476D01*
X11075952Y-12782476D02*
X11056905Y-12782476D01*
X11056905Y-12782476D02*
X11037857Y-12772952D01*
X11037857Y-12772952D02*
X11028333Y-12763428D01*
X11028333Y-12763428D02*
X11018810Y-12744381D01*
X11018810Y-12744381D02*
X11009286Y-12706286D01*
X11009286Y-12706286D02*
X11009286Y-12658667D01*
X11009286Y-12658667D02*
X11018810Y-12620571D01*
X11018810Y-12620571D02*
X11028333Y-12601524D01*
X11028333Y-12601524D02*
X11037857Y-12592000D01*
X11037857Y-12592000D02*
X11056905Y-12582476D01*
X11247381Y-12582476D02*
X11266429Y-12582476D01*
X11266429Y-12582476D02*
X11285476Y-12592000D01*
X11285476Y-12592000D02*
X11295000Y-12601524D01*
X11295000Y-12601524D02*
X11304524Y-12620571D01*
X11304524Y-12620571D02*
X11314048Y-12658667D01*
X11314048Y-12658667D02*
X11314048Y-12706286D01*
X11314048Y-12706286D02*
X11304524Y-12744381D01*
X11304524Y-12744381D02*
X11295000Y-12763428D01*
X11295000Y-12763428D02*
X11285476Y-12772952D01*
X11285476Y-12772952D02*
X11266429Y-12782476D01*
X11266429Y-12782476D02*
X11247381Y-12782476D01*
X11247381Y-12782476D02*
X11228333Y-12772952D01*
X11228333Y-12772952D02*
X11218809Y-12763428D01*
X11218809Y-12763428D02*
X11209286Y-12744381D01*
X11209286Y-12744381D02*
X11199762Y-12706286D01*
X11199762Y-12706286D02*
X11199762Y-12658667D01*
X11199762Y-12658667D02*
X11209286Y-12620571D01*
X11209286Y-12620571D02*
X11218809Y-12601524D01*
X11218809Y-12601524D02*
X11228333Y-12592000D01*
X11228333Y-12592000D02*
X11247381Y-12582476D01*
X11399762Y-12782476D02*
X11399762Y-12649143D01*
X11399762Y-12668190D02*
X11409286Y-12658667D01*
X11409286Y-12658667D02*
X11428333Y-12649143D01*
X11428333Y-12649143D02*
X11456905Y-12649143D01*
X11456905Y-12649143D02*
X11475952Y-12658667D01*
X11475952Y-12658667D02*
X11485476Y-12677714D01*
X11485476Y-12677714D02*
X11485476Y-12782476D01*
X11485476Y-12677714D02*
X11495000Y-12658667D01*
X11495000Y-12658667D02*
X11514048Y-12649143D01*
X11514048Y-12649143D02*
X11542619Y-12649143D01*
X11542619Y-12649143D02*
X11561667Y-12658667D01*
X11561667Y-12658667D02*
X11571190Y-12677714D01*
X11571190Y-12677714D02*
X11571190Y-12782476D01*
X11666429Y-12782476D02*
X11666429Y-12649143D01*
X11666429Y-12668190D02*
X11675952Y-12658667D01*
X11675952Y-12658667D02*
X11695000Y-12649143D01*
X11695000Y-12649143D02*
X11723571Y-12649143D01*
X11723571Y-12649143D02*
X11742619Y-12658667D01*
X11742619Y-12658667D02*
X11752143Y-12677714D01*
X11752143Y-12677714D02*
X11752143Y-12782476D01*
X11752143Y-12677714D02*
X11761667Y-12658667D01*
X11761667Y-12658667D02*
X11780714Y-12649143D01*
X11780714Y-12649143D02*
X11809286Y-12649143D01*
X11809286Y-12649143D02*
X11828333Y-12658667D01*
X11828333Y-12658667D02*
X11837857Y-12677714D01*
X11837857Y-12677714D02*
X11837857Y-12782476D01*
X12195952Y-12572952D02*
X12024524Y-12830095D01*
X12420714Y-12582476D02*
X12439762Y-12582476D01*
X12439762Y-12582476D02*
X12458810Y-12592000D01*
X12458810Y-12592000D02*
X12468333Y-12601524D01*
X12468333Y-12601524D02*
X12477857Y-12620571D01*
X12477857Y-12620571D02*
X12487381Y-12658667D01*
X12487381Y-12658667D02*
X12487381Y-12706286D01*
X12487381Y-12706286D02*
X12477857Y-12744381D01*
X12477857Y-12744381D02*
X12468333Y-12763428D01*
X12468333Y-12763428D02*
X12458810Y-12772952D01*
X12458810Y-12772952D02*
X12439762Y-12782476D01*
X12439762Y-12782476D02*
X12420714Y-12782476D01*
X12420714Y-12782476D02*
X12401667Y-12772952D01*
X12401667Y-12772952D02*
X12392143Y-12763428D01*
X12392143Y-12763428D02*
X12382619Y-12744381D01*
X12382619Y-12744381D02*
X12373095Y-12706286D01*
X12373095Y-12706286D02*
X12373095Y-12658667D01*
X12373095Y-12658667D02*
X12382619Y-12620571D01*
X12382619Y-12620571D02*
X12392143Y-12601524D01*
X12392143Y-12601524D02*
X12401667Y-12592000D01*
X12401667Y-12592000D02*
X12420714Y-12582476D01*
X12573095Y-12763428D02*
X12582619Y-12772952D01*
X12582619Y-12772952D02*
X12573095Y-12782476D01*
X12573095Y-12782476D02*
X12563571Y-12772952D01*
X12563571Y-12772952D02*
X12573095Y-12763428D01*
X12573095Y-12763428D02*
X12573095Y-12782476D01*
X12773095Y-12782476D02*
X12658810Y-12782476D01*
X12715952Y-12782476D02*
X12715952Y-12582476D01*
X12715952Y-12582476D02*
X12696905Y-12611048D01*
X12696905Y-12611048D02*
X12677857Y-12630095D01*
X12677857Y-12630095D02*
X12658810Y-12639619D01*
X12849286Y-12601524D02*
X12858810Y-12592000D01*
X12858810Y-12592000D02*
X12877857Y-12582476D01*
X12877857Y-12582476D02*
X12925476Y-12582476D01*
X12925476Y-12582476D02*
X12944524Y-12592000D01*
X12944524Y-12592000D02*
X12954048Y-12601524D01*
X12954048Y-12601524D02*
X12963571Y-12620571D01*
X12963571Y-12620571D02*
X12963571Y-12639619D01*
X12963571Y-12639619D02*
X12954048Y-12668190D01*
X12954048Y-12668190D02*
X12839762Y-12782476D01*
X12839762Y-12782476D02*
X12963571Y-12782476D01*
X13135000Y-12582476D02*
X13096905Y-12582476D01*
X13096905Y-12582476D02*
X13077857Y-12592000D01*
X13077857Y-12592000D02*
X13068333Y-12601524D01*
X13068333Y-12601524D02*
X13049286Y-12630095D01*
X13049286Y-12630095D02*
X13039762Y-12668190D01*
X13039762Y-12668190D02*
X13039762Y-12744381D01*
X13039762Y-12744381D02*
X13049286Y-12763428D01*
X13049286Y-12763428D02*
X13058810Y-12772952D01*
X13058810Y-12772952D02*
X13077857Y-12782476D01*
X13077857Y-12782476D02*
X13115952Y-12782476D01*
X13115952Y-12782476D02*
X13135000Y-12772952D01*
X13135000Y-12772952D02*
X13144524Y-12763428D01*
X13144524Y-12763428D02*
X13154048Y-12744381D01*
X13154048Y-12744381D02*
X13154048Y-12696762D01*
X13154048Y-12696762D02*
X13144524Y-12677714D01*
X13144524Y-12677714D02*
X13135000Y-12668190D01*
X13135000Y-12668190D02*
X13115952Y-12658667D01*
X13115952Y-12658667D02*
X13077857Y-12658667D01*
X13077857Y-12658667D02*
X13058810Y-12668190D01*
X13058810Y-12668190D02*
X13049286Y-12677714D01*
X13049286Y-12677714D02*
X13039762Y-12696762D01*
X13277857Y-12582476D02*
X13296905Y-12582476D01*
X13296905Y-12582476D02*
X13315952Y-12592000D01*
X13315952Y-12592000D02*
X13325476Y-12601524D01*
X13325476Y-12601524D02*
X13335000Y-12620571D01*
X13335000Y-12620571D02*
X13344524Y-12658667D01*
X13344524Y-12658667D02*
X13344524Y-12706286D01*
X13344524Y-12706286D02*
X13335000Y-12744381D01*
X13335000Y-12744381D02*
X13325476Y-12763428D01*
X13325476Y-12763428D02*
X13315952Y-12772952D01*
X13315952Y-12772952D02*
X13296905Y-12782476D01*
X13296905Y-12782476D02*
X13277857Y-12782476D01*
X13277857Y-12782476D02*
X13258810Y-12772952D01*
X13258810Y-12772952D02*
X13249286Y-12763428D01*
X13249286Y-12763428D02*
X13239762Y-12744381D01*
X13239762Y-12744381D02*
X13230238Y-12706286D01*
X13230238Y-12706286D02*
X13230238Y-12658667D01*
X13230238Y-12658667D02*
X13239762Y-12620571D01*
X13239762Y-12620571D02*
X13249286Y-12601524D01*
X13249286Y-12601524D02*
X13258810Y-12592000D01*
X13258810Y-12592000D02*
X13277857Y-12582476D01*
X13420714Y-12582476D02*
X13420714Y-12620571D01*
X13496905Y-12582476D02*
X13496905Y-12620571D01*
X13759762Y-12858667D02*
X13750238Y-12849143D01*
X13750238Y-12849143D02*
X13731191Y-12820571D01*
X13731191Y-12820571D02*
X13721667Y-12801524D01*
X13721667Y-12801524D02*
X13712143Y-12772952D01*
X13712143Y-12772952D02*
X13702619Y-12725333D01*
X13702619Y-12725333D02*
X13702619Y-12687238D01*
X13702619Y-12687238D02*
X13712143Y-12639619D01*
X13712143Y-12639619D02*
X13721667Y-12611048D01*
X13721667Y-12611048D02*
X13731191Y-12592000D01*
X13731191Y-12592000D02*
X13750238Y-12563428D01*
X13750238Y-12563428D02*
X13759762Y-12553905D01*
X13921667Y-12649143D02*
X13921667Y-12782476D01*
X13874048Y-12572952D02*
X13826429Y-12715809D01*
X13826429Y-12715809D02*
X13950238Y-12715809D01*
X14146429Y-12782476D02*
X14146429Y-12582476D01*
X14232143Y-12782476D02*
X14232143Y-12677714D01*
X14232143Y-12677714D02*
X14222619Y-12658667D01*
X14222619Y-12658667D02*
X14203572Y-12649143D01*
X14203572Y-12649143D02*
X14175000Y-12649143D01*
X14175000Y-12649143D02*
X14155952Y-12658667D01*
X14155952Y-12658667D02*
X14146429Y-12668190D01*
X14355952Y-12782476D02*
X14336905Y-12772952D01*
X14336905Y-12772952D02*
X14327381Y-12763428D01*
X14327381Y-12763428D02*
X14317857Y-12744381D01*
X14317857Y-12744381D02*
X14317857Y-12687238D01*
X14317857Y-12687238D02*
X14327381Y-12668190D01*
X14327381Y-12668190D02*
X14336905Y-12658667D01*
X14336905Y-12658667D02*
X14355952Y-12649143D01*
X14355952Y-12649143D02*
X14384524Y-12649143D01*
X14384524Y-12649143D02*
X14403572Y-12658667D01*
X14403572Y-12658667D02*
X14413095Y-12668190D01*
X14413095Y-12668190D02*
X14422619Y-12687238D01*
X14422619Y-12687238D02*
X14422619Y-12744381D01*
X14422619Y-12744381D02*
X14413095Y-12763428D01*
X14413095Y-12763428D02*
X14403572Y-12772952D01*
X14403572Y-12772952D02*
X14384524Y-12782476D01*
X14384524Y-12782476D02*
X14355952Y-12782476D01*
X14536905Y-12782476D02*
X14517857Y-12772952D01*
X14517857Y-12772952D02*
X14508333Y-12753905D01*
X14508333Y-12753905D02*
X14508333Y-12582476D01*
X14689286Y-12772952D02*
X14670238Y-12782476D01*
X14670238Y-12782476D02*
X14632143Y-12782476D01*
X14632143Y-12782476D02*
X14613095Y-12772952D01*
X14613095Y-12772952D02*
X14603572Y-12753905D01*
X14603572Y-12753905D02*
X14603572Y-12677714D01*
X14603572Y-12677714D02*
X14613095Y-12658667D01*
X14613095Y-12658667D02*
X14632143Y-12649143D01*
X14632143Y-12649143D02*
X14670238Y-12649143D01*
X14670238Y-12649143D02*
X14689286Y-12658667D01*
X14689286Y-12658667D02*
X14698810Y-12677714D01*
X14698810Y-12677714D02*
X14698810Y-12696762D01*
X14698810Y-12696762D02*
X14603572Y-12715809D01*
X14775000Y-12772952D02*
X14794048Y-12782476D01*
X14794048Y-12782476D02*
X14832143Y-12782476D01*
X14832143Y-12782476D02*
X14851191Y-12772952D01*
X14851191Y-12772952D02*
X14860714Y-12753905D01*
X14860714Y-12753905D02*
X14860714Y-12744381D01*
X14860714Y-12744381D02*
X14851191Y-12725333D01*
X14851191Y-12725333D02*
X14832143Y-12715809D01*
X14832143Y-12715809D02*
X14803572Y-12715809D01*
X14803572Y-12715809D02*
X14784524Y-12706286D01*
X14784524Y-12706286D02*
X14775000Y-12687238D01*
X14775000Y-12687238D02*
X14775000Y-12677714D01*
X14775000Y-12677714D02*
X14784524Y-12658667D01*
X14784524Y-12658667D02*
X14803572Y-12649143D01*
X14803572Y-12649143D02*
X14832143Y-12649143D01*
X14832143Y-12649143D02*
X14851191Y-12658667D01*
X14927381Y-12858667D02*
X14936905Y-12849143D01*
X14936905Y-12849143D02*
X14955953Y-12820571D01*
X14955953Y-12820571D02*
X14965476Y-12801524D01*
X14965476Y-12801524D02*
X14975000Y-12772952D01*
X14975000Y-12772952D02*
X14984524Y-12725333D01*
X14984524Y-12725333D02*
X14984524Y-12687238D01*
X14984524Y-12687238D02*
X14975000Y-12639619D01*
X14975000Y-12639619D02*
X14965476Y-12611048D01*
X14965476Y-12611048D02*
X14955953Y-12592000D01*
X14955953Y-12592000D02*
X14936905Y-12563428D01*
X14936905Y-12563428D02*
X14927381Y-12553905D01*
X15256905Y-12858667D02*
X15247381Y-12849143D01*
X15247381Y-12849143D02*
X15228333Y-12820571D01*
X15228333Y-12820571D02*
X15218810Y-12801524D01*
X15218810Y-12801524D02*
X15209286Y-12772952D01*
X15209286Y-12772952D02*
X15199762Y-12725333D01*
X15199762Y-12725333D02*
X15199762Y-12687238D01*
X15199762Y-12687238D02*
X15209286Y-12639619D01*
X15209286Y-12639619D02*
X15218810Y-12611048D01*
X15218810Y-12611048D02*
X15228333Y-12592000D01*
X15228333Y-12592000D02*
X15247381Y-12563428D01*
X15247381Y-12563428D02*
X15256905Y-12553905D01*
X15333095Y-12649143D02*
X15333095Y-12782476D01*
X15333095Y-12668190D02*
X15342619Y-12658667D01*
X15342619Y-12658667D02*
X15361667Y-12649143D01*
X15361667Y-12649143D02*
X15390238Y-12649143D01*
X15390238Y-12649143D02*
X15409286Y-12658667D01*
X15409286Y-12658667D02*
X15418810Y-12677714D01*
X15418810Y-12677714D02*
X15418810Y-12782476D01*
X15542619Y-12782476D02*
X15523572Y-12772952D01*
X15523572Y-12772952D02*
X15514048Y-12763428D01*
X15514048Y-12763428D02*
X15504524Y-12744381D01*
X15504524Y-12744381D02*
X15504524Y-12687238D01*
X15504524Y-12687238D02*
X15514048Y-12668190D01*
X15514048Y-12668190D02*
X15523572Y-12658667D01*
X15523572Y-12658667D02*
X15542619Y-12649143D01*
X15542619Y-12649143D02*
X15571191Y-12649143D01*
X15571191Y-12649143D02*
X15590238Y-12658667D01*
X15590238Y-12658667D02*
X15599762Y-12668190D01*
X15599762Y-12668190D02*
X15609286Y-12687238D01*
X15609286Y-12687238D02*
X15609286Y-12744381D01*
X15609286Y-12744381D02*
X15599762Y-12763428D01*
X15599762Y-12763428D02*
X15590238Y-12772952D01*
X15590238Y-12772952D02*
X15571191Y-12782476D01*
X15571191Y-12782476D02*
X15542619Y-12782476D01*
X15666429Y-12649143D02*
X15742619Y-12649143D01*
X15695000Y-12582476D02*
X15695000Y-12753905D01*
X15695000Y-12753905D02*
X15704524Y-12772952D01*
X15704524Y-12772952D02*
X15723572Y-12782476D01*
X15723572Y-12782476D02*
X15742619Y-12782476D01*
X15929286Y-12649143D02*
X15929286Y-12849143D01*
X15929286Y-12658667D02*
X15948333Y-12649143D01*
X15948333Y-12649143D02*
X15986429Y-12649143D01*
X15986429Y-12649143D02*
X16005476Y-12658667D01*
X16005476Y-12658667D02*
X16015000Y-12668190D01*
X16015000Y-12668190D02*
X16024524Y-12687238D01*
X16024524Y-12687238D02*
X16024524Y-12744381D01*
X16024524Y-12744381D02*
X16015000Y-12763428D01*
X16015000Y-12763428D02*
X16005476Y-12772952D01*
X16005476Y-12772952D02*
X15986429Y-12782476D01*
X15986429Y-12782476D02*
X15948333Y-12782476D01*
X15948333Y-12782476D02*
X15929286Y-12772952D01*
X16138810Y-12782476D02*
X16119762Y-12772952D01*
X16119762Y-12772952D02*
X16110238Y-12753905D01*
X16110238Y-12753905D02*
X16110238Y-12582476D01*
X16300714Y-12782476D02*
X16300714Y-12677714D01*
X16300714Y-12677714D02*
X16291191Y-12658667D01*
X16291191Y-12658667D02*
X16272143Y-12649143D01*
X16272143Y-12649143D02*
X16234048Y-12649143D01*
X16234048Y-12649143D02*
X16215000Y-12658667D01*
X16300714Y-12772952D02*
X16281667Y-12782476D01*
X16281667Y-12782476D02*
X16234048Y-12782476D01*
X16234048Y-12782476D02*
X16215000Y-12772952D01*
X16215000Y-12772952D02*
X16205476Y-12753905D01*
X16205476Y-12753905D02*
X16205476Y-12734857D01*
X16205476Y-12734857D02*
X16215000Y-12715809D01*
X16215000Y-12715809D02*
X16234048Y-12706286D01*
X16234048Y-12706286D02*
X16281667Y-12706286D01*
X16281667Y-12706286D02*
X16300714Y-12696762D01*
X16367381Y-12649143D02*
X16443572Y-12649143D01*
X16395953Y-12582476D02*
X16395953Y-12753905D01*
X16395953Y-12753905D02*
X16405476Y-12772952D01*
X16405476Y-12772952D02*
X16424524Y-12782476D01*
X16424524Y-12782476D02*
X16443572Y-12782476D01*
X16586429Y-12772952D02*
X16567381Y-12782476D01*
X16567381Y-12782476D02*
X16529286Y-12782476D01*
X16529286Y-12782476D02*
X16510238Y-12772952D01*
X16510238Y-12772952D02*
X16500714Y-12753905D01*
X16500714Y-12753905D02*
X16500714Y-12677714D01*
X16500714Y-12677714D02*
X16510238Y-12658667D01*
X16510238Y-12658667D02*
X16529286Y-12649143D01*
X16529286Y-12649143D02*
X16567381Y-12649143D01*
X16567381Y-12649143D02*
X16586429Y-12658667D01*
X16586429Y-12658667D02*
X16595953Y-12677714D01*
X16595953Y-12677714D02*
X16595953Y-12696762D01*
X16595953Y-12696762D02*
X16500714Y-12715809D01*
X16767381Y-12782476D02*
X16767381Y-12582476D01*
X16767381Y-12772952D02*
X16748334Y-12782476D01*
X16748334Y-12782476D02*
X16710238Y-12782476D01*
X16710238Y-12782476D02*
X16691191Y-12772952D01*
X16691191Y-12772952D02*
X16681667Y-12763428D01*
X16681667Y-12763428D02*
X16672143Y-12744381D01*
X16672143Y-12744381D02*
X16672143Y-12687238D01*
X16672143Y-12687238D02*
X16681667Y-12668190D01*
X16681667Y-12668190D02*
X16691191Y-12658667D01*
X16691191Y-12658667D02*
X16710238Y-12649143D01*
X16710238Y-12649143D02*
X16748334Y-12649143D01*
X16748334Y-12649143D02*
X16767381Y-12658667D01*
X16843572Y-12858667D02*
X16853096Y-12849143D01*
X16853096Y-12849143D02*
X16872143Y-12820571D01*
X16872143Y-12820571D02*
X16881667Y-12801524D01*
X16881667Y-12801524D02*
X16891191Y-12772952D01*
X16891191Y-12772952D02*
X16900715Y-12725333D01*
X16900715Y-12725333D02*
X16900715Y-12687238D01*
X16900715Y-12687238D02*
X16891191Y-12639619D01*
X16891191Y-12639619D02*
X16881667Y-12611048D01*
X16881667Y-12611048D02*
X16872143Y-12592000D01*
X16872143Y-12592000D02*
X16853096Y-12563428D01*
X16853096Y-12563428D02*
X16843572Y-12553905D01*
M02*
