M48
; DRILL file {KiCad (7.0.0)} date Sat Apr  1 17:32:45 2023
; FORMAT={-:-/ absolute / metric / decimal}
; #@! TF.CreationDate,2023-04-01T17:32:45+03:00
; #@! TF.GenerationSoftware,Kicad,Pcbnew,(7.0.0)
; #@! TF.FileFunction,Plated,1,6,PTH
FMAT,2
METRIC
; #@! TA.AperFunction,Plated,PTH,ViaDrill
T1C0.200
; #@! TA.AperFunction,Plated,PTH,ViaDrill
T2C0.300
; #@! TA.AperFunction,Plated,PTH,ViaDrill
T3C0.400
; #@! TA.AperFunction,Plated,PTH,ComponentDrill
T4C0.600
; #@! TA.AperFunction,Plated,PTH,ComponentDrill
T5C1.000
%
G90
G05
T1
X106.525Y-85.51
X106.525Y-85.96
X107.47Y-78.26
X107.515Y-83.39
X108.635Y-83.4
X108.665Y-85.23
X108.84Y-103.63
X109.39Y-83.47
X110.19Y-91.78
X110.4Y-84.65
X110.4Y-85.25
X111.01Y-88.4
X111.14Y-85.68
X111.24Y-89.85
X112.42Y-90.15
X114.85Y-97.61
X114.89Y-107.09
X116.68Y-95.99
X117.4Y-108.65
X118.11Y-108.68
X118.36Y-109.39
X118.92Y-95.11
X119.16Y-106.01
X119.36Y-103.89
X120.29Y-106.29
X120.79Y-109.86
X120.84Y-104.75
X120.9Y-97.05
X121.01Y-94.62
X121.1Y-103.91
X121.18Y-107.89
X121.82Y-98.29
X122.24Y-103.7
X122.83Y-109.01
X123.25Y-100.6
X123.26Y-103.01
X123.4Y-89.68
X124.05Y-101.4
X124.05Y-103.0
X124.05Y-103.8
X124.05Y-107.01
X124.33Y-92.14
X124.35Y-98.66
X124.4Y-96.23
X124.53Y-87.08
X124.81Y-111.142
X124.85Y-101.4
X124.85Y-102.2
X124.85Y-105.4
X125.14Y-97.52
X125.25Y-98.7
X125.65Y-100.6
X125.65Y-101.4
X125.65Y-103.0
X125.65Y-105.4
X125.81Y-92.27
X125.81Y-111.03
X125.82Y-110.393
X126.45Y-100.6
X126.45Y-103.0
X126.46Y-109.93
X126.47Y-102.22
X126.52Y-96.01
X127.08Y-110.76
X127.25Y-101.4
X127.25Y-105.4
X127.59Y-85.8
X127.64Y-94.1
X127.64Y-97.57
X127.68Y-98.57
X128.04Y-101.41
X128.04Y-102.2
X128.05Y-103.81
X128.2Y-109.78
X128.72Y-92.58
X128.85Y-105.4
X129.16Y-111.08
X129.64Y-105.41
X129.65Y-106.19
X129.88Y-85.87
X129.9Y-94.2
X129.91Y-97.27
X130.49Y-110.04
X130.75Y-98.82
X130.86Y-88.79
X130.98Y-109.24
X131.01Y-86.98
X131.18Y-95.96
X131.25Y-106.2
X131.34Y-97.71
X131.51Y-110.21
X131.88Y-108.72
X131.94Y-111.01
X132.42Y-89.01
X132.59Y-94.28
X132.6Y-104.14
X132.84Y-95.15
X133.15Y-89.66
X133.2Y-97.79
X133.44Y-95.86
X133.477Y-101.793
X133.77Y-104.08
X133.93Y-79.4
X133.96Y-97.46
X134.05Y-91.71
X134.47Y-80.07
X134.585Y-96.025
X134.7Y-97.02
X134.783Y-91.125
X135.11Y-80.46
X135.44Y-81.33
X136.16Y-81.83
X136.3Y-94.24
X136.61Y-93.04
X136.81Y-100.25
X136.83Y-98.45
X136.91Y-83.34
X137.03Y-92.38
X137.2Y-94.31
X137.805Y-95.195
X137.85Y-92.07
X138.29Y-100.23
X138.32Y-84.03
X138.41Y-79.39
X138.81Y-106.27
X138.87Y-86.13
X138.95Y-90.49
X138.96Y-100.88
X138.97Y-91.82
X139.01Y-84.63
X139.12Y-97.19
X139.46Y-95.53
X140.41Y-94.25
X140.52Y-96.36
X140.64Y-98.8
X140.71Y-86.18
X140.87Y-79.47
X141.39Y-86.62
X141.44Y-99.19
X141.61Y-89.92
X142.28Y-88.16
X143.22Y-103.49
X143.3Y-82.43
X143.46Y-105.22
X143.525Y-113.645
X144.36Y-102.36
X144.55Y-83.56
X145.11Y-100.36
X145.13Y-90.92
X146.75Y-87.97
X147.96Y-94.06
X148.8Y-93.97
X149.07Y-99.32
X151.56Y-104.0
T2
X104.515Y-85.42
X105.975Y-87.27
X106.045Y-83.44
X107.65Y-89.5
X108.185Y-79.61
X110.155Y-79.715
X112.28Y-88.405
X112.4Y-83.025
X116.757Y-88.006
X117.005Y-81.424
X118.17Y-103.1
X118.485Y-79.814
X118.542Y-93.505
X118.608Y-88.251
X119.33Y-101.77
X119.52Y-76.834
X121.7Y-101.8
X122.425Y-76.984
X124.9Y-109.3
X125.52Y-76.834
X125.915Y-85.264
X125.997Y-109.365
X126.765Y-79.825
X126.85Y-76.03
X127.01Y-83.184
X129.1Y-109.3
X131.77Y-75.67
X133.919Y-107.317
X134.135Y-109.08
X137.85Y-103.22
X138.31Y-104.92
X138.75Y-116.57
X139.605Y-110.285
X143.655Y-110.825
X143.7Y-116.27
X143.77Y-71.05
T3
X106.6Y-99.73
X106.74Y-101.69
X109.53Y-102.83
X110.6Y-107.73
X112.23Y-103.47
X112.39Y-99.81
X112.45Y-97.78
X112.5Y-98.65
X112.59Y-104.57
X115.89Y-83.901
T5
X112.66Y-111.87
X115.2Y-111.87
X115.84Y-70.46
X115.84Y-73.0
X117.74Y-111.87
X118.38Y-70.46
X118.38Y-73.0
X120.28Y-111.87
X120.47Y-115.75
X120.92Y-70.46
X120.92Y-73.0
X123.01Y-115.75
X123.46Y-70.46
X123.46Y-73.0
X125.55Y-115.75
X126.0Y-70.46
X126.0Y-73.0
X128.09Y-115.75
X128.54Y-70.46
X128.54Y-73.0
X130.63Y-115.75
X131.08Y-70.46
X131.08Y-73.0
X133.17Y-115.75
X133.62Y-70.46
X133.62Y-73.0
X136.16Y-70.46
X136.16Y-73.0
X138.7Y-70.46
X138.7Y-73.0
T4
X106.535Y-96.66G85X105.935Y-96.66
G05
X106.535Y-105.3G85X105.935Y-105.3
G05
X110.965Y-96.66G85X109.865Y-96.66
G05
X110.965Y-105.3G85X109.865Y-105.3
G05
T0
M30
