%TF.GenerationSoftware,KiCad,Pcbnew,(7.0.0)*%
%TF.CreationDate,2023-04-01T17:32:09+03:00*%
%TF.ProjectId,base_board,62617365-5f62-46f6-9172-642e6b696361,rev?*%
%TF.SameCoordinates,Original*%
%TF.FileFunction,Soldermask,Top*%
%TF.FilePolarity,Negative*%
%FSLAX46Y46*%
G04 Gerber Fmt 4.6, Leading zero omitted, Abs format (unit mm)*
G04 Created by KiCad (PCBNEW (7.0.0)) date 2023-04-01 17:32:09*
%MOMM*%
%LPD*%
G01*
G04 APERTURE LIST*
G04 Aperture macros list*
%AMRoundRect*
0 Rectangle with rounded corners*
0 $1 Rounding radius*
0 $2 $3 $4 $5 $6 $7 $8 $9 X,Y pos of 4 corners*
0 Add a 4 corners polygon primitive as box body*
4,1,4,$2,$3,$4,$5,$6,$7,$8,$9,$2,$3,0*
0 Add four circle primitives for the rounded corners*
1,1,$1+$1,$2,$3*
1,1,$1+$1,$4,$5*
1,1,$1+$1,$6,$7*
1,1,$1+$1,$8,$9*
0 Add four rect primitives between the rounded corners*
20,1,$1+$1,$2,$3,$4,$5,0*
20,1,$1+$1,$4,$5,$6,$7,0*
20,1,$1+$1,$6,$7,$8,$9,0*
20,1,$1+$1,$8,$9,$2,$3,0*%
%AMRotRect*
0 Rectangle, with rotation*
0 The origin of the aperture is its center*
0 $1 length*
0 $2 width*
0 $3 Rotation angle, in degrees counterclockwise*
0 Add horizontal line*
21,1,$1,$2,0,0,$3*%
%AMFreePoly0*
4,1,19,0.550000,-0.750000,0.000000,-0.750000,0.000000,-0.744911,-0.071157,-0.744911,-0.207708,-0.704816,-0.327430,-0.627875,-0.420627,-0.520320,-0.479746,-0.390866,-0.500000,-0.250000,-0.500000,0.250000,-0.479746,0.390866,-0.420627,0.520320,-0.327430,0.627875,-0.207708,0.704816,-0.071157,0.744911,0.000000,0.744911,0.000000,0.750000,0.550000,0.750000,0.550000,-0.750000,0.550000,-0.750000,
$1*%
%AMFreePoly1*
4,1,19,0.000000,0.744911,0.071157,0.744911,0.207708,0.704816,0.327430,0.627875,0.420627,0.520320,0.479746,0.390866,0.500000,0.250000,0.500000,-0.250000,0.479746,-0.390866,0.420627,-0.520320,0.327430,-0.627875,0.207708,-0.704816,0.071157,-0.744911,0.000000,-0.744911,0.000000,-0.750000,-0.550000,-0.750000,-0.550000,0.750000,0.000000,0.750000,0.000000,0.744911,0.000000,0.744911,
$1*%
G04 Aperture macros list end*
%ADD10RoundRect,0.225000X0.017678X-0.335876X0.335876X-0.017678X-0.017678X0.335876X-0.335876X0.017678X0*%
%ADD11RoundRect,0.225000X-0.335876X-0.017678X-0.017678X-0.335876X0.335876X0.017678X0.017678X0.335876X0*%
%ADD12RoundRect,0.200000X0.200000X0.275000X-0.200000X0.275000X-0.200000X-0.275000X0.200000X-0.275000X0*%
%ADD13RoundRect,0.225000X-0.225000X-0.250000X0.225000X-0.250000X0.225000X0.250000X-0.225000X0.250000X0*%
%ADD14C,3.000000*%
%ADD15RotRect,1.510000X0.458000X45.000000*%
%ADD16RoundRect,0.225000X0.225000X0.250000X-0.225000X0.250000X-0.225000X-0.250000X0.225000X-0.250000X0*%
%ADD17RoundRect,0.218750X-0.218750X-0.256250X0.218750X-0.256250X0.218750X0.256250X-0.218750X0.256250X0*%
%ADD18RoundRect,0.218750X0.218750X0.256250X-0.218750X0.256250X-0.218750X-0.256250X0.218750X-0.256250X0*%
%ADD19FreePoly0,270.000000*%
%ADD20R,1.500000X1.000000*%
%ADD21FreePoly1,270.000000*%
%ADD22R,1.300000X1.550000*%
%ADD23RoundRect,0.218750X-0.256250X0.218750X-0.256250X-0.218750X0.256250X-0.218750X0.256250X0.218750X0*%
%ADD24FreePoly0,180.000000*%
%ADD25R,1.000000X1.500000*%
%ADD26FreePoly1,180.000000*%
%ADD27RoundRect,0.200000X-0.200000X-0.275000X0.200000X-0.275000X0.200000X0.275000X-0.200000X0.275000X0*%
%ADD28C,3.200000*%
%ADD29RoundRect,0.225000X-0.250000X0.225000X-0.250000X-0.225000X0.250000X-0.225000X0.250000X0.225000X0*%
%ADD30RoundRect,0.200000X-0.275000X0.200000X-0.275000X-0.200000X0.275000X-0.200000X0.275000X0.200000X0*%
%ADD31R,1.200000X1.400000*%
%ADD32R,1.700000X1.700000*%
%ADD33O,1.700000X1.700000*%
%ADD34RoundRect,0.225000X0.250000X-0.225000X0.250000X0.225000X-0.250000X0.225000X-0.250000X-0.225000X0*%
%ADD35RoundRect,0.200000X0.275000X-0.200000X0.275000X0.200000X-0.275000X0.200000X-0.275000X-0.200000X0*%
%ADD36RoundRect,0.225000X-0.017678X0.335876X-0.335876X0.017678X0.017678X-0.335876X0.335876X-0.017678X0*%
%ADD37RoundRect,0.150000X-0.150000X0.512500X-0.150000X-0.512500X0.150000X-0.512500X0.150000X0.512500X0*%
%ADD38C,0.400000*%
%ADD39R,0.250000X0.475000*%
%ADD40R,0.475000X0.250000*%
%ADD41C,0.650000*%
%ADD42R,1.150000X0.300000*%
%ADD43R,1.145000X0.600000*%
%ADD44R,1.150000X0.600000*%
%ADD45O,2.100000X1.000000*%
%ADD46O,1.600000X1.000000*%
G04 APERTURE END LIST*
D10*
X142601992Y-102828008D03*
X143698008Y-101731992D03*
D11*
X142690000Y-83140000D03*
X143786016Y-84236016D03*
D12*
X134515000Y-75780000D03*
X132865000Y-75780000D03*
D13*
X104555000Y-84500000D03*
X106105000Y-84500000D03*
D14*
X105250000Y-80000000D03*
D15*
X126740247Y-86593703D03*
X127305933Y-87159389D03*
X127871618Y-87725074D03*
X128437304Y-88290760D03*
X129002989Y-88856445D03*
X129568675Y-89422131D03*
X130134360Y-89987816D03*
X130700045Y-90553501D03*
X131265731Y-91119187D03*
X131831416Y-91684872D03*
X132397102Y-92250558D03*
X132962787Y-92816243D03*
X133528473Y-93381929D03*
X134094158Y-93947614D03*
X134659843Y-94513299D03*
X135225529Y-95078985D03*
X135791214Y-95644670D03*
X136356900Y-96210356D03*
X136922585Y-96776041D03*
X137488271Y-97341727D03*
X138053956Y-97907412D03*
X138619641Y-98473097D03*
X139185327Y-99038783D03*
X139751012Y-99604468D03*
X140316698Y-100170154D03*
X140882383Y-100735839D03*
X141448069Y-101301525D03*
X149579797Y-93169797D03*
X149014111Y-92604111D03*
X148448426Y-92038426D03*
X147882740Y-91472740D03*
X147317055Y-90907055D03*
X146751369Y-90341369D03*
X146185684Y-89775684D03*
X145619999Y-89209999D03*
X145054313Y-88644313D03*
X144488628Y-88078628D03*
X143922942Y-87512942D03*
X143357257Y-86947257D03*
X142791571Y-86381571D03*
X142225886Y-85815886D03*
X141660201Y-85250201D03*
X141094515Y-84684515D03*
X140528830Y-84118830D03*
X139963144Y-83553144D03*
X139397459Y-82987459D03*
X138831773Y-82421773D03*
X138266088Y-81856088D03*
X137700403Y-81290403D03*
X137134717Y-80724717D03*
X136569032Y-80159032D03*
X136003346Y-79593346D03*
X135437661Y-79027661D03*
X134871975Y-78461975D03*
D16*
X119495000Y-81450500D03*
X117945000Y-81450500D03*
X136610000Y-109130000D03*
X135060000Y-109130000D03*
D17*
X116815000Y-83920000D03*
X118390000Y-83920000D03*
D18*
X118097500Y-102000000D03*
X116522500Y-102000000D03*
D19*
X112250000Y-84400000D03*
D20*
X112249999Y-85699999D03*
D21*
X112250000Y-87000000D03*
D22*
X150989999Y-101329999D03*
X150989999Y-109279999D03*
X146489999Y-101329999D03*
X146489999Y-109279999D03*
D14*
X108200000Y-108470000D03*
D23*
X134180000Y-98512500D03*
X134180000Y-100087500D03*
D24*
X142400000Y-116270000D03*
D25*
X141099999Y-116269999D03*
D26*
X139800000Y-116270000D03*
D27*
X140900000Y-110005000D03*
X142550000Y-110005000D03*
D28*
X107000000Y-114000000D03*
D13*
X106005000Y-88310000D03*
X107555000Y-88310000D03*
D29*
X119470000Y-78175500D03*
X119470000Y-79725500D03*
D14*
X122970000Y-84200500D03*
D30*
X108115000Y-80765000D03*
X108115000Y-82415000D03*
D29*
X110120000Y-88265000D03*
X110120000Y-89815000D03*
D31*
X136789999Y-107239999D03*
X136789999Y-105039999D03*
X135089999Y-105039999D03*
X135089999Y-107239999D03*
D14*
X113900000Y-81250000D03*
D32*
X115839999Y-70459999D03*
D33*
X115839999Y-72999999D03*
X118379999Y-70459999D03*
X118379999Y-72999999D03*
X120919999Y-70459999D03*
X120919999Y-72999999D03*
X123459999Y-70459999D03*
X123459999Y-72999999D03*
X125999999Y-70459999D03*
X125999999Y-72999999D03*
X128539999Y-70459999D03*
X128539999Y-72999999D03*
X131079999Y-70459999D03*
X131079999Y-72999999D03*
X133619999Y-70459999D03*
X133619999Y-72999999D03*
X136159999Y-70459999D03*
X136159999Y-72999999D03*
X138699999Y-70459999D03*
X138699999Y-72999999D03*
D13*
X125445000Y-81450500D03*
X126995000Y-81450500D03*
D18*
X118465000Y-92401250D03*
X116890000Y-92401250D03*
D32*
X133169999Y-115749999D03*
D33*
X130629999Y-115749999D03*
X128089999Y-115749999D03*
X125549999Y-115749999D03*
X123009999Y-115749999D03*
X120469999Y-115749999D03*
D13*
X135150000Y-103120000D03*
X136700000Y-103120000D03*
D12*
X118502500Y-89401250D03*
X116852500Y-89401250D03*
D28*
X149000000Y-114000000D03*
D34*
X125470000Y-79725500D03*
X125470000Y-78175500D03*
D35*
X142670000Y-70985000D03*
X142670000Y-69335000D03*
D36*
X125238008Y-87861992D03*
X124141992Y-88958008D03*
D37*
X123420000Y-78313000D03*
X122470000Y-78313000D03*
X121520000Y-78313000D03*
X121520000Y-80588000D03*
X123420000Y-80588000D03*
D27*
X146425000Y-99440000D03*
X148075000Y-99440000D03*
D30*
X109825000Y-80750000D03*
X109825000Y-82400000D03*
D38*
X131650000Y-108200000D03*
X130850000Y-108200000D03*
X130050000Y-108200000D03*
X129250000Y-108200000D03*
X128450000Y-108200000D03*
X127650000Y-108200000D03*
X126850000Y-108200000D03*
X126050000Y-108200000D03*
X125250000Y-108200000D03*
X124450000Y-108200000D03*
X123650000Y-108200000D03*
X122850000Y-108200000D03*
X131650000Y-107400000D03*
X130850000Y-107400000D03*
X130050000Y-107400000D03*
X129250000Y-107400000D03*
X128450000Y-107400000D03*
X127650000Y-107400000D03*
X126850000Y-107400000D03*
X126050000Y-107400000D03*
X125250000Y-107400000D03*
X124450000Y-107400000D03*
X123650000Y-107400000D03*
X122850000Y-107400000D03*
X131650000Y-106600000D03*
X130850000Y-106600000D03*
X130050000Y-106600000D03*
X129250000Y-106600000D03*
X128450000Y-106600000D03*
X127650000Y-106600000D03*
X126850000Y-106600000D03*
X126050000Y-106600000D03*
X125250000Y-106600000D03*
X124450000Y-106600000D03*
X123650000Y-106600000D03*
X122850000Y-106600000D03*
X131650000Y-105800000D03*
X130850000Y-105800000D03*
X130050000Y-105800000D03*
X129250000Y-105800000D03*
X128450000Y-105800000D03*
X127650000Y-105800000D03*
X126850000Y-105800000D03*
X126050000Y-105800000D03*
X125250000Y-105800000D03*
X124450000Y-105800000D03*
X123650000Y-105800000D03*
X122850000Y-105800000D03*
X131650000Y-105000000D03*
X130850000Y-105000000D03*
X130050000Y-105000000D03*
X129250000Y-105000000D03*
X128450000Y-105000000D03*
X127650000Y-105000000D03*
X126850000Y-105000000D03*
X126050000Y-105000000D03*
X125250000Y-105000000D03*
X124450000Y-105000000D03*
X123650000Y-105000000D03*
X122850000Y-105000000D03*
X131650000Y-104200000D03*
X130850000Y-104200000D03*
X130050000Y-104200000D03*
X129250000Y-104200000D03*
X128450000Y-104200000D03*
X127650000Y-104200000D03*
X126850000Y-104200000D03*
X126050000Y-104200000D03*
X125250000Y-104200000D03*
X124450000Y-104200000D03*
X123650000Y-104200000D03*
X122850000Y-104200000D03*
X131650000Y-103400000D03*
X130850000Y-103400000D03*
X130050000Y-103400000D03*
X129250000Y-103400000D03*
X128450000Y-103400000D03*
X127650000Y-103400000D03*
X126850000Y-103400000D03*
X126050000Y-103400000D03*
X125250000Y-103400000D03*
X124450000Y-103400000D03*
X123650000Y-103400000D03*
X122850000Y-103400000D03*
X131650000Y-102600000D03*
X130850000Y-102600000D03*
X130050000Y-102600000D03*
X129250000Y-102600000D03*
X128450000Y-102600000D03*
X127650000Y-102600000D03*
X126850000Y-102600000D03*
X126050000Y-102600000D03*
X125250000Y-102600000D03*
X124450000Y-102600000D03*
X123650000Y-102600000D03*
X122850000Y-102600000D03*
X131650000Y-101800000D03*
X130850000Y-101800000D03*
X130050000Y-101800000D03*
X129250000Y-101800000D03*
X128450000Y-101800000D03*
X127650000Y-101800000D03*
X126850000Y-101800000D03*
X126050000Y-101800000D03*
X125250000Y-101800000D03*
X124450000Y-101800000D03*
X123650000Y-101800000D03*
X122850000Y-101800000D03*
X131650000Y-101000000D03*
X130850000Y-101000000D03*
X130050000Y-101000000D03*
X129250000Y-101000000D03*
X128450000Y-101000000D03*
X127650000Y-101000000D03*
X126850000Y-101000000D03*
X126050000Y-101000000D03*
X125250000Y-101000000D03*
X124450000Y-101000000D03*
X123650000Y-101000000D03*
X122850000Y-101000000D03*
X131650000Y-100200000D03*
X130850000Y-100200000D03*
X130050000Y-100200000D03*
X129250000Y-100200000D03*
X128450000Y-100200000D03*
X127650000Y-100200000D03*
X126850000Y-100200000D03*
X126050000Y-100200000D03*
X125250000Y-100200000D03*
X124450000Y-100200000D03*
X123650000Y-100200000D03*
X122850000Y-100200000D03*
X131650000Y-99400000D03*
X130850000Y-99400000D03*
X130050000Y-99400000D03*
X129250000Y-99400000D03*
X128450000Y-99400000D03*
X127650000Y-99400000D03*
X126850000Y-99400000D03*
X126050000Y-99400000D03*
X125250000Y-99400000D03*
X124450000Y-99400000D03*
X123650000Y-99400000D03*
X122850000Y-99400000D03*
D10*
X139111992Y-79928008D03*
X140208008Y-78831992D03*
D28*
X149000000Y-72000000D03*
D29*
X144550000Y-103655000D03*
X144550000Y-105205000D03*
D27*
X116777500Y-86920000D03*
X118427500Y-86920000D03*
D39*
X109214999Y-84272499D03*
X108714999Y-84272499D03*
X108214999Y-84272499D03*
X107714999Y-84272499D03*
D40*
X107552499Y-84934999D03*
X107552499Y-85434999D03*
X107552499Y-85934999D03*
D39*
X107714999Y-86597499D03*
X108214999Y-86597499D03*
X108714999Y-86597499D03*
X109214999Y-86597499D03*
D40*
X109377499Y-85934999D03*
X109377499Y-85434999D03*
X109377499Y-84934999D03*
D32*
X120279999Y-111869999D03*
D33*
X117739999Y-111869999D03*
X115199999Y-111869999D03*
X112659999Y-111869999D03*
D41*
X109915000Y-98090000D03*
X109915000Y-103870000D03*
D42*
X110979999Y-99729999D03*
X110979999Y-100729999D03*
X110979999Y-101229999D03*
X110979999Y-102229999D03*
D43*
X110982499Y-103379999D03*
D44*
X110979999Y-104179999D03*
D42*
X110979999Y-102729999D03*
X110979999Y-101729999D03*
X110979999Y-100229999D03*
X110979999Y-99229999D03*
D43*
X110982499Y-98579999D03*
X110982499Y-97779999D03*
D45*
X110414999Y-96659999D03*
D46*
X106234999Y-96659999D03*
D45*
X110414999Y-105299999D03*
D46*
X106234999Y-105299999D03*
D12*
X129565000Y-76070000D03*
X127915000Y-76070000D03*
X118135000Y-100340000D03*
X116485000Y-100340000D03*
D24*
X142325000Y-112120000D03*
D25*
X141024999Y-112119999D03*
D26*
X139725000Y-112120000D03*
D27*
X141050000Y-114195000D03*
X142700000Y-114195000D03*
D28*
X107000000Y-72000000D03*
M02*
