%TF.GenerationSoftware,KiCad,Pcbnew,(7.0.0-0)*%
%TF.CreationDate,2023-03-31T20:35:08+03:00*%
%TF.ProjectId,base_board,62617365-5f62-46f6-9172-642e6b696361,rev?*%
%TF.SameCoordinates,Original*%
%TF.FileFunction,Copper,L3,Inr*%
%TF.FilePolarity,Positive*%
%FSLAX46Y46*%
G04 Gerber Fmt 4.6, Leading zero omitted, Abs format (unit mm)*
G04 Created by KiCad (PCBNEW (7.0.0-0)) date 2023-03-31 20:35:08*
%MOMM*%
%LPD*%
G01*
G04 APERTURE LIST*
%TA.AperFunction,ComponentPad*%
%ADD10R,1.700000X1.700000*%
%TD*%
%TA.AperFunction,ComponentPad*%
%ADD11O,1.700000X1.700000*%
%TD*%
%TA.AperFunction,ComponentPad*%
%ADD12O,2.100000X1.000000*%
%TD*%
%TA.AperFunction,ComponentPad*%
%ADD13O,1.600000X1.000000*%
%TD*%
%TA.AperFunction,ViaPad*%
%ADD14C,0.400000*%
%TD*%
%TA.AperFunction,ViaPad*%
%ADD15C,0.600000*%
%TD*%
%TA.AperFunction,Conductor*%
%ADD16C,0.100000*%
%TD*%
%TA.AperFunction,Conductor*%
%ADD17C,0.150000*%
%TD*%
G04 APERTURE END LIST*
D10*
X115839999Y-70459999D03*
D11*
X115839999Y-72999999D03*
X118379999Y-70459999D03*
X118379999Y-72999999D03*
X120919999Y-70459999D03*
X120919999Y-72999999D03*
X123459999Y-70459999D03*
X123459999Y-72999999D03*
X125999999Y-70459999D03*
X125999999Y-72999999D03*
X128539999Y-70459999D03*
X128539999Y-72999999D03*
X131079999Y-70459999D03*
X131079999Y-72999999D03*
X133619999Y-70459999D03*
X133619999Y-72999999D03*
X136159999Y-70459999D03*
X136159999Y-72999999D03*
X138699999Y-70459999D03*
X138699999Y-72999999D03*
D10*
X133169999Y-115749999D03*
D11*
X130629999Y-115749999D03*
X128089999Y-115749999D03*
X125549999Y-115749999D03*
X123009999Y-115749999D03*
X120469999Y-115749999D03*
D10*
X120279999Y-111869999D03*
D11*
X117739999Y-111869999D03*
X115199999Y-111869999D03*
X112659999Y-111869999D03*
D12*
X110414999Y-96659999D03*
D13*
X106234999Y-96659999D03*
D12*
X110414999Y-105299999D03*
D13*
X106234999Y-105299999D03*
D14*
X121100000Y-103910000D03*
X126470000Y-102220000D03*
D15*
X133918858Y-107316777D03*
D14*
X148800000Y-93970000D03*
D15*
X112590000Y-104570000D03*
D14*
X121180000Y-107890000D03*
X126450000Y-103000000D03*
D15*
X104515000Y-85420000D03*
X118170000Y-103100000D03*
D14*
X106525000Y-85510000D03*
D15*
X118485000Y-79814500D03*
D14*
X122240000Y-103700000D03*
X124050000Y-103000000D03*
X143460000Y-105220000D03*
D15*
X118542500Y-93505250D03*
X126850000Y-76030000D03*
D14*
X127250000Y-105400000D03*
D15*
X122425000Y-76984500D03*
X129100000Y-109300000D03*
X112450000Y-97780000D03*
X117005000Y-81424500D03*
D14*
X133960000Y-97460000D03*
D15*
X105975000Y-87270000D03*
X143770000Y-71050000D03*
X143655000Y-110825000D03*
X143700000Y-116270000D03*
D14*
X151560000Y-104000000D03*
X141390000Y-86620000D03*
D15*
X137850000Y-103220000D03*
X127010000Y-83184500D03*
X125997407Y-109364864D03*
X115890000Y-83901250D03*
D14*
X130860000Y-88790000D03*
X133200000Y-97790000D03*
D15*
X106740000Y-101690000D03*
X126765000Y-79824500D03*
X138310000Y-104920000D03*
D14*
X131250000Y-106200000D03*
X119360000Y-103890000D03*
X134050000Y-91710000D03*
X144550000Y-83560000D03*
X144360000Y-102360000D03*
X133930000Y-79400000D03*
X106525000Y-85960000D03*
D15*
X131770000Y-75670000D03*
X112400000Y-83025000D03*
D14*
X111240000Y-89850000D03*
X138320000Y-84030000D03*
X140870000Y-79470000D03*
X123400000Y-89680000D03*
D15*
X124900000Y-109300000D03*
D14*
X131010000Y-86980000D03*
X135110000Y-80460000D03*
D15*
X134135000Y-109080000D03*
X106600000Y-99730000D03*
D14*
X107470000Y-78260000D03*
X125810000Y-111030002D03*
X108840000Y-103630000D03*
X124810500Y-111141919D03*
X122830000Y-109010000D03*
X124050000Y-103800000D03*
X111140000Y-85680000D03*
X109390000Y-83470000D03*
D15*
X110155000Y-79715000D03*
D14*
X128850000Y-105400000D03*
X143220000Y-103490000D03*
X149070000Y-99320000D03*
D15*
X112280000Y-88405000D03*
D14*
X131880000Y-108720000D03*
X132840000Y-95150000D03*
X132420000Y-89010000D03*
D15*
X108185000Y-79610000D03*
X107650000Y-89500000D03*
X106045000Y-83440000D03*
D14*
X138410000Y-79390000D03*
D15*
X116757500Y-88006000D03*
D14*
X133477291Y-101792582D03*
X125650000Y-105400000D03*
X128050000Y-103810000D03*
X129650000Y-106190000D03*
X124850000Y-105400000D03*
X111010000Y-88400000D03*
D15*
X139605000Y-110285000D03*
D14*
X124530000Y-87080000D03*
D15*
X125915000Y-85264500D03*
D14*
X143300000Y-82430000D03*
D15*
X138750000Y-116570000D03*
D14*
X124050000Y-107010000D03*
X129880000Y-85870000D03*
X127590000Y-85800000D03*
D15*
X112390000Y-99810000D03*
X109530000Y-102830000D03*
D14*
X131940000Y-111010000D03*
X131510000Y-110210000D03*
X108635000Y-83400000D03*
X125250000Y-98700000D03*
X110400000Y-85250000D03*
X108665000Y-85230000D03*
X110400000Y-84650000D03*
X124350000Y-98660000D03*
X121010000Y-94620000D03*
X107515000Y-83390000D03*
X118920000Y-95110000D03*
X110190000Y-91780000D03*
X121820000Y-98290000D03*
X116680000Y-95990000D03*
X120790000Y-109860000D03*
X114850000Y-97610000D03*
X112420000Y-90150000D03*
X118360000Y-109390000D03*
X114890000Y-107090000D03*
X125820000Y-110392738D03*
X145110000Y-100360000D03*
X132600000Y-104140000D03*
X142280000Y-88160000D03*
X130490000Y-110040000D03*
X129160000Y-111080000D03*
X136610000Y-93040000D03*
X128200000Y-109780000D03*
X138970000Y-91820000D03*
X137200000Y-94310000D03*
X127080000Y-110760000D03*
X133770000Y-104080000D03*
X138290000Y-100230000D03*
X138810000Y-106270000D03*
X140640000Y-98800000D03*
X130980000Y-109240000D03*
X137805063Y-95195063D03*
X126460000Y-109930000D03*
X140520000Y-96360000D03*
X129640000Y-105410000D03*
X141440000Y-99190000D03*
X136830000Y-98450000D03*
X125810000Y-92270000D03*
X120900000Y-97050000D03*
X147960000Y-94060000D03*
X138960000Y-100880000D03*
X124400000Y-96230000D03*
X120840000Y-104750000D03*
X127680000Y-98570000D03*
X123260000Y-103010000D03*
X136300000Y-94240000D03*
X136810000Y-100250000D03*
X125650000Y-103000000D03*
X140710000Y-86180000D03*
X134700000Y-97020000D03*
X124850000Y-102200000D03*
X146750000Y-87970000D03*
X128040000Y-101410000D03*
X132590000Y-94280000D03*
X127250000Y-101400000D03*
X125650000Y-101400000D03*
X138870000Y-86130000D03*
X134470000Y-80070000D03*
X124850000Y-101400000D03*
X131340000Y-97710000D03*
X134585063Y-96025063D03*
X126520000Y-96010000D03*
X129910000Y-97270000D03*
X124050000Y-101400000D03*
X139120000Y-97190000D03*
X130750000Y-98820000D03*
X127640000Y-97570000D03*
X133150000Y-89660000D03*
X126450000Y-100600000D03*
X139010000Y-84630000D03*
X125140000Y-97520000D03*
X135440000Y-81330000D03*
X124330000Y-92140000D03*
X123250000Y-100600000D03*
X133440000Y-95860000D03*
X139460000Y-95530000D03*
X145130000Y-90920000D03*
X141610000Y-89920000D03*
X125650000Y-100600000D03*
X136160000Y-81830000D03*
X137030000Y-92380000D03*
X131180000Y-95960000D03*
X140410000Y-94250000D03*
X134783477Y-91124954D03*
X138950000Y-90490000D03*
X137850000Y-92070000D03*
X128720000Y-92580000D03*
X129900000Y-94200000D03*
X127640000Y-94100000D03*
X136910000Y-83340000D03*
X128040000Y-102200000D03*
X143525000Y-113645000D03*
X118110000Y-108680000D03*
X120290000Y-106290000D03*
X119160000Y-106010000D03*
X117400000Y-108650000D03*
D15*
X119520000Y-76834500D03*
X112500000Y-98650000D03*
X112230000Y-103470000D03*
X118607500Y-88251250D03*
X125520000Y-76834500D03*
X110600000Y-107730000D03*
X119330000Y-101770000D03*
X121700000Y-101800000D03*
D16*
X127270000Y-102980000D02*
X126510000Y-102220000D01*
X126510000Y-102220000D02*
X126470000Y-102220000D01*
X126590000Y-103660000D02*
X127270000Y-102980000D01*
X121450000Y-103910000D02*
X122210000Y-104670000D01*
X124860000Y-104670000D02*
X125870000Y-103660000D01*
X122210000Y-104670000D02*
X124860000Y-104670000D01*
X121100000Y-103910000D02*
X121450000Y-103910000D01*
X125870000Y-103660000D02*
X126590000Y-103660000D01*
X109990000Y-106650000D02*
X108840000Y-105500000D01*
X116980000Y-106650000D02*
X109990000Y-106650000D01*
X118990000Y-110240000D02*
X118990000Y-108660000D01*
X123630000Y-110710000D02*
X119460000Y-110710000D01*
X125110002Y-111730000D02*
X124650000Y-111730000D01*
X124650000Y-111730000D02*
X123630000Y-110710000D01*
X108840000Y-105500000D02*
X108840000Y-103630000D01*
X118990000Y-108660000D02*
X116980000Y-106650000D01*
X119460000Y-110710000D02*
X118990000Y-110240000D01*
X125810000Y-111030002D02*
X125110002Y-111730000D01*
X119720000Y-71660000D02*
X115090000Y-71660000D01*
X107090000Y-79660000D02*
X107090000Y-94890000D01*
X118950000Y-107975000D02*
X119700000Y-107975000D01*
X123483581Y-109815000D02*
X124810500Y-111141919D01*
X115090000Y-71660000D02*
X107090000Y-79660000D01*
X120920000Y-70460000D02*
X119720000Y-71660000D01*
X107440000Y-95240000D02*
X107440000Y-97880000D01*
X121540000Y-109815000D02*
X123483581Y-109815000D01*
X107090000Y-94890000D02*
X107440000Y-95240000D01*
X107440000Y-97880000D02*
X116020000Y-106460000D01*
X119700000Y-107975000D02*
X121540000Y-109815000D01*
X117435000Y-106460000D02*
X118950000Y-107975000D01*
X116020000Y-106460000D02*
X117435000Y-106460000D01*
X123460000Y-70460000D02*
X122180000Y-71740000D01*
X108170000Y-81960000D02*
X108170000Y-98140000D01*
X120300000Y-71740000D02*
X119660000Y-72380000D01*
X120638700Y-108440000D02*
X122490000Y-108440000D01*
X122180000Y-71740000D02*
X120300000Y-71740000D01*
X119660000Y-73980000D02*
X111950000Y-81690000D01*
X119660000Y-72380000D02*
X119660000Y-73980000D01*
X118358700Y-106160000D02*
X120638700Y-108440000D01*
X108170000Y-98140000D02*
X116190000Y-106160000D01*
X111950000Y-81690000D02*
X108440000Y-81690000D01*
X122490000Y-108440000D02*
X122830000Y-108780000D01*
X108440000Y-81690000D02*
X108170000Y-81960000D01*
X122830000Y-108780000D02*
X122830000Y-109010000D01*
X116190000Y-106160000D02*
X118358700Y-106160000D01*
X130630000Y-112800000D02*
X130630000Y-115750000D01*
X131940000Y-111010000D02*
X131940000Y-111490000D01*
X131940000Y-111490000D02*
X130630000Y-112800000D01*
X128090000Y-113630000D02*
X128090000Y-115750000D01*
X131510000Y-110210000D02*
X128090000Y-113630000D01*
X124345000Y-97822995D02*
X125222005Y-98700000D01*
X125222005Y-98700000D02*
X125250000Y-98700000D01*
X124345000Y-97445000D02*
X124345000Y-97055000D01*
X124345000Y-97055000D02*
X123600000Y-96310000D01*
X110310000Y-85340000D02*
X110400000Y-85250000D01*
X124345000Y-97445000D02*
X124345000Y-97822995D01*
X122970000Y-96310000D02*
X121560000Y-97720000D01*
X117640000Y-97720000D02*
X110310000Y-90390000D01*
X110310000Y-90390000D02*
X110310000Y-85340000D01*
X121560000Y-97720000D02*
X117640000Y-97720000D01*
X123600000Y-96310000D02*
X122970000Y-96310000D01*
X124345000Y-97445000D02*
X124340000Y-97440000D01*
X109820000Y-99270000D02*
X108940000Y-98390000D01*
X123550000Y-98660000D02*
X122940000Y-99270000D01*
X124350000Y-98660000D02*
X123550000Y-98660000D01*
X122940000Y-99270000D02*
X109820000Y-99270000D01*
X108940000Y-98390000D02*
X108940000Y-86110000D01*
X108940000Y-86110000D02*
X110400000Y-84650000D01*
X120260000Y-94620000D02*
X121010000Y-94620000D01*
X119770000Y-95110000D02*
X120260000Y-94620000D01*
X118920000Y-95110000D02*
X119770000Y-95110000D01*
X117170000Y-98670000D02*
X110280000Y-91780000D01*
X118880000Y-98800000D02*
X117300000Y-98800000D01*
X117300000Y-98800000D02*
X117170000Y-98670000D01*
X121310000Y-98800000D02*
X118880000Y-98800000D01*
X121820000Y-98290000D02*
X121310000Y-98800000D01*
X110280000Y-91780000D02*
X110190000Y-91780000D01*
X123650000Y-74900000D02*
X120090000Y-74900000D01*
X120090000Y-75280000D02*
X114970000Y-80400000D01*
X116680000Y-94840000D02*
X116680000Y-95990000D01*
X126000000Y-70460000D02*
X124780000Y-71680000D01*
X124780000Y-73770000D02*
X123650000Y-74900000D01*
X114610000Y-92770000D02*
X116680000Y-94840000D01*
X124780000Y-71680000D02*
X124780000Y-73770000D01*
X114970000Y-80400000D02*
X114610000Y-80760000D01*
X114610000Y-80760000D02*
X114610000Y-92770000D01*
X120090000Y-74900000D02*
X120090000Y-75280000D01*
D17*
X134870000Y-73780000D02*
X134870000Y-71710000D01*
X139600000Y-105700000D02*
X134160000Y-105700000D01*
X134870000Y-71710000D02*
X133620000Y-70460000D01*
X139980000Y-105320000D02*
X139980000Y-78890000D01*
X139980000Y-78890000D02*
X134870000Y-73780000D01*
X134160000Y-105700000D02*
X132600000Y-104140000D01*
X139980000Y-105320000D02*
X139980000Y-100460000D01*
X140080000Y-100360000D02*
X145110000Y-100360000D01*
X139600000Y-105700000D02*
X139980000Y-105320000D01*
D16*
X136806556Y-96861441D02*
X136512065Y-97155929D01*
X137195465Y-96649307D02*
X137195464Y-96826085D01*
X137266175Y-96295751D02*
X137160109Y-96295751D01*
X127770000Y-105897994D02*
X127770000Y-110420000D01*
X137195464Y-96826085D02*
X137160110Y-96861440D01*
X137054042Y-96507883D02*
X137195465Y-96649307D01*
X137619732Y-96225040D02*
X137619731Y-96401818D01*
X137407599Y-96437174D02*
X137266175Y-96295751D01*
X137831865Y-96012907D02*
X137655087Y-95836129D01*
X127770000Y-110420000D02*
X128430000Y-111080000D01*
X137160110Y-96861440D02*
X136806556Y-96861441D01*
X137478310Y-95836129D02*
X137442954Y-95871484D01*
X136512065Y-97155929D02*
X127770000Y-105897994D01*
X138630000Y-93740000D02*
X138630000Y-95037994D01*
X137655087Y-95836129D02*
X137478310Y-95836129D01*
X137930000Y-93040000D02*
X138630000Y-93740000D01*
X138008641Y-96012908D02*
X137831865Y-96012907D01*
X137054042Y-96401817D02*
X137054042Y-96507883D01*
X137584377Y-96437173D02*
X137407599Y-96437174D01*
X137160109Y-96295751D02*
X137054042Y-96401817D01*
X137442954Y-96048261D02*
X137619732Y-96225040D01*
X138043997Y-95977551D02*
X138008641Y-96012908D01*
X137619731Y-96401818D02*
X137584377Y-96437173D01*
X128430000Y-111080000D02*
X129160000Y-111080000D01*
X137442954Y-95871484D02*
X137442954Y-96048261D01*
X138043997Y-95623997D02*
X138043997Y-95977551D01*
X138630000Y-95037994D02*
X138043997Y-95623997D01*
X136610000Y-93040000D02*
X137930000Y-93040000D01*
X131780000Y-107340000D02*
X131780000Y-104367995D01*
X138498494Y-96661506D02*
X138970000Y-96190000D01*
X138498494Y-97649501D02*
X138498494Y-96661506D01*
X128200000Y-109780000D02*
X129340000Y-109780000D01*
X131780000Y-104367995D02*
X138498494Y-97649501D01*
X138970000Y-96190000D02*
X138970000Y-91820000D01*
X129340000Y-109780000D02*
X131780000Y-107340000D01*
X133546826Y-99689242D02*
X133546826Y-99795308D01*
X133900379Y-98557867D02*
X133652892Y-98557867D01*
X134112512Y-98770000D02*
X133900379Y-98557867D01*
X137200000Y-95930000D02*
X134360000Y-98770000D01*
X131672985Y-100785262D02*
X131885117Y-100997394D01*
X133157916Y-99300331D02*
X133546826Y-99689242D01*
X131885117Y-101244882D02*
X128180499Y-104949501D01*
X133652892Y-98805354D02*
X134041803Y-99194265D01*
X131885117Y-100997394D02*
X131885117Y-101244882D01*
X133157916Y-99052844D02*
X133157916Y-99300331D01*
X133900381Y-99441754D02*
X133794315Y-99441754D01*
X133546826Y-99795308D02*
X133405404Y-99936731D01*
X128180499Y-105041506D02*
X127080000Y-106142005D01*
X133051849Y-100290285D02*
X132910427Y-100431708D01*
X132556872Y-100785262D02*
X132415450Y-100926685D01*
X132167962Y-100290285D02*
X132556872Y-100679196D01*
X133794315Y-99441754D02*
X133405404Y-99052844D01*
X134041803Y-99194265D02*
X134041803Y-99300331D01*
X132910427Y-100431708D02*
X132804361Y-100431708D01*
X137200000Y-94310000D02*
X137200000Y-95930000D01*
X132415450Y-100926685D02*
X132309384Y-100926685D01*
X132662939Y-99547821D02*
X132662939Y-99795308D01*
X132309384Y-100926685D02*
X131920473Y-100537775D01*
X132804361Y-100431708D02*
X132415450Y-100042798D01*
X132662939Y-99795308D02*
X133051849Y-100184219D01*
X133405404Y-99052844D02*
X133157916Y-99052844D01*
X132415450Y-100042798D02*
X132167962Y-100042798D01*
X131920473Y-100537775D02*
X131672985Y-100537775D01*
X134360000Y-98770000D02*
X134112512Y-98770000D01*
X132167962Y-100042798D02*
X132167962Y-100290285D01*
X133405404Y-99936731D02*
X133299338Y-99936731D01*
X128180499Y-104949501D02*
X128180499Y-105041506D01*
X127080000Y-106142005D02*
X127080000Y-110760000D01*
X131672985Y-100537775D02*
X131672985Y-100785262D01*
X134041803Y-99300331D02*
X133900381Y-99441754D01*
X132556872Y-100679196D02*
X132556872Y-100785262D01*
X132910427Y-99547821D02*
X132662939Y-99547821D01*
X133652892Y-98557867D02*
X133652892Y-98805354D01*
X133051849Y-100184219D02*
X133051849Y-100290285D01*
X133299338Y-99936731D02*
X132910427Y-99547821D01*
X130980000Y-108830000D02*
X133380000Y-106430000D01*
X138650000Y-106430000D02*
X138810000Y-106270000D01*
X130980000Y-109240000D02*
X130980000Y-108830000D01*
X133380000Y-106430000D02*
X138650000Y-106430000D01*
X135060000Y-94790000D02*
X135210000Y-94940000D01*
X137520000Y-93640000D02*
X136010000Y-93640000D01*
X138160000Y-94840126D02*
X137805063Y-95195063D01*
X138160000Y-94280000D02*
X138160000Y-94840126D01*
X135210000Y-94940000D02*
X135910000Y-94940000D01*
X135210000Y-94640000D02*
X135060000Y-94790000D01*
X133428493Y-98181507D02*
X128310000Y-103300000D01*
X136060000Y-95090000D02*
X135910000Y-95240000D01*
X127480000Y-103300000D02*
X126460000Y-104320000D01*
X136010000Y-93640000D02*
X135560000Y-94090000D01*
X134498493Y-98181507D02*
X133428493Y-98181507D01*
X135560000Y-94490000D02*
X135410000Y-94640000D01*
X135560000Y-95390000D02*
X135560000Y-97120000D01*
X137720000Y-93840000D02*
X137520000Y-93640000D01*
X135710000Y-95240000D02*
X135560000Y-95390000D01*
X135560000Y-94090000D02*
X135560000Y-94490000D01*
X128310000Y-103300000D02*
X127480000Y-103300000D01*
X137665000Y-93785000D02*
X137720000Y-93840000D01*
X135410000Y-94640000D02*
X135210000Y-94640000D01*
X126460000Y-104320000D02*
X126460000Y-109930000D01*
X137720000Y-93840000D02*
X138160000Y-94280000D01*
X135560000Y-97120000D02*
X134498493Y-98181507D01*
X135910000Y-95240000D02*
X135710000Y-95240000D01*
X135910000Y-94940000D02*
X136060000Y-95090000D01*
X134960047Y-100111706D02*
X134500426Y-99652086D01*
X134853981Y-99298531D02*
X134677204Y-99298531D01*
X136020712Y-99051042D02*
X135561091Y-98591421D01*
X134606492Y-100465261D02*
X134146871Y-100005641D01*
X132455734Y-102382132D02*
X132667868Y-102594266D01*
X134146871Y-100005641D02*
X133970094Y-100005641D01*
X134783268Y-100465261D02*
X134606492Y-100465261D01*
X134252937Y-100818816D02*
X133793316Y-100359196D01*
X140520000Y-96360000D02*
X140760000Y-96360000D01*
X132031472Y-103230662D02*
X131819338Y-103018528D01*
X132031470Y-102594264D02*
X132031470Y-102806396D01*
X131819338Y-103018528D02*
X131607206Y-103018528D01*
X132243602Y-102594264D02*
X132031470Y-102594264D01*
X131607206Y-103442793D02*
X129640000Y-105410000D01*
X135136823Y-100111706D02*
X134960047Y-100111706D01*
X141800000Y-98830000D02*
X141440000Y-99190000D01*
X131607206Y-103018528D02*
X131607206Y-103442793D01*
X134677204Y-99298531D02*
X134677204Y-99475307D01*
X133970094Y-100182417D02*
X134429714Y-100642038D01*
X141800000Y-98760000D02*
X141800000Y-98830000D01*
X132243604Y-103230662D02*
X132031472Y-103230662D01*
X141400000Y-97000000D02*
X141800000Y-97400000D01*
X135136824Y-99934928D02*
X135136823Y-100111706D01*
X141800000Y-97400000D02*
X141800000Y-98760000D01*
X134783269Y-100288483D02*
X134783268Y-100465261D01*
X133970094Y-100005641D02*
X133970094Y-100182417D01*
X135384314Y-98768197D02*
X135843934Y-99227818D01*
X133475117Y-100924884D02*
X132930000Y-101470000D01*
X134076158Y-101172371D02*
X133899382Y-101172371D01*
X134429714Y-100642038D02*
X134429713Y-100818816D01*
X132880000Y-102170000D02*
X132455734Y-102170000D01*
X140760000Y-96360000D02*
X141400000Y-97000000D01*
X135950000Y-98450000D02*
X135949999Y-98626778D01*
X134323649Y-99828862D02*
X134783269Y-100288483D01*
X135030759Y-99121752D02*
X135490379Y-99581373D01*
X133616539Y-100535972D02*
X134076159Y-100995593D01*
X135667157Y-99404596D02*
X135207536Y-98944976D01*
X135490379Y-99581373D02*
X135490378Y-99758151D01*
X134677204Y-99475307D02*
X135136824Y-99934928D01*
X133899382Y-101172371D02*
X133651895Y-100924884D01*
X132930000Y-101470000D02*
X132930000Y-102120000D01*
X133651895Y-100924884D02*
X133475117Y-100924884D01*
X132455736Y-102806398D02*
X132243602Y-102594264D01*
X135313602Y-99758151D02*
X134853981Y-99298531D01*
X135207536Y-98944976D02*
X135030759Y-98944976D01*
X135490378Y-99758151D02*
X135313602Y-99758151D01*
X133616539Y-100359196D02*
X133616539Y-100535972D01*
X132667868Y-102594266D02*
X132667868Y-102806398D01*
X136197488Y-99051042D02*
X136020712Y-99051042D01*
X132930000Y-102120000D02*
X132880000Y-102170000D01*
X135384314Y-98591421D02*
X135384314Y-98768197D01*
X135843933Y-99404596D02*
X135667157Y-99404596D01*
X134076159Y-100995593D02*
X134076158Y-101172371D01*
X132667868Y-102806398D02*
X132455736Y-102806398D01*
X132455734Y-102170000D02*
X132455734Y-102382132D01*
X135030759Y-98944976D02*
X135030759Y-99121752D01*
X133793316Y-100359196D02*
X133616539Y-100359196D01*
X136830000Y-98450000D02*
X135950000Y-98450000D01*
X134323649Y-99652086D02*
X134323649Y-99828862D01*
X134429713Y-100818816D02*
X134252937Y-100818816D01*
X134500426Y-99652086D02*
X134323649Y-99652086D01*
X135561091Y-98591421D02*
X135384314Y-98591421D01*
X135843934Y-99227818D02*
X135843933Y-99404596D01*
X135949999Y-98626778D02*
X136197487Y-98874266D01*
X132031470Y-102806396D02*
X132243604Y-103018530D01*
X132243604Y-103018530D02*
X132243604Y-103230662D01*
X136197487Y-98874266D02*
X136197488Y-99051042D01*
X122360000Y-103020000D02*
X121040000Y-103020000D01*
X125490000Y-98170000D02*
X125840000Y-98520000D01*
X123340000Y-99930000D02*
X122560000Y-100710000D01*
X124560000Y-99350000D02*
X123980000Y-99930000D01*
X125840000Y-99350000D02*
X124560000Y-99350000D01*
X122560000Y-102820000D02*
X122360000Y-103020000D01*
X122560000Y-100710000D02*
X122560000Y-102820000D01*
X121040000Y-103020000D02*
X120280000Y-103780000D01*
X123980000Y-99930000D02*
X123340000Y-99930000D01*
X124489293Y-96230000D02*
X124650000Y-96390707D01*
X124400000Y-96230000D02*
X124489293Y-96230000D01*
X120280000Y-104400000D02*
X120630000Y-104750000D01*
X120630000Y-104750000D02*
X120840000Y-104750000D01*
X124650000Y-97860000D02*
X124960000Y-98170000D01*
X125840000Y-98520000D02*
X125840000Y-99350000D01*
X120280000Y-103780000D02*
X120280000Y-104400000D01*
X124650000Y-96390707D02*
X124650000Y-97860000D01*
X124960000Y-98170000D02*
X125490000Y-98170000D01*
X126887995Y-98570000D02*
X124567995Y-100890000D01*
X123540000Y-100890000D02*
X123260000Y-101170000D01*
X123260000Y-101170000D02*
X123260000Y-103010000D01*
X127680000Y-98570000D02*
X126887995Y-98570000D01*
X124567995Y-100890000D02*
X123540000Y-100890000D01*
X129953584Y-100469308D02*
X129953584Y-100603658D01*
X126120000Y-101810000D02*
X125730000Y-102200000D01*
X130006617Y-101194095D02*
X130006616Y-101264807D01*
X130812722Y-100458701D02*
X130749084Y-100522340D01*
X130275319Y-100925393D02*
X130275318Y-100996105D01*
X131484479Y-99716234D02*
X131092033Y-99323789D01*
X129097979Y-101897669D02*
X129097979Y-102032020D01*
X129737915Y-101462797D02*
X129737914Y-101533509D01*
X131092033Y-99323789D02*
X130957682Y-99323789D01*
X131920000Y-97670000D02*
X131920000Y-99210000D01*
X132370000Y-97220000D02*
X131920000Y-97670000D01*
X131226384Y-99189436D02*
X131618830Y-99581882D01*
X129737914Y-101533509D02*
X129674276Y-101597148D01*
X125730000Y-102200000D02*
X124850000Y-102200000D01*
X130409670Y-100791043D02*
X130087934Y-100469308D01*
X131650649Y-99345000D02*
X131360735Y-99055086D01*
X129872266Y-101328447D02*
X129550530Y-101006712D01*
X129684882Y-100872360D02*
X130006617Y-101194095D01*
X133300000Y-97120000D02*
X133300000Y-96870000D01*
X130222286Y-100200606D02*
X130222286Y-100334956D01*
X130140968Y-101059745D02*
X129819232Y-100738010D01*
X129469212Y-101802211D02*
X129405574Y-101865850D01*
X133100000Y-96870000D02*
X133100000Y-97120000D01*
X133100000Y-97120000D02*
X133000000Y-97220000D01*
X133400000Y-97220000D02*
X133300000Y-97120000D01*
X130490988Y-100066254D02*
X130812723Y-100387989D01*
X130759690Y-99663202D02*
X130759690Y-99797552D01*
X130749084Y-100522340D02*
X130678372Y-100522341D01*
X129942978Y-101328446D02*
X129872266Y-101328447D01*
X131360735Y-99055086D02*
X131226384Y-99055086D01*
X129416180Y-101006712D02*
X129416180Y-101141062D01*
X131215776Y-99984937D02*
X130894040Y-99663202D01*
X131350126Y-99921297D02*
X131286488Y-99984936D01*
X130625338Y-99931904D02*
X130490988Y-99931904D01*
X129013126Y-101544116D02*
X128878776Y-101544116D01*
X131226384Y-99055086D02*
X131226384Y-99189436D01*
X133300000Y-96870000D02*
X133200000Y-96770000D01*
X133200000Y-96770000D02*
X133100000Y-96870000D01*
X131350127Y-99850585D02*
X131350126Y-99921297D01*
X129674276Y-101597148D02*
X129603564Y-101597149D01*
X130480382Y-100791042D02*
X130409670Y-100791043D01*
X134000000Y-96700000D02*
X133480000Y-97220000D01*
X131785000Y-99345000D02*
X131650649Y-99345000D01*
X133480000Y-97220000D02*
X133400000Y-97220000D01*
X131081425Y-100119287D02*
X131081424Y-100189999D01*
X130957682Y-99323789D02*
X130957682Y-99458139D01*
X130759690Y-99797552D02*
X131081425Y-100119287D01*
X129550530Y-101006712D02*
X129416180Y-101006712D01*
X129147478Y-101275414D02*
X129147478Y-101409764D01*
X129603564Y-101597149D02*
X129281828Y-101275414D01*
X130894040Y-99663202D02*
X130759690Y-99663202D01*
X129684882Y-100738010D02*
X129684882Y-100872360D01*
X131618829Y-99652594D02*
X131555191Y-99716233D01*
X130006616Y-101264807D02*
X129942978Y-101328446D01*
X130211680Y-101059744D02*
X130140968Y-101059745D01*
X129819232Y-100738010D02*
X129684882Y-100738010D01*
X130947074Y-100253639D02*
X130625338Y-99931904D01*
X134700000Y-97020000D02*
X134380000Y-96700000D01*
X126780000Y-101810000D02*
X126120000Y-101810000D01*
X129097979Y-102032020D02*
X128450000Y-102680000D01*
X130544021Y-100656691D02*
X130544020Y-100727403D01*
X130222286Y-100334956D02*
X130544021Y-100656691D01*
X127650000Y-102680000D02*
X126780000Y-101810000D01*
X131081424Y-100189999D02*
X131017786Y-100253638D01*
X130490988Y-99931904D02*
X130490988Y-100066254D01*
X130812723Y-100387989D02*
X130812722Y-100458701D01*
X131555191Y-99716233D02*
X131484479Y-99716234D01*
X130087934Y-100469308D02*
X129953584Y-100469308D01*
X130356636Y-100200606D02*
X130222286Y-100200606D01*
X133000000Y-97220000D02*
X132370000Y-97220000D01*
X130275318Y-100996105D02*
X130211680Y-101059744D01*
X129147478Y-101409764D02*
X129469213Y-101731499D01*
X130544020Y-100727403D02*
X130480382Y-100791042D01*
X128878776Y-101678466D02*
X129097979Y-101897669D01*
X128450000Y-102680000D02*
X127650000Y-102680000D01*
X131286488Y-99984936D02*
X131215776Y-99984937D01*
X129405574Y-101865850D02*
X129334862Y-101865851D01*
X130678372Y-100522341D02*
X130356636Y-100200606D01*
X131618830Y-99581882D02*
X131618829Y-99652594D01*
X129334862Y-101865851D02*
X129013126Y-101544116D01*
X131017786Y-100253638D02*
X130947074Y-100253639D01*
X131920000Y-99210000D02*
X131785000Y-99345000D01*
X129416180Y-101141062D02*
X129737915Y-101462797D01*
X128878776Y-101544116D02*
X128878776Y-101678466D01*
X130957682Y-99458139D02*
X131350127Y-99850585D01*
X129469213Y-101731499D02*
X129469212Y-101802211D01*
X129953584Y-100603658D02*
X130275319Y-100925393D01*
X134380000Y-96700000D02*
X134000000Y-96700000D01*
X129281828Y-101275414D02*
X129147478Y-101275414D01*
X127809278Y-100660723D02*
X127250000Y-101220000D01*
X130270020Y-99762688D02*
X129555843Y-99048511D01*
X129287141Y-99317213D02*
X129152789Y-99317214D01*
X130673071Y-99359636D02*
X130673072Y-99493986D01*
X130376088Y-98525249D02*
X130376088Y-98659599D01*
X128884087Y-99585916D02*
X128884085Y-99720266D01*
X129866966Y-100300092D02*
X129732616Y-100300092D01*
X130538722Y-99493986D02*
X129824545Y-98779809D01*
X128039088Y-100289489D02*
X127975448Y-100353128D01*
X129463914Y-100568794D02*
X128749737Y-99854617D01*
X130404370Y-99762688D02*
X130270020Y-99762688D01*
X130496297Y-98108054D02*
X130644790Y-98256547D01*
X129598264Y-100568794D02*
X129463914Y-100568794D01*
X129732616Y-100300092D02*
X129018439Y-99585915D01*
X128884085Y-99720266D02*
X129598263Y-100434444D01*
X130510440Y-98390897D02*
X130361948Y-98242405D01*
X131660000Y-95210000D02*
X131660000Y-96810000D01*
X130227596Y-98242404D02*
X130227595Y-98376756D01*
X129866965Y-100165742D02*
X129866966Y-100300092D01*
X129690193Y-98779810D02*
X129690191Y-98914160D01*
X128792157Y-101240549D02*
X128792156Y-101374901D01*
X128615383Y-99988968D02*
X129329561Y-100703146D01*
X129555843Y-99048511D02*
X129421491Y-99048512D01*
X130765000Y-97705000D02*
X130764999Y-97839352D01*
X132590000Y-94280000D02*
X131660000Y-95210000D01*
X131479177Y-98553530D02*
X131479178Y-98687880D01*
X128749737Y-99854617D02*
X128615385Y-99854618D01*
X128657806Y-101374901D02*
X127943629Y-100660724D01*
X128244151Y-100155136D02*
X129060860Y-100971846D01*
X127250000Y-101220000D02*
X127250000Y-101400000D01*
X131660000Y-96810000D02*
X130765000Y-97705000D01*
X129060860Y-100971846D02*
X129060859Y-101106198D01*
X129598263Y-100434444D02*
X129598264Y-100568794D01*
X129421491Y-99048512D02*
X129421489Y-99182862D01*
X131479178Y-98687880D02*
X131344828Y-98687880D01*
X130001318Y-100031390D02*
X129287141Y-99317213D01*
X130630651Y-97973703D02*
X130496299Y-97973704D01*
X129152787Y-99451564D02*
X129866965Y-100165742D01*
X130135668Y-100031390D02*
X130001318Y-100031390D01*
X130644790Y-98390897D02*
X130510440Y-98390897D01*
X128109799Y-100289489D02*
X128039088Y-100289489D01*
X130764999Y-97839352D02*
X131479177Y-98553530D01*
X131344828Y-98687880D02*
X130630651Y-97973703D01*
X128615385Y-99854618D02*
X128615383Y-99988968D01*
X129421489Y-99182862D02*
X130135667Y-99897040D01*
X130093246Y-98511107D02*
X129958894Y-98511106D01*
X130496299Y-97973704D02*
X130496297Y-98108054D01*
X129329562Y-100837496D02*
X129195212Y-100837496D01*
X129690191Y-98914160D02*
X130404369Y-99628338D01*
X129152789Y-99317214D02*
X129152787Y-99451564D01*
X128244151Y-100084425D02*
X128244151Y-100155136D01*
X127943629Y-100660724D02*
X127809278Y-100660723D01*
X129958893Y-98645458D02*
X130673071Y-99359636D01*
X130361948Y-98242405D02*
X130227596Y-98242404D01*
X129329561Y-100703146D02*
X129329562Y-100837496D01*
X130135667Y-99897040D02*
X130135668Y-100031390D01*
X130241738Y-98659599D02*
X130093246Y-98511107D01*
X130227595Y-98376756D02*
X130376088Y-98525249D01*
X129060859Y-101106198D02*
X128926509Y-101106198D01*
X128378502Y-100020786D02*
X128307791Y-100020786D01*
X130404369Y-99628338D02*
X130404370Y-99762688D01*
X129195212Y-100837496D02*
X128378502Y-100020786D01*
X130673072Y-99493986D02*
X130538722Y-99493986D01*
X129958894Y-98511106D02*
X129958893Y-98645458D01*
X129018439Y-99585915D02*
X128884087Y-99585916D01*
X129824545Y-98779809D02*
X129690193Y-98779810D01*
X128307791Y-100020786D02*
X128244151Y-100084425D01*
X130644790Y-98256547D02*
X130644790Y-98390897D01*
X128792156Y-101374901D02*
X128657806Y-101374901D01*
X130376088Y-98659599D02*
X130241738Y-98659599D01*
X127975448Y-100423839D02*
X128792157Y-101240549D01*
X128926509Y-101106198D02*
X128109799Y-100289489D01*
X127975448Y-100353128D02*
X127975448Y-100423839D01*
X137094367Y-88506675D02*
X137094366Y-88754163D01*
X126660000Y-101400000D02*
X125650000Y-101400000D01*
X130799501Y-97021507D02*
X130799501Y-97328493D01*
X137483273Y-86915685D02*
X138084315Y-87516727D01*
X138579289Y-87021753D02*
X138579288Y-87269241D01*
X130799501Y-97328493D02*
X128328493Y-99799501D01*
X136740812Y-87658146D02*
X136493325Y-87658146D01*
X138331802Y-87269240D02*
X137730760Y-86668198D01*
X137978247Y-86173223D02*
X137978247Y-86420710D01*
X128260499Y-99799501D02*
X126660000Y-101400000D01*
X136988299Y-87163172D02*
X136988299Y-87410659D01*
X138650000Y-86350000D02*
X138402512Y-86350000D01*
X130769501Y-94230499D02*
X130769501Y-96991506D01*
X137589340Y-88259189D02*
X137341854Y-88259188D01*
X138402512Y-86350000D02*
X138225735Y-86173223D01*
X137730760Y-86668198D02*
X137483273Y-86668198D01*
X138870000Y-86130000D02*
X138650000Y-86350000D01*
X136988299Y-87410659D02*
X137589341Y-88011701D01*
X138225735Y-86173223D02*
X137978247Y-86173223D01*
X136670104Y-88577386D02*
X136422614Y-88577387D01*
X137235786Y-87163172D02*
X136988299Y-87163172D01*
X138084314Y-87764215D02*
X137836828Y-87764214D01*
X137341854Y-88259188D02*
X136740812Y-87658146D01*
X136846880Y-88754162D02*
X136670104Y-88577386D01*
X137483273Y-86668198D02*
X137483273Y-86915685D01*
X138579288Y-87269241D02*
X138331802Y-87269240D01*
X136493325Y-87905633D02*
X137094367Y-88506675D01*
X137589341Y-88011701D02*
X137589340Y-88259189D01*
X130769501Y-96991506D02*
X130799501Y-97021507D01*
X128328493Y-99799501D02*
X128260499Y-99799501D01*
X136493325Y-87658146D02*
X136493325Y-87905633D01*
X137978247Y-86420710D02*
X138579289Y-87021753D01*
X137094366Y-88754163D02*
X136846880Y-88754162D01*
X136422614Y-88577387D02*
X130769501Y-94230499D01*
X137836828Y-87764214D02*
X137235786Y-87163172D01*
X138084315Y-87516727D02*
X138084314Y-87764215D01*
X128180000Y-96010000D02*
X128650000Y-96010000D01*
X127895000Y-96515000D02*
X127990000Y-96610000D01*
X128085000Y-96515000D02*
X128085000Y-96105000D01*
X126945000Y-95505000D02*
X127040000Y-95410000D01*
X127895000Y-95505000D02*
X127895000Y-96515000D01*
X127040000Y-95410000D02*
X127135000Y-95505000D01*
X127515000Y-95505000D02*
X127515000Y-96515000D01*
X127705000Y-95505000D02*
X127800000Y-95410000D01*
X127135000Y-96515000D02*
X127230000Y-96610000D01*
X127325000Y-95505000D02*
X127420000Y-95410000D01*
X127515000Y-96515000D02*
X127610000Y-96610000D01*
X128650000Y-96010000D02*
X129910000Y-97270000D01*
X126850000Y-96010000D02*
X126945000Y-95915000D01*
X126520000Y-96010000D02*
X126850000Y-96010000D01*
X127990000Y-96610000D02*
X128085000Y-96515000D01*
X127230000Y-96610000D02*
X127325000Y-96515000D01*
X128085000Y-96105000D02*
X128180000Y-96010000D01*
X126945000Y-95915000D02*
X126945000Y-95505000D01*
X127135000Y-95505000D02*
X127135000Y-96515000D01*
X127800000Y-95410000D02*
X127895000Y-95505000D01*
X127325000Y-96515000D02*
X127325000Y-95505000D01*
X127420000Y-95410000D02*
X127515000Y-95505000D01*
X127705000Y-96515000D02*
X127705000Y-95505000D01*
X127610000Y-96610000D02*
X127705000Y-96515000D01*
X133723299Y-84655659D02*
X134324341Y-85256701D01*
X134819314Y-85009215D02*
X134571828Y-85009214D01*
X134713247Y-83418223D02*
X134713247Y-83665710D01*
X133228325Y-85150633D02*
X133405101Y-85327409D01*
X133970786Y-84408172D02*
X133723299Y-84408172D01*
X133405101Y-85327409D02*
X133405101Y-85574898D01*
X134713247Y-83665710D02*
X135314289Y-84266753D01*
X133228325Y-84903146D02*
X133228325Y-85150633D01*
X134324341Y-85256701D02*
X134324340Y-85504189D01*
X125920000Y-96740000D02*
X125140000Y-97520000D01*
X134819315Y-84761727D02*
X134819314Y-85009215D01*
X135440000Y-83540000D02*
X135385000Y-83595000D01*
X133723299Y-84408172D02*
X133723299Y-84655659D01*
X135440000Y-81330000D02*
X135440000Y-83540000D01*
X134218273Y-84160685D02*
X134819315Y-84761727D01*
X134960735Y-83418223D02*
X134713247Y-83418223D01*
X134324340Y-85504189D02*
X134076854Y-85504188D01*
X134571828Y-85009214D02*
X133970786Y-84408172D01*
X135314288Y-84514241D02*
X135066802Y-84514240D01*
X125920000Y-93060000D02*
X125920000Y-96740000D01*
X133475812Y-84903146D02*
X133228325Y-84903146D01*
X134076854Y-85504188D02*
X133475812Y-84903146D01*
X134465760Y-83913198D02*
X134218273Y-83913198D01*
X135066802Y-84514240D02*
X134465760Y-83913198D01*
X133405101Y-85574898D02*
X125920000Y-93060000D01*
X134218273Y-83913198D02*
X134218273Y-84160685D01*
X135385000Y-83595000D02*
X135137512Y-83595000D01*
X135137512Y-83595000D02*
X134960735Y-83418223D01*
X135314289Y-84266753D02*
X135314288Y-84514241D01*
X145020000Y-90920000D02*
X144020000Y-89920000D01*
X143325000Y-89445000D02*
X143325000Y-90395000D01*
X142700000Y-90520000D02*
X142575000Y-90395000D01*
X142075000Y-90045000D02*
X141950000Y-89920000D01*
X143450000Y-89320000D02*
X143325000Y-89445000D01*
X142450000Y-89320000D02*
X142325000Y-89445000D01*
X143325000Y-90395000D02*
X143200000Y-90520000D01*
X142325000Y-90395000D02*
X142200000Y-90520000D01*
X143950000Y-89920000D02*
X143825000Y-90045000D01*
X142575000Y-90395000D02*
X142575000Y-89445000D01*
X142075000Y-90395000D02*
X142075000Y-90045000D01*
X144020000Y-89920000D02*
X143950000Y-89920000D01*
X145130000Y-90920000D02*
X145020000Y-90920000D01*
X143575000Y-89445000D02*
X143450000Y-89320000D01*
X142325000Y-89445000D02*
X142325000Y-90395000D01*
X142950000Y-89320000D02*
X142825000Y-89445000D01*
X143825000Y-90395000D02*
X143700000Y-90520000D01*
X143075000Y-89445000D02*
X142950000Y-89320000D01*
X143700000Y-90520000D02*
X143575000Y-90395000D01*
X142825000Y-89445000D02*
X142825000Y-90395000D01*
X142825000Y-90395000D02*
X142700000Y-90520000D01*
X142200000Y-90520000D02*
X142075000Y-90395000D01*
X143075000Y-90395000D02*
X143075000Y-89445000D01*
X143200000Y-90520000D02*
X143075000Y-90395000D01*
X143575000Y-90395000D02*
X143575000Y-89445000D01*
X142575000Y-89445000D02*
X142450000Y-89320000D01*
X143825000Y-90045000D02*
X143825000Y-90395000D01*
X141950000Y-89920000D02*
X141610000Y-89920000D01*
X134180102Y-86599897D02*
X131870000Y-88910000D01*
X136053935Y-85256397D02*
X136053934Y-85503885D01*
X126710000Y-99610000D02*
X125720000Y-100600000D01*
X131870000Y-88910000D02*
X131870000Y-92430000D01*
X134816500Y-86493832D02*
X134286168Y-85963500D01*
X134286168Y-85963500D02*
X134038681Y-85963500D01*
X135063986Y-86493833D02*
X134816500Y-86493832D01*
X128250000Y-99610000D02*
X126710000Y-99610000D01*
X136160000Y-81830000D02*
X136160000Y-84620000D01*
X134533655Y-85716013D02*
X135063987Y-86246345D01*
X135311474Y-85998858D02*
X134781142Y-85468526D01*
X134038681Y-86210987D02*
X134180102Y-86352408D01*
X130610000Y-97250000D02*
X128250000Y-99610000D01*
X131870000Y-92430000D02*
X130560000Y-93740000D01*
X135558961Y-85751371D02*
X135558960Y-85998859D01*
X135276116Y-84973552D02*
X135028629Y-84973552D01*
X135063987Y-86246345D02*
X135063986Y-86493833D01*
X134038681Y-85963500D02*
X134038681Y-86210987D01*
X134533655Y-85468526D02*
X134533655Y-85716013D01*
X135806448Y-85503884D02*
X135276116Y-84973552D01*
X135523603Y-84478578D02*
X135523603Y-84726065D01*
X135523603Y-84726065D02*
X136053935Y-85256397D01*
X130610000Y-97100000D02*
X130610000Y-97250000D01*
X130560000Y-97050000D02*
X130610000Y-97100000D01*
X136160000Y-84620000D02*
X135912512Y-84620000D01*
X134180102Y-86352408D02*
X134180102Y-86599897D01*
X135771090Y-84478578D02*
X135523603Y-84478578D01*
X136053934Y-85503885D02*
X135806448Y-85503884D01*
X130560000Y-93740000D02*
X130560000Y-97050000D01*
X134781142Y-85468526D02*
X134533655Y-85468526D01*
X125720000Y-100600000D02*
X125650000Y-100600000D01*
X135912512Y-84620000D02*
X135771090Y-84478578D01*
X135558960Y-85998859D02*
X135311474Y-85998858D01*
X135028629Y-84973552D02*
X135028629Y-85221039D01*
X135028629Y-85221039D02*
X135558961Y-85751371D01*
X136038523Y-92380000D02*
X134783477Y-91124954D01*
X137030000Y-92380000D02*
X136038523Y-92380000D01*
X129455391Y-92687660D02*
X128387658Y-93755389D01*
X129321041Y-92553310D02*
X129455391Y-92553310D01*
X129455391Y-92553310D02*
X129455391Y-92687660D01*
X128387658Y-93755389D02*
X128387658Y-93889739D01*
X129724089Y-92956358D02*
X128656356Y-94024087D01*
X129992787Y-93090706D02*
X129992787Y-93225056D01*
X129059404Y-94427135D02*
X130127133Y-93359402D01*
X130261485Y-93493754D02*
X129794793Y-93960443D01*
X128720000Y-92580000D02*
X128720000Y-93020000D01*
X130127133Y-93359402D02*
X130261485Y-93359404D01*
X129724089Y-92822008D02*
X129724089Y-92956358D01*
X130261485Y-93359404D02*
X130261485Y-93493754D01*
X128656356Y-94158437D02*
X128790706Y-94158437D01*
X129794793Y-93960443D02*
X129794794Y-94094794D01*
X128656356Y-94024087D02*
X128656356Y-94158437D01*
X128925054Y-94292785D02*
X128925054Y-94427135D01*
X129858435Y-93090704D02*
X129992787Y-93090706D01*
X129794794Y-94094794D02*
X129900000Y-94200000D01*
X128522008Y-93889739D02*
X129589737Y-92822006D01*
X128720000Y-93020000D02*
X128854350Y-93020000D01*
X128925054Y-94427135D02*
X129059404Y-94427135D01*
X129589737Y-92822006D02*
X129724089Y-92822008D01*
X129992787Y-93225056D02*
X128925054Y-94292785D01*
X128387658Y-93889739D02*
X128522008Y-93889739D01*
X128790706Y-94158437D02*
X129858435Y-93090704D01*
X128854350Y-93020000D02*
X129321041Y-92553310D01*
X117750000Y-109040000D02*
X118110000Y-108680000D01*
X117750000Y-111275000D02*
X117750000Y-109040000D01*
X117740000Y-111285000D02*
X117750000Y-111275000D01*
X117740000Y-111870000D02*
X117740000Y-111285000D01*
X117400000Y-108650000D02*
X117400000Y-109880000D01*
X115410000Y-111870000D02*
X115200000Y-111870000D01*
X117400000Y-109880000D02*
X115410000Y-111870000D01*
%TA.AperFunction,Conductor*%
G36*
X122748163Y-108629846D02*
G01*
X122753417Y-108632974D01*
X122789837Y-108670572D01*
X122802413Y-108683555D01*
X122802713Y-108683876D01*
X122841675Y-108727247D01*
X122841832Y-108727426D01*
X122867994Y-108757770D01*
X122874825Y-108765693D01*
X122907471Y-108802032D01*
X122912486Y-108807615D01*
X122913994Y-108809293D01*
X122914065Y-108809366D01*
X122914075Y-108809377D01*
X122963449Y-108860349D01*
X122966745Y-108868553D01*
X122963359Y-108876721D01*
X122834157Y-109007221D01*
X122830328Y-109009795D01*
X122825802Y-109010689D01*
X122644022Y-109010049D01*
X122637581Y-109008090D01*
X122633287Y-109002906D01*
X122632560Y-108996213D01*
X122645105Y-108928654D01*
X122646176Y-108925495D01*
X122677960Y-108862980D01*
X122678093Y-108862728D01*
X122679383Y-108860349D01*
X122707360Y-108808753D01*
X122712984Y-108755799D01*
X122679467Y-108703063D01*
X122677712Y-108695508D01*
X122681068Y-108688516D01*
X122736744Y-108632840D01*
X122742047Y-108629798D01*
X122748163Y-108629846D01*
G37*
%TD.AperFunction*%
%TA.AperFunction,Conductor*%
G36*
X138060120Y-94884436D02*
G01*
X138115688Y-94940004D01*
X138119104Y-94947759D01*
X138116387Y-94955786D01*
X138068726Y-95012733D01*
X138068721Y-95012739D01*
X138068246Y-95013308D01*
X138067930Y-95013973D01*
X138067926Y-95013981D01*
X138042367Y-95067936D01*
X138042084Y-95068534D01*
X138041942Y-95069178D01*
X138041942Y-95069181D01*
X138030087Y-95123295D01*
X138017708Y-95186909D01*
X138017333Y-95188343D01*
X137993770Y-95259694D01*
X137990244Y-95264934D01*
X137984507Y-95267578D01*
X137978232Y-95266855D01*
X137936803Y-95249917D01*
X137808900Y-95197627D01*
X137805055Y-95195070D01*
X137802498Y-95191225D01*
X137733270Y-95021892D01*
X137732547Y-95015617D01*
X137735191Y-95009880D01*
X137740427Y-95006356D01*
X137811793Y-94982786D01*
X137813204Y-94982417D01*
X137876829Y-94970037D01*
X137931591Y-94958040D01*
X137986816Y-94931879D01*
X138044341Y-94883735D01*
X138052365Y-94881020D01*
X138060120Y-94884436D01*
G37*
%TD.AperFunction*%
%TA.AperFunction,Conductor*%
G36*
X124589510Y-96163503D02*
G01*
X124620392Y-96229000D01*
X124622738Y-96233974D01*
X124622824Y-96234129D01*
X124622830Y-96234139D01*
X124654399Y-96290483D01*
X124654708Y-96291074D01*
X124678411Y-96339684D01*
X124679219Y-96341871D01*
X124694228Y-96399673D01*
X124694581Y-96401877D01*
X124699215Y-96475297D01*
X124697907Y-96481453D01*
X124693600Y-96486041D01*
X124687538Y-96487734D01*
X124608867Y-96487734D01*
X124601800Y-96485359D01*
X124597603Y-96479198D01*
X124595249Y-96470817D01*
X124583923Y-96430487D01*
X124577960Y-96428493D01*
X124541908Y-96416438D01*
X124541905Y-96416437D01*
X124540707Y-96416037D01*
X124539451Y-96416174D01*
X124539448Y-96416174D01*
X124477967Y-96422903D01*
X124477742Y-96422925D01*
X124404563Y-96429504D01*
X124401363Y-96429351D01*
X124337612Y-96417423D01*
X124331559Y-96414264D01*
X124328301Y-96408264D01*
X124328945Y-96401467D01*
X124398138Y-96233519D01*
X124400693Y-96229694D01*
X124404524Y-96227150D01*
X124574502Y-96157662D01*
X124583169Y-96157589D01*
X124589510Y-96163503D01*
G37*
%TD.AperFunction*%
%TA.AperFunction,Conductor*%
G36*
X124999474Y-98405118D02*
G01*
X125058613Y-98452384D01*
X125116294Y-98474294D01*
X125117010Y-98474377D01*
X125173842Y-98480968D01*
X125173840Y-98480983D01*
X125173895Y-98480974D01*
X125239734Y-98488936D01*
X125241739Y-98489359D01*
X125314265Y-98511481D01*
X125319643Y-98514952D01*
X125322390Y-98520736D01*
X125321681Y-98527099D01*
X125252564Y-98696162D01*
X125250007Y-98700007D01*
X125246162Y-98702564D01*
X125076596Y-98771887D01*
X125070399Y-98772622D01*
X125064706Y-98770068D01*
X125061135Y-98764951D01*
X125036911Y-98696312D01*
X125036635Y-98695414D01*
X125020820Y-98635198D01*
X125004653Y-98584132D01*
X124975497Y-98532291D01*
X124927765Y-98477528D01*
X124924894Y-98469442D01*
X124928313Y-98461571D01*
X124983899Y-98405985D01*
X124991521Y-98402577D01*
X124999474Y-98405118D01*
G37*
%TD.AperFunction*%
%TA.AperFunction,Conductor*%
G36*
X130677433Y-114052917D02*
G01*
X130681308Y-114060211D01*
X130727833Y-114423164D01*
X130852913Y-114663238D01*
X130853426Y-114663799D01*
X130853427Y-114663800D01*
X131027511Y-114854098D01*
X131027701Y-114854311D01*
X131223465Y-115079102D01*
X131224876Y-115081115D01*
X131408951Y-115413266D01*
X131410399Y-115419580D01*
X131408267Y-115425697D01*
X131403206Y-115429742D01*
X130634489Y-115749134D01*
X130630000Y-115750029D01*
X130625511Y-115749134D01*
X129856793Y-115429742D01*
X129851732Y-115425697D01*
X129849600Y-115419580D01*
X129851047Y-115413269D01*
X130035124Y-115081111D01*
X130036530Y-115079105D01*
X130232346Y-114854254D01*
X130232438Y-114854151D01*
X130407086Y-114663238D01*
X130532166Y-114423164D01*
X130578690Y-114060212D01*
X130582567Y-114052917D01*
X130590296Y-114050000D01*
X130669704Y-114050000D01*
X130677433Y-114052917D01*
G37*
%TD.AperFunction*%
%TA.AperFunction,Conductor*%
G36*
X127380799Y-101034593D02*
G01*
X127436534Y-101090329D01*
X127439915Y-101097567D01*
X127437862Y-101105288D01*
X127403933Y-101154010D01*
X127403931Y-101154013D01*
X127403026Y-101155314D01*
X127402917Y-101156897D01*
X127402917Y-101156898D01*
X127400047Y-101198645D01*
X127399509Y-101206464D01*
X127399865Y-101207540D01*
X127399866Y-101207544D01*
X127416847Y-101258811D01*
X127416888Y-101258927D01*
X127438629Y-101319503D01*
X127439207Y-101321854D01*
X127448169Y-101386746D01*
X127447209Y-101393234D01*
X127442909Y-101398187D01*
X127436620Y-101400047D01*
X127254197Y-101400689D01*
X127249671Y-101399795D01*
X127245842Y-101397221D01*
X127116994Y-101267079D01*
X127113970Y-101261735D01*
X127114069Y-101255596D01*
X127117260Y-101250356D01*
X127171597Y-101198887D01*
X127172131Y-101198413D01*
X127219316Y-101159125D01*
X127219593Y-101158901D01*
X127261859Y-101126119D01*
X127309472Y-101086475D01*
X127364482Y-101034371D01*
X127372685Y-101031167D01*
X127380799Y-101034593D01*
G37*
%TD.AperFunction*%
%TA.AperFunction,Conductor*%
G36*
X138678497Y-106138427D02*
G01*
X138680158Y-106140077D01*
X138807519Y-106266543D01*
X138810088Y-106270376D01*
X138810975Y-106274903D01*
X138810057Y-106458503D01*
X138806661Y-106466687D01*
X138798504Y-106470144D01*
X138727292Y-106471039D01*
X138727289Y-106471039D01*
X138727214Y-106471040D01*
X138727184Y-106471041D01*
X138727149Y-106471042D01*
X138668489Y-106473520D01*
X138617911Y-106476472D01*
X138617723Y-106476482D01*
X138559215Y-106478953D01*
X138558868Y-106478962D01*
X138488121Y-106479851D01*
X138482209Y-106478333D01*
X138477866Y-106474044D01*
X138476274Y-106468152D01*
X138476274Y-106389406D01*
X138478855Y-106382075D01*
X138485459Y-106377979D01*
X138546304Y-106364595D01*
X138580105Y-106323730D01*
X138598085Y-106265541D01*
X138598152Y-106265333D01*
X138620272Y-106199270D01*
X138621741Y-106196335D01*
X138660631Y-106140075D01*
X138665878Y-106135879D01*
X138672570Y-106135262D01*
X138678497Y-106138427D01*
G37*
%TD.AperFunction*%
%TA.AperFunction,Conductor*%
G36*
X121268365Y-103759884D02*
G01*
X121335444Y-103782636D01*
X121336268Y-103782952D01*
X121390888Y-103806401D01*
X121392747Y-103807406D01*
X121448470Y-103844436D01*
X121449860Y-103845521D01*
X121511640Y-103901746D01*
X121514966Y-103907017D01*
X121515112Y-103913249D01*
X121512038Y-103918671D01*
X121456502Y-103974207D01*
X121449621Y-103977551D01*
X121442145Y-103975928D01*
X121394472Y-103946903D01*
X121393331Y-103947205D01*
X121393331Y-103947206D01*
X121349216Y-103958928D01*
X121349214Y-103958928D01*
X121347904Y-103959277D01*
X121346888Y-103960171D01*
X121346885Y-103960174D01*
X121301818Y-103999904D01*
X121301793Y-103999926D01*
X121301753Y-103999962D01*
X121301715Y-103999997D01*
X121301684Y-104000026D01*
X121248347Y-104050266D01*
X121246460Y-104051711D01*
X121188204Y-104087589D01*
X121181788Y-104089324D01*
X121175461Y-104087283D01*
X121171269Y-104082126D01*
X121101172Y-103913806D01*
X121100274Y-103909294D01*
X121101184Y-103904785D01*
X121172171Y-103735626D01*
X121178336Y-103729406D01*
X121187092Y-103729208D01*
X121268365Y-103759884D01*
G37*
%TD.AperFunction*%
%TA.AperFunction,Conductor*%
G36*
X136164524Y-81830898D02*
G01*
X136333214Y-81901685D01*
X136338163Y-81905611D01*
X136340349Y-81911537D01*
X136339137Y-81917735D01*
X136305348Y-81984847D01*
X136304599Y-81986127D01*
X136268415Y-82039795D01*
X136268397Y-82039822D01*
X136268369Y-82039864D01*
X136268334Y-82039918D01*
X136268320Y-82039940D01*
X136238488Y-82086508D01*
X136238486Y-82086513D01*
X136238130Y-82087069D01*
X136237907Y-82087691D01*
X136237907Y-82087693D01*
X136217828Y-82143920D01*
X136217827Y-82143924D01*
X136217579Y-82144619D01*
X136217513Y-82145358D01*
X136217513Y-82145360D01*
X136210947Y-82219334D01*
X136207192Y-82226931D01*
X136199293Y-82230000D01*
X136120707Y-82230000D01*
X136112808Y-82226931D01*
X136109053Y-82219335D01*
X136109053Y-82219334D01*
X136102420Y-82144619D01*
X136081868Y-82087069D01*
X136051630Y-82039864D01*
X136015394Y-81986120D01*
X136014654Y-81984855D01*
X135980862Y-81917735D01*
X135979650Y-81911536D01*
X135981836Y-81905611D01*
X135986783Y-81901686D01*
X136155475Y-81830898D01*
X136160000Y-81829988D01*
X136164524Y-81830898D01*
G37*
%TD.AperFunction*%
%TA.AperFunction,Conductor*%
G36*
X120833024Y-104553103D02*
G01*
X120838124Y-104557400D01*
X120840048Y-104563787D01*
X120840689Y-104745802D01*
X120839795Y-104750328D01*
X120837221Y-104754157D01*
X120706868Y-104883214D01*
X120698596Y-104886600D01*
X120690348Y-104883158D01*
X120639330Y-104831951D01*
X120639293Y-104831914D01*
X120597469Y-104789561D01*
X120597449Y-104789541D01*
X120561403Y-104752864D01*
X120519542Y-104710475D01*
X120468537Y-104659278D01*
X120465126Y-104651009D01*
X120468552Y-104642748D01*
X120524271Y-104587029D01*
X120531350Y-104583664D01*
X120538966Y-104585523D01*
X120590389Y-104619295D01*
X120642483Y-104617051D01*
X120695700Y-104592315D01*
X120695783Y-104592278D01*
X120733684Y-104575080D01*
X120757406Y-104564316D01*
X120760289Y-104563435D01*
X120826405Y-104552291D01*
X120833024Y-104553103D01*
G37*
%TD.AperFunction*%
%TA.AperFunction,Conductor*%
G36*
X124274388Y-98481836D02*
G01*
X124278314Y-98486785D01*
X124349100Y-98655473D01*
X124350011Y-98660000D01*
X124349100Y-98664527D01*
X124278314Y-98833214D01*
X124274388Y-98838163D01*
X124268463Y-98840349D01*
X124262264Y-98839137D01*
X124195150Y-98805348D01*
X124193870Y-98804599D01*
X124140203Y-98768415D01*
X124140135Y-98768369D01*
X124125626Y-98759075D01*
X124093489Y-98738488D01*
X124093484Y-98738485D01*
X124092929Y-98738130D01*
X124068486Y-98729401D01*
X124036078Y-98717828D01*
X124036076Y-98717827D01*
X124035380Y-98717579D01*
X124034639Y-98717513D01*
X124034638Y-98717513D01*
X124005103Y-98714891D01*
X123960665Y-98710946D01*
X123953069Y-98707192D01*
X123950000Y-98699293D01*
X123950000Y-98620707D01*
X123953069Y-98612808D01*
X123960664Y-98609053D01*
X124035380Y-98602420D01*
X124092929Y-98581868D01*
X124140135Y-98551630D01*
X124193884Y-98515390D01*
X124195135Y-98514658D01*
X124262264Y-98480861D01*
X124268463Y-98479650D01*
X124274388Y-98481836D01*
G37*
%TD.AperFunction*%
%TA.AperFunction,Conductor*%
G36*
X136754388Y-98271836D02*
G01*
X136758314Y-98276785D01*
X136829100Y-98445473D01*
X136830011Y-98450000D01*
X136829100Y-98454527D01*
X136758314Y-98623214D01*
X136754388Y-98628163D01*
X136748463Y-98630349D01*
X136742264Y-98629137D01*
X136675150Y-98595348D01*
X136673870Y-98594599D01*
X136620203Y-98558415D01*
X136620135Y-98558369D01*
X136605626Y-98549075D01*
X136573489Y-98528488D01*
X136573484Y-98528485D01*
X136572929Y-98528130D01*
X136548486Y-98519401D01*
X136516078Y-98507828D01*
X136516076Y-98507827D01*
X136515380Y-98507579D01*
X136514639Y-98507513D01*
X136514638Y-98507513D01*
X136485103Y-98504891D01*
X136440665Y-98500946D01*
X136433069Y-98497192D01*
X136430000Y-98489293D01*
X136430000Y-98410707D01*
X136433069Y-98402808D01*
X136440664Y-98399053D01*
X136515380Y-98392420D01*
X136572929Y-98371868D01*
X136620135Y-98341630D01*
X136673884Y-98305390D01*
X136675135Y-98304658D01*
X136742264Y-98270861D01*
X136748463Y-98269650D01*
X136754388Y-98271836D01*
G37*
%TD.AperFunction*%
%TA.AperFunction,Conductor*%
G36*
X125737735Y-101220862D02*
G01*
X125804855Y-101254654D01*
X125806120Y-101255394D01*
X125859864Y-101291630D01*
X125907069Y-101321868D01*
X125964619Y-101342420D01*
X126039335Y-101349053D01*
X126046931Y-101352808D01*
X126050000Y-101360707D01*
X126050000Y-101439293D01*
X126046931Y-101447192D01*
X126039334Y-101450946D01*
X126003253Y-101454149D01*
X125965360Y-101457513D01*
X125965358Y-101457513D01*
X125964619Y-101457579D01*
X125963924Y-101457827D01*
X125963920Y-101457828D01*
X125907693Y-101477907D01*
X125907069Y-101478130D01*
X125906517Y-101478483D01*
X125906508Y-101478488D01*
X125859940Y-101508320D01*
X125859864Y-101508369D01*
X125859822Y-101508397D01*
X125859795Y-101508415D01*
X125806127Y-101544599D01*
X125804847Y-101545348D01*
X125737735Y-101579137D01*
X125731537Y-101580349D01*
X125725611Y-101578163D01*
X125721685Y-101573214D01*
X125709851Y-101545012D01*
X125650898Y-101404524D01*
X125649988Y-101400000D01*
X125650898Y-101395475D01*
X125721686Y-101226783D01*
X125725611Y-101221836D01*
X125731536Y-101219650D01*
X125737735Y-101220862D01*
G37*
%TD.AperFunction*%
%TA.AperFunction,Conductor*%
G36*
X117404524Y-108650898D02*
G01*
X117573214Y-108721685D01*
X117578163Y-108725611D01*
X117580349Y-108731537D01*
X117579137Y-108737735D01*
X117545348Y-108804847D01*
X117544599Y-108806127D01*
X117508415Y-108859795D01*
X117508397Y-108859822D01*
X117508369Y-108859864D01*
X117508334Y-108859918D01*
X117508320Y-108859940D01*
X117478488Y-108906508D01*
X117478486Y-108906513D01*
X117478130Y-108907069D01*
X117477907Y-108907691D01*
X117477907Y-108907693D01*
X117457828Y-108963920D01*
X117457827Y-108963924D01*
X117457579Y-108964619D01*
X117457513Y-108965358D01*
X117457513Y-108965360D01*
X117450947Y-109039334D01*
X117447192Y-109046931D01*
X117439293Y-109050000D01*
X117360707Y-109050000D01*
X117352808Y-109046931D01*
X117349053Y-109039335D01*
X117349053Y-109039334D01*
X117342420Y-108964619D01*
X117321868Y-108907069D01*
X117291630Y-108859864D01*
X117255394Y-108806120D01*
X117254654Y-108804855D01*
X117220862Y-108737735D01*
X117219650Y-108731536D01*
X117221836Y-108725611D01*
X117226783Y-108721686D01*
X117395475Y-108650898D01*
X117400000Y-108649988D01*
X117404524Y-108650898D01*
G37*
%TD.AperFunction*%
%TA.AperFunction,Conductor*%
G36*
X145034343Y-100181582D02*
G01*
X145038180Y-100186466D01*
X145057827Y-100233286D01*
X145109100Y-100355473D01*
X145110011Y-100360000D01*
X145109100Y-100364527D01*
X145038181Y-100533531D01*
X145034343Y-100538416D01*
X145028545Y-100540647D01*
X145022423Y-100539596D01*
X144955978Y-100508425D01*
X144955293Y-100508076D01*
X144900789Y-100477989D01*
X144900626Y-100477899D01*
X144900483Y-100477831D01*
X144900464Y-100477821D01*
X144852716Y-100455065D01*
X144852717Y-100455065D01*
X144852196Y-100454817D01*
X144851638Y-100454676D01*
X144851635Y-100454675D01*
X144794600Y-100440274D01*
X144794594Y-100440273D01*
X144794075Y-100440142D01*
X144793540Y-100440109D01*
X144793532Y-100440108D01*
X144729117Y-100436169D01*
X144720985Y-100435671D01*
X144713178Y-100432011D01*
X144710000Y-100423994D01*
X144710000Y-100296006D01*
X144713178Y-100287989D01*
X144720986Y-100284328D01*
X144730059Y-100283772D01*
X144794075Y-100279857D01*
X144852196Y-100265182D01*
X144900626Y-100242100D01*
X144955301Y-100211917D01*
X144955969Y-100211577D01*
X145022426Y-100180401D01*
X145028545Y-100179351D01*
X145034343Y-100181582D01*
G37*
%TD.AperFunction*%
%TA.AperFunction,Conductor*%
G36*
X140669645Y-96226402D02*
G01*
X140720747Y-96275007D01*
X140765205Y-96312553D01*
X140765262Y-96312598D01*
X140804557Y-96343687D01*
X140804847Y-96343924D01*
X140848902Y-96381131D01*
X140849416Y-96381592D01*
X140899800Y-96429513D01*
X140902985Y-96434774D01*
X140903062Y-96440924D01*
X140900009Y-96446263D01*
X140844365Y-96501907D01*
X140837414Y-96505259D01*
X140829887Y-96503553D01*
X140778217Y-96471230D01*
X140778215Y-96471229D01*
X140776477Y-96470142D01*
X140774444Y-96470420D01*
X140724242Y-96477297D01*
X140724238Y-96477298D01*
X140723109Y-96477453D01*
X140668773Y-96508996D01*
X140668452Y-96509176D01*
X140605490Y-96542881D01*
X140602196Y-96544052D01*
X140533878Y-96557307D01*
X140527151Y-96556622D01*
X140521927Y-96552329D01*
X140519950Y-96545862D01*
X140519944Y-96544052D01*
X140519310Y-96364195D01*
X140520204Y-96359671D01*
X140522776Y-96355844D01*
X140653353Y-96226566D01*
X140661467Y-96223182D01*
X140669645Y-96226402D01*
G37*
%TD.AperFunction*%
%TA.AperFunction,Conductor*%
G36*
X126655342Y-102149844D02*
G01*
X126658931Y-102154906D01*
X126683444Y-102222406D01*
X126683671Y-102223097D01*
X126700956Y-102281839D01*
X126718889Y-102331290D01*
X126749325Y-102381660D01*
X126749672Y-102382051D01*
X126749678Y-102382059D01*
X126796901Y-102435265D01*
X126799845Y-102443379D01*
X126796423Y-102451304D01*
X126740840Y-102506887D01*
X126733272Y-102510293D01*
X126725349Y-102507822D01*
X126666261Y-102461506D01*
X126666258Y-102461504D01*
X126665487Y-102460900D01*
X126664556Y-102460581D01*
X126664555Y-102460581D01*
X126607487Y-102441062D01*
X126607485Y-102441061D01*
X126606776Y-102440819D01*
X126606032Y-102440763D01*
X126606029Y-102440763D01*
X126548148Y-102436459D01*
X126547958Y-102436443D01*
X126481211Y-102430383D01*
X126478964Y-102429954D01*
X126405890Y-102408435D01*
X126400452Y-102404987D01*
X126397662Y-102399185D01*
X126398364Y-102392786D01*
X126467435Y-102223835D01*
X126469992Y-102219992D01*
X126473835Y-102217435D01*
X126643507Y-102148069D01*
X126649668Y-102147329D01*
X126655342Y-102149844D01*
G37*
%TD.AperFunction*%
%TA.AperFunction,Conductor*%
G36*
X125226802Y-70139715D02*
G01*
X125996216Y-70457438D01*
X126000021Y-70459978D01*
X126002562Y-70463785D01*
X126320283Y-71233196D01*
X126321002Y-71239635D01*
X126318184Y-71245468D01*
X126312695Y-71248908D01*
X125947669Y-71353612D01*
X125945249Y-71354038D01*
X125647857Y-71374563D01*
X125647571Y-71374579D01*
X125389929Y-71386045D01*
X125389928Y-71386045D01*
X125389166Y-71386079D01*
X125388445Y-71386305D01*
X125388439Y-71386307D01*
X125131950Y-71467082D01*
X125131947Y-71467083D01*
X125130964Y-71467393D01*
X125130148Y-71468023D01*
X125130145Y-71468025D01*
X124841420Y-71691141D01*
X124833521Y-71693559D01*
X124825993Y-71690156D01*
X124769843Y-71634006D01*
X124766440Y-71626478D01*
X124768857Y-71618580D01*
X124992606Y-71329035D01*
X125073919Y-71070832D01*
X125085419Y-70812405D01*
X125085434Y-70812140D01*
X125105960Y-70514749D01*
X125106386Y-70512329D01*
X125121599Y-70459293D01*
X125211092Y-70147300D01*
X125214531Y-70141815D01*
X125220364Y-70138997D01*
X125226802Y-70139715D01*
G37*
%TD.AperFunction*%
%TA.AperFunction,Conductor*%
G36*
X136697735Y-92860862D02*
G01*
X136764855Y-92894654D01*
X136766120Y-92895394D01*
X136819864Y-92931630D01*
X136867069Y-92961868D01*
X136924619Y-92982420D01*
X136999335Y-92989053D01*
X137006931Y-92992808D01*
X137010000Y-93000707D01*
X137010000Y-93079293D01*
X137006931Y-93087192D01*
X136999334Y-93090946D01*
X136963253Y-93094149D01*
X136925360Y-93097513D01*
X136925358Y-93097513D01*
X136924619Y-93097579D01*
X136923924Y-93097827D01*
X136923920Y-93097828D01*
X136867693Y-93117907D01*
X136867069Y-93118130D01*
X136866517Y-93118483D01*
X136866508Y-93118488D01*
X136819940Y-93148320D01*
X136819864Y-93148369D01*
X136819822Y-93148397D01*
X136819795Y-93148415D01*
X136766127Y-93184599D01*
X136764847Y-93185348D01*
X136697735Y-93219137D01*
X136691536Y-93220349D01*
X136685611Y-93218163D01*
X136681685Y-93213214D01*
X136669677Y-93184599D01*
X136610898Y-93044524D01*
X136609988Y-93039999D01*
X136610898Y-93035476D01*
X136681686Y-92866783D01*
X136685611Y-92861836D01*
X136691536Y-92859650D01*
X136697735Y-92860862D01*
G37*
%TD.AperFunction*%
%TA.AperFunction,Conductor*%
G36*
X135444524Y-81330898D02*
G01*
X135613214Y-81401685D01*
X135618163Y-81405611D01*
X135620349Y-81411536D01*
X135619137Y-81417735D01*
X135585348Y-81484847D01*
X135584599Y-81486127D01*
X135548415Y-81539795D01*
X135548397Y-81539822D01*
X135548369Y-81539864D01*
X135548334Y-81539918D01*
X135548320Y-81539940D01*
X135518488Y-81586508D01*
X135518486Y-81586513D01*
X135518130Y-81587069D01*
X135517907Y-81587691D01*
X135517907Y-81587693D01*
X135497828Y-81643920D01*
X135497827Y-81643924D01*
X135497579Y-81644619D01*
X135497513Y-81645358D01*
X135497513Y-81645360D01*
X135490947Y-81719334D01*
X135487192Y-81726931D01*
X135479293Y-81730000D01*
X135400707Y-81730000D01*
X135392808Y-81726931D01*
X135389053Y-81719335D01*
X135389053Y-81719334D01*
X135382420Y-81644619D01*
X135361868Y-81587069D01*
X135331630Y-81539864D01*
X135295394Y-81486120D01*
X135294654Y-81484855D01*
X135260862Y-81417735D01*
X135259650Y-81411536D01*
X135261836Y-81405611D01*
X135266783Y-81401686D01*
X135435476Y-81330898D01*
X135439999Y-81329988D01*
X135444524Y-81330898D01*
G37*
%TD.AperFunction*%
%TA.AperFunction,Conductor*%
G36*
X124937735Y-102020862D02*
G01*
X125004855Y-102054654D01*
X125006120Y-102055394D01*
X125059864Y-102091630D01*
X125107069Y-102121868D01*
X125164619Y-102142420D01*
X125239335Y-102149053D01*
X125246931Y-102152808D01*
X125250000Y-102160707D01*
X125250000Y-102239293D01*
X125246931Y-102247192D01*
X125239334Y-102250946D01*
X125203253Y-102254149D01*
X125165360Y-102257513D01*
X125165358Y-102257513D01*
X125164619Y-102257579D01*
X125163924Y-102257827D01*
X125163920Y-102257828D01*
X125107693Y-102277907D01*
X125107069Y-102278130D01*
X125106517Y-102278483D01*
X125106508Y-102278488D01*
X125059940Y-102308320D01*
X125059864Y-102308369D01*
X125059822Y-102308397D01*
X125059795Y-102308415D01*
X125006127Y-102344599D01*
X125004847Y-102345348D01*
X124937735Y-102379137D01*
X124931537Y-102380349D01*
X124925611Y-102378163D01*
X124921685Y-102373214D01*
X124909851Y-102345012D01*
X124850898Y-102204524D01*
X124849988Y-102200000D01*
X124850898Y-102195475D01*
X124921686Y-102026783D01*
X124925611Y-102021836D01*
X124931536Y-102019650D01*
X124937735Y-102020862D01*
G37*
%TD.AperFunction*%
%TA.AperFunction,Conductor*%
G36*
X126608138Y-95832149D02*
G01*
X126617432Y-95837698D01*
X126664421Y-95865749D01*
X126666142Y-95867001D01*
X126718651Y-95913095D01*
X126718761Y-95913182D01*
X126718769Y-95913189D01*
X126737895Y-95928370D01*
X126764318Y-95949344D01*
X126810196Y-95958784D01*
X126856256Y-95930064D01*
X126863772Y-95928370D01*
X126870715Y-95931721D01*
X126926316Y-95987322D01*
X126929375Y-95992685D01*
X126929279Y-95998858D01*
X126926054Y-96004122D01*
X126864276Y-96062159D01*
X126863259Y-96063012D01*
X126808788Y-96103628D01*
X126807188Y-96104630D01*
X126754497Y-96132007D01*
X126753436Y-96132493D01*
X126688045Y-96158561D01*
X126688017Y-96158572D01*
X126607195Y-96190557D01*
X126598352Y-96190462D01*
X126592101Y-96184205D01*
X126569469Y-96130275D01*
X126521184Y-96015215D01*
X126520274Y-96010705D01*
X126521172Y-96006194D01*
X126591343Y-95837694D01*
X126595490Y-95832571D01*
X126601753Y-95830502D01*
X126608138Y-95832149D01*
G37*
%TD.AperFunction*%
%TA.AperFunction,Conductor*%
G36*
X138974524Y-91820898D02*
G01*
X139143214Y-91891685D01*
X139148163Y-91895611D01*
X139150349Y-91901537D01*
X139149137Y-91907735D01*
X139115348Y-91974847D01*
X139114599Y-91976127D01*
X139078415Y-92029795D01*
X139078397Y-92029822D01*
X139078369Y-92029864D01*
X139078334Y-92029918D01*
X139078320Y-92029940D01*
X139048488Y-92076508D01*
X139048486Y-92076513D01*
X139048130Y-92077069D01*
X139047907Y-92077691D01*
X139047907Y-92077693D01*
X139027828Y-92133920D01*
X139027827Y-92133924D01*
X139027579Y-92134619D01*
X139027513Y-92135358D01*
X139027513Y-92135360D01*
X139020947Y-92209334D01*
X139017192Y-92216931D01*
X139009293Y-92220000D01*
X138930707Y-92220000D01*
X138922808Y-92216931D01*
X138919053Y-92209335D01*
X138919053Y-92209334D01*
X138912420Y-92134619D01*
X138891868Y-92077069D01*
X138861630Y-92029864D01*
X138825394Y-91976120D01*
X138824654Y-91974855D01*
X138790862Y-91907735D01*
X138789650Y-91901536D01*
X138791836Y-91895611D01*
X138796783Y-91891686D01*
X138965475Y-91820898D01*
X138970000Y-91819988D01*
X138974524Y-91820898D01*
G37*
%TD.AperFunction*%
%TA.AperFunction,Conductor*%
G36*
X121646827Y-98218206D02*
G01*
X121780899Y-98273018D01*
X121816162Y-98287435D01*
X121820007Y-98289992D01*
X121822564Y-98293837D01*
X121891792Y-98463169D01*
X121892515Y-98469444D01*
X121889871Y-98475181D01*
X121884631Y-98478707D01*
X121813280Y-98502270D01*
X121811846Y-98502645D01*
X121748248Y-98515020D01*
X121748211Y-98515028D01*
X121694118Y-98526879D01*
X121694115Y-98526879D01*
X121693471Y-98527021D01*
X121692875Y-98527303D01*
X121692873Y-98527304D01*
X121638918Y-98552863D01*
X121638910Y-98552867D01*
X121638245Y-98553183D01*
X121637676Y-98553658D01*
X121637670Y-98553663D01*
X121580723Y-98601324D01*
X121572696Y-98604041D01*
X121564941Y-98600625D01*
X121509373Y-98545057D01*
X121505957Y-98537302D01*
X121508672Y-98529278D01*
X121556816Y-98471753D01*
X121582977Y-98416528D01*
X121594974Y-98361766D01*
X121607354Y-98298141D01*
X121607723Y-98296730D01*
X121631293Y-98225364D01*
X121634817Y-98220128D01*
X121640554Y-98217484D01*
X121646827Y-98218206D01*
G37*
%TD.AperFunction*%
%TA.AperFunction,Conductor*%
G36*
X127127192Y-110363069D02*
G01*
X127130946Y-110370665D01*
X127137579Y-110445380D01*
X127158130Y-110502929D01*
X127158485Y-110503484D01*
X127158488Y-110503489D01*
X127179075Y-110535626D01*
X127188369Y-110550135D01*
X127188415Y-110550203D01*
X127224599Y-110603870D01*
X127225348Y-110605150D01*
X127259137Y-110672264D01*
X127260349Y-110678463D01*
X127258163Y-110684388D01*
X127253214Y-110688314D01*
X127084527Y-110759100D01*
X127080000Y-110760011D01*
X127075473Y-110759100D01*
X126906785Y-110688314D01*
X126901836Y-110684388D01*
X126899650Y-110678463D01*
X126900862Y-110672264D01*
X126934658Y-110605135D01*
X126935390Y-110603884D01*
X126971630Y-110550135D01*
X127001868Y-110502929D01*
X127022420Y-110445380D01*
X127029053Y-110370664D01*
X127032808Y-110363069D01*
X127040707Y-110360000D01*
X127119293Y-110360000D01*
X127127192Y-110363069D01*
G37*
%TD.AperFunction*%
%TA.AperFunction,Conductor*%
G36*
X117936827Y-108608206D02*
G01*
X118070899Y-108663018D01*
X118106162Y-108677435D01*
X118110007Y-108679992D01*
X118112564Y-108683837D01*
X118181792Y-108853169D01*
X118182515Y-108859444D01*
X118179871Y-108865181D01*
X118174631Y-108868707D01*
X118103280Y-108892270D01*
X118101846Y-108892645D01*
X118038248Y-108905020D01*
X118038211Y-108905028D01*
X117984118Y-108916879D01*
X117984115Y-108916879D01*
X117983471Y-108917021D01*
X117982875Y-108917303D01*
X117982873Y-108917304D01*
X117928918Y-108942863D01*
X117928910Y-108942867D01*
X117928245Y-108943183D01*
X117927676Y-108943658D01*
X117927670Y-108943663D01*
X117870723Y-108991324D01*
X117862696Y-108994041D01*
X117854941Y-108990625D01*
X117799373Y-108935057D01*
X117795957Y-108927302D01*
X117798672Y-108919278D01*
X117846816Y-108861753D01*
X117872977Y-108806528D01*
X117884974Y-108751766D01*
X117897354Y-108688141D01*
X117897723Y-108686730D01*
X117921293Y-108615364D01*
X117924817Y-108610128D01*
X117930554Y-108607484D01*
X117936827Y-108608206D01*
G37*
%TD.AperFunction*%
%TA.AperFunction,Conductor*%
G36*
X131027192Y-108843069D02*
G01*
X131030946Y-108850665D01*
X131037579Y-108925380D01*
X131058130Y-108982929D01*
X131058485Y-108983484D01*
X131058488Y-108983489D01*
X131079075Y-109015626D01*
X131088369Y-109030135D01*
X131088415Y-109030203D01*
X131124599Y-109083870D01*
X131125348Y-109085150D01*
X131159137Y-109152264D01*
X131160349Y-109158463D01*
X131158163Y-109164388D01*
X131153214Y-109168314D01*
X130984527Y-109239100D01*
X130980000Y-109240011D01*
X130975473Y-109239100D01*
X130806785Y-109168314D01*
X130801836Y-109164388D01*
X130799650Y-109158463D01*
X130800862Y-109152264D01*
X130834658Y-109085135D01*
X130835390Y-109083884D01*
X130871630Y-109030135D01*
X130901868Y-108982929D01*
X130922420Y-108925380D01*
X130929053Y-108850664D01*
X130932808Y-108843069D01*
X130940707Y-108840000D01*
X131019293Y-108840000D01*
X131027192Y-108843069D01*
G37*
%TD.AperFunction*%
%TA.AperFunction,Conductor*%
G36*
X127604388Y-98391836D02*
G01*
X127608314Y-98396785D01*
X127679100Y-98565473D01*
X127680011Y-98570000D01*
X127679100Y-98574527D01*
X127608314Y-98743214D01*
X127604388Y-98748163D01*
X127598463Y-98750349D01*
X127592264Y-98749137D01*
X127525150Y-98715348D01*
X127523870Y-98714599D01*
X127470203Y-98678415D01*
X127470135Y-98678369D01*
X127455626Y-98669075D01*
X127423489Y-98648488D01*
X127423484Y-98648485D01*
X127422929Y-98648130D01*
X127398486Y-98639401D01*
X127366078Y-98627828D01*
X127366076Y-98627827D01*
X127365380Y-98627579D01*
X127364639Y-98627513D01*
X127364638Y-98627513D01*
X127335103Y-98624891D01*
X127290665Y-98620946D01*
X127283069Y-98617192D01*
X127280000Y-98609293D01*
X127280000Y-98530707D01*
X127283069Y-98522808D01*
X127290664Y-98519053D01*
X127365380Y-98512420D01*
X127422929Y-98491868D01*
X127470135Y-98461630D01*
X127523884Y-98425390D01*
X127525135Y-98424658D01*
X127592264Y-98390861D01*
X127598463Y-98389650D01*
X127604388Y-98391836D01*
G37*
%TD.AperFunction*%
%TA.AperFunction,Conductor*%
G36*
X129857457Y-93844829D02*
G01*
X129912966Y-93900339D01*
X129916290Y-93907060D01*
X129914851Y-93914418D01*
X129899622Y-93941057D01*
X129899621Y-93941059D01*
X129898908Y-93942307D01*
X129912657Y-93970059D01*
X129913873Y-93970904D01*
X129913874Y-93970905D01*
X129941480Y-93990086D01*
X129948809Y-93995179D01*
X129976192Y-94011407D01*
X129994996Y-94022551D01*
X129996219Y-94023384D01*
X130011742Y-94035470D01*
X130030970Y-94050441D01*
X130034794Y-94055722D01*
X130035198Y-94062231D01*
X130032054Y-94067945D01*
X129904848Y-94195151D01*
X129898831Y-94198358D01*
X129892049Y-94197667D01*
X129847366Y-94178916D01*
X129725380Y-94127724D01*
X129719216Y-94121687D01*
X129718865Y-94113067D01*
X129741537Y-94048341D01*
X129741622Y-94048099D01*
X129756024Y-93991537D01*
X129756169Y-93991022D01*
X129762562Y-93970059D01*
X129770340Y-93944552D01*
X129771281Y-93942331D01*
X129796905Y-93895901D01*
X129798303Y-93893897D01*
X129840349Y-93845432D01*
X129845626Y-93841956D01*
X129851945Y-93841732D01*
X129857457Y-93844829D01*
G37*
%TD.AperFunction*%
%TA.AperFunction,Conductor*%
G36*
X134460723Y-96708675D02*
G01*
X134517670Y-96756335D01*
X134518245Y-96756816D01*
X134573471Y-96782977D01*
X134628232Y-96794974D01*
X134691853Y-96807354D01*
X134693272Y-96807725D01*
X134764633Y-96831292D01*
X134769871Y-96834817D01*
X134772515Y-96840554D01*
X134771792Y-96846829D01*
X134702564Y-97016162D01*
X134700007Y-97020007D01*
X134696162Y-97022564D01*
X134526829Y-97091792D01*
X134520554Y-97092515D01*
X134514817Y-97089871D01*
X134511292Y-97084633D01*
X134487725Y-97013272D01*
X134487354Y-97011853D01*
X134474974Y-96948232D01*
X134462977Y-96893471D01*
X134436816Y-96838245D01*
X134400604Y-96794977D01*
X134388675Y-96780723D01*
X134385958Y-96772696D01*
X134389373Y-96764942D01*
X134444942Y-96709373D01*
X134452696Y-96705958D01*
X134460723Y-96708675D01*
G37*
%TD.AperFunction*%
%TA.AperFunction,Conductor*%
G36*
X129895056Y-105099373D02*
G01*
X129950625Y-105154941D01*
X129954041Y-105162696D01*
X129951324Y-105170723D01*
X129903663Y-105227670D01*
X129903658Y-105227676D01*
X129903183Y-105228245D01*
X129902867Y-105228910D01*
X129902863Y-105228918D01*
X129877304Y-105282873D01*
X129877021Y-105283471D01*
X129876879Y-105284115D01*
X129876879Y-105284118D01*
X129865024Y-105338232D01*
X129852645Y-105401846D01*
X129852270Y-105403280D01*
X129828707Y-105474631D01*
X129825181Y-105479871D01*
X129819444Y-105482515D01*
X129813169Y-105481792D01*
X129771740Y-105464854D01*
X129643837Y-105412564D01*
X129639992Y-105410007D01*
X129637435Y-105406162D01*
X129568207Y-105236829D01*
X129567484Y-105230554D01*
X129570128Y-105224817D01*
X129575364Y-105221293D01*
X129646730Y-105197723D01*
X129648141Y-105197354D01*
X129711766Y-105184974D01*
X129766527Y-105172977D01*
X129821753Y-105146815D01*
X129879277Y-105098672D01*
X129887301Y-105095957D01*
X129895056Y-105099373D01*
G37*
%TD.AperFunction*%
%TA.AperFunction,Conductor*%
G36*
X125636827Y-110958208D02*
G01*
X125770899Y-111013020D01*
X125806162Y-111027437D01*
X125810007Y-111029994D01*
X125812564Y-111033839D01*
X125881792Y-111203171D01*
X125882515Y-111209446D01*
X125879871Y-111215183D01*
X125874631Y-111218709D01*
X125803280Y-111242272D01*
X125801846Y-111242647D01*
X125738248Y-111255022D01*
X125738211Y-111255030D01*
X125684118Y-111266881D01*
X125684115Y-111266881D01*
X125683471Y-111267023D01*
X125682875Y-111267305D01*
X125682873Y-111267306D01*
X125628918Y-111292865D01*
X125628910Y-111292869D01*
X125628245Y-111293185D01*
X125627676Y-111293660D01*
X125627670Y-111293665D01*
X125570723Y-111341326D01*
X125562696Y-111344043D01*
X125554941Y-111340627D01*
X125499373Y-111285059D01*
X125495957Y-111277304D01*
X125498672Y-111269280D01*
X125546816Y-111211755D01*
X125572977Y-111156530D01*
X125584974Y-111101768D01*
X125597354Y-111038143D01*
X125597723Y-111036732D01*
X125621293Y-110965366D01*
X125624817Y-110960130D01*
X125630554Y-110957486D01*
X125636827Y-110958208D01*
G37*
%TD.AperFunction*%
%TA.AperFunction,Conductor*%
G36*
X125932687Y-100330927D02*
G01*
X125988253Y-100386493D01*
X125991678Y-100394556D01*
X125988545Y-100402736D01*
X125941546Y-100453241D01*
X125941533Y-100453255D01*
X125941288Y-100453520D01*
X125941076Y-100453814D01*
X125941072Y-100453819D01*
X125907953Y-100499768D01*
X125907946Y-100499778D01*
X125907671Y-100500161D01*
X125907459Y-100500591D01*
X125907456Y-100500597D01*
X125885499Y-100545245D01*
X125885495Y-100545254D01*
X125885381Y-100545486D01*
X125885288Y-100545730D01*
X125885286Y-100545735D01*
X125864451Y-100600490D01*
X125864415Y-100600582D01*
X125839097Y-100665460D01*
X125835462Y-100670379D01*
X125829840Y-100672791D01*
X125823770Y-100672037D01*
X125653837Y-100602564D01*
X125649992Y-100600007D01*
X125647435Y-100596162D01*
X125626619Y-100545245D01*
X125578481Y-100427500D01*
X125577795Y-100421011D01*
X125580692Y-100415162D01*
X125586268Y-100411778D01*
X125660868Y-100391703D01*
X125663686Y-100391304D01*
X125732722Y-100390004D01*
X125733145Y-100390004D01*
X125794434Y-100391469D01*
X125855657Y-100375978D01*
X125917413Y-100329827D01*
X125925253Y-100327530D01*
X125932687Y-100330927D01*
G37*
%TD.AperFunction*%
%TA.AperFunction,Conductor*%
G36*
X129084388Y-110901836D02*
G01*
X129088314Y-110906785D01*
X129159100Y-111075473D01*
X129160011Y-111080000D01*
X129159100Y-111084527D01*
X129088314Y-111253214D01*
X129084388Y-111258163D01*
X129078463Y-111260349D01*
X129072264Y-111259137D01*
X129005150Y-111225348D01*
X129003870Y-111224599D01*
X128950203Y-111188415D01*
X128950135Y-111188369D01*
X128935626Y-111179075D01*
X128903489Y-111158488D01*
X128903484Y-111158485D01*
X128902929Y-111158130D01*
X128878486Y-111149401D01*
X128846078Y-111137828D01*
X128846076Y-111137827D01*
X128845380Y-111137579D01*
X128844639Y-111137513D01*
X128844638Y-111137513D01*
X128815103Y-111134891D01*
X128770665Y-111130946D01*
X128763069Y-111127192D01*
X128760000Y-111119293D01*
X128760000Y-111040707D01*
X128763069Y-111032808D01*
X128770664Y-111029053D01*
X128845380Y-111022420D01*
X128902929Y-111001868D01*
X128950135Y-110971630D01*
X129003884Y-110935390D01*
X129005135Y-110934658D01*
X129072264Y-110900861D01*
X129078463Y-110899650D01*
X129084388Y-110901836D01*
G37*
%TD.AperFunction*%
%TA.AperFunction,Conductor*%
G36*
X138697542Y-86058537D02*
G01*
X138716468Y-86066335D01*
X138866478Y-86128137D01*
X138870305Y-86130693D01*
X138872851Y-86134528D01*
X138942134Y-86304007D01*
X138942105Y-86312931D01*
X138935792Y-86319239D01*
X138855574Y-86352561D01*
X138855172Y-86352719D01*
X138789602Y-86377155D01*
X138788263Y-86377565D01*
X138730349Y-86391555D01*
X138728705Y-86391830D01*
X138659938Y-86398344D01*
X138659027Y-86398394D01*
X138574175Y-86399786D01*
X138573018Y-86399804D01*
X138567088Y-86398303D01*
X138562727Y-86394012D01*
X138561127Y-86388107D01*
X138561127Y-86309403D01*
X138563707Y-86302074D01*
X138570310Y-86297977D01*
X138621956Y-86286600D01*
X138649216Y-86249938D01*
X138658471Y-86195323D01*
X138665191Y-86128993D01*
X138665528Y-86127155D01*
X138681784Y-86066332D01*
X138685172Y-86060738D01*
X138691037Y-86057837D01*
X138697542Y-86058537D01*
G37*
%TD.AperFunction*%
%TA.AperFunction,Conductor*%
G36*
X119007735Y-94930862D02*
G01*
X119074855Y-94964654D01*
X119076120Y-94965394D01*
X119129864Y-95001630D01*
X119177069Y-95031868D01*
X119234619Y-95052420D01*
X119309335Y-95059053D01*
X119316931Y-95062808D01*
X119320000Y-95070707D01*
X119320000Y-95149293D01*
X119316931Y-95157192D01*
X119309334Y-95160946D01*
X119273253Y-95164149D01*
X119235360Y-95167513D01*
X119235358Y-95167513D01*
X119234619Y-95167579D01*
X119233924Y-95167827D01*
X119233920Y-95167828D01*
X119177693Y-95187907D01*
X119177069Y-95188130D01*
X119176517Y-95188483D01*
X119176508Y-95188488D01*
X119129940Y-95218320D01*
X119129864Y-95218369D01*
X119129822Y-95218397D01*
X119129795Y-95218415D01*
X119076127Y-95254599D01*
X119074847Y-95255348D01*
X119007735Y-95289137D01*
X119001537Y-95290349D01*
X118995611Y-95288163D01*
X118991685Y-95283214D01*
X118979851Y-95255012D01*
X118920898Y-95114524D01*
X118919988Y-95110000D01*
X118920898Y-95105475D01*
X118991686Y-94936783D01*
X118995611Y-94931836D01*
X119001536Y-94929650D01*
X119007735Y-94930862D01*
G37*
%TD.AperFunction*%
%TA.AperFunction,Conductor*%
G36*
X116457859Y-110765468D02*
G01*
X116514030Y-110821639D01*
X116517444Y-110829355D01*
X116514779Y-110837361D01*
X116293997Y-111104786D01*
X116293994Y-111104789D01*
X116293490Y-111105401D01*
X116293167Y-111106126D01*
X116293166Y-111106128D01*
X116189787Y-111338313D01*
X116189784Y-111338321D01*
X116189509Y-111338940D01*
X116189384Y-111339603D01*
X116189382Y-111339611D01*
X116145933Y-111570970D01*
X116099229Y-111841866D01*
X116098834Y-111843471D01*
X115989188Y-112183224D01*
X115985667Y-112188515D01*
X115979899Y-112191184D01*
X115973587Y-112190445D01*
X115203785Y-111872562D01*
X115199978Y-111870021D01*
X115197438Y-111866216D01*
X114879905Y-111097262D01*
X114879213Y-111090684D01*
X114882200Y-111084780D01*
X114887911Y-111081441D01*
X115267887Y-110987541D01*
X115271184Y-110987211D01*
X115586450Y-111000689D01*
X115587192Y-111000744D01*
X115864343Y-111030426D01*
X116139782Y-110981331D01*
X116442772Y-110764229D01*
X116450542Y-110762080D01*
X116457859Y-110765468D01*
G37*
%TD.AperFunction*%
%TA.AperFunction,Conductor*%
G36*
X141695057Y-98879373D02*
G01*
X141750625Y-98934941D01*
X141754041Y-98942696D01*
X141751324Y-98950723D01*
X141703663Y-99007670D01*
X141703658Y-99007676D01*
X141703183Y-99008245D01*
X141702867Y-99008910D01*
X141702863Y-99008918D01*
X141677304Y-99062873D01*
X141677021Y-99063471D01*
X141676879Y-99064115D01*
X141676879Y-99064118D01*
X141665024Y-99118232D01*
X141652645Y-99181846D01*
X141652270Y-99183280D01*
X141628707Y-99254631D01*
X141625181Y-99259871D01*
X141619444Y-99262515D01*
X141613169Y-99261792D01*
X141571740Y-99244854D01*
X141443837Y-99192564D01*
X141439992Y-99190007D01*
X141437435Y-99186162D01*
X141368207Y-99016829D01*
X141367484Y-99010554D01*
X141370128Y-99004817D01*
X141375364Y-99001293D01*
X141446730Y-98977723D01*
X141448141Y-98977354D01*
X141511766Y-98964974D01*
X141566528Y-98952977D01*
X141621753Y-98926816D01*
X141679278Y-98878672D01*
X141687302Y-98875957D01*
X141695057Y-98879373D01*
G37*
%TD.AperFunction*%
%TA.AperFunction,Conductor*%
G36*
X128137433Y-114052917D02*
G01*
X128141308Y-114060211D01*
X128187833Y-114423164D01*
X128312913Y-114663238D01*
X128313426Y-114663799D01*
X128313427Y-114663800D01*
X128487511Y-114854098D01*
X128487701Y-114854311D01*
X128683465Y-115079102D01*
X128684876Y-115081115D01*
X128868951Y-115413266D01*
X128870399Y-115419580D01*
X128868267Y-115425697D01*
X128863206Y-115429742D01*
X128094489Y-115749134D01*
X128090000Y-115750029D01*
X128085511Y-115749134D01*
X127316793Y-115429742D01*
X127311732Y-115425697D01*
X127309600Y-115419580D01*
X127311047Y-115413269D01*
X127495124Y-115081111D01*
X127496530Y-115079105D01*
X127692346Y-114854254D01*
X127692438Y-114854151D01*
X127867086Y-114663238D01*
X127992166Y-114423164D01*
X128038690Y-114060212D01*
X128042567Y-114052917D01*
X128050296Y-114050000D01*
X128129704Y-114050000D01*
X128137433Y-114052917D01*
G37*
%TD.AperFunction*%
%TA.AperFunction,Conductor*%
G36*
X132416827Y-94208206D02*
G01*
X132550899Y-94263018D01*
X132586162Y-94277435D01*
X132590007Y-94279992D01*
X132592564Y-94283837D01*
X132661792Y-94453169D01*
X132662515Y-94459444D01*
X132659871Y-94465181D01*
X132654631Y-94468707D01*
X132583280Y-94492270D01*
X132581846Y-94492645D01*
X132518248Y-94505020D01*
X132518211Y-94505028D01*
X132464118Y-94516879D01*
X132464115Y-94516879D01*
X132463471Y-94517021D01*
X132462875Y-94517303D01*
X132462873Y-94517304D01*
X132408918Y-94542863D01*
X132408910Y-94542867D01*
X132408245Y-94543183D01*
X132407676Y-94543658D01*
X132407670Y-94543663D01*
X132350723Y-94591324D01*
X132342696Y-94594041D01*
X132334941Y-94590625D01*
X132279373Y-94535057D01*
X132275957Y-94527302D01*
X132278672Y-94519278D01*
X132326816Y-94461753D01*
X132352977Y-94406528D01*
X132364974Y-94351766D01*
X132377354Y-94288141D01*
X132377723Y-94286730D01*
X132401293Y-94215364D01*
X132404817Y-94210128D01*
X132410554Y-94207484D01*
X132416827Y-94208206D01*
G37*
%TD.AperFunction*%
%TA.AperFunction,Conductor*%
G36*
X110226827Y-84578206D02*
G01*
X110360899Y-84633018D01*
X110396162Y-84647435D01*
X110400007Y-84649992D01*
X110402564Y-84653837D01*
X110471792Y-84823169D01*
X110472515Y-84829444D01*
X110469871Y-84835181D01*
X110464631Y-84838707D01*
X110393280Y-84862270D01*
X110391846Y-84862645D01*
X110328248Y-84875020D01*
X110328211Y-84875028D01*
X110274118Y-84886879D01*
X110274115Y-84886879D01*
X110273471Y-84887021D01*
X110272875Y-84887303D01*
X110272873Y-84887304D01*
X110218918Y-84912863D01*
X110218910Y-84912867D01*
X110218245Y-84913183D01*
X110217676Y-84913658D01*
X110217670Y-84913663D01*
X110160723Y-84961324D01*
X110152696Y-84964041D01*
X110144941Y-84960625D01*
X110089373Y-84905057D01*
X110085957Y-84897302D01*
X110088672Y-84889278D01*
X110136816Y-84831753D01*
X110162977Y-84776528D01*
X110174974Y-84721766D01*
X110187354Y-84658141D01*
X110187723Y-84656730D01*
X110211293Y-84585364D01*
X110214817Y-84580128D01*
X110220554Y-84577484D01*
X110226827Y-84578206D01*
G37*
%TD.AperFunction*%
%TA.AperFunction,Conductor*%
G36*
X124571223Y-110830594D02*
G01*
X124628170Y-110878254D01*
X124628745Y-110878735D01*
X124683971Y-110904896D01*
X124738732Y-110916893D01*
X124802353Y-110929273D01*
X124803772Y-110929644D01*
X124875133Y-110953211D01*
X124880371Y-110956736D01*
X124883015Y-110962473D01*
X124882292Y-110968748D01*
X124813064Y-111138081D01*
X124810507Y-111141926D01*
X124806662Y-111144483D01*
X124637329Y-111213711D01*
X124631054Y-111214434D01*
X124625317Y-111211790D01*
X124621792Y-111206552D01*
X124598225Y-111135191D01*
X124597854Y-111133772D01*
X124585474Y-111070151D01*
X124573477Y-111015390D01*
X124547316Y-110960164D01*
X124511104Y-110916896D01*
X124499175Y-110902642D01*
X124496458Y-110894615D01*
X124499873Y-110886861D01*
X124555442Y-110831292D01*
X124563196Y-110827877D01*
X124571223Y-110830594D01*
G37*
%TD.AperFunction*%
%TA.AperFunction,Conductor*%
G36*
X132785333Y-104069859D02*
G01*
X132788920Y-104074931D01*
X132813864Y-104143962D01*
X132814101Y-104144693D01*
X132831366Y-104204507D01*
X132831416Y-104204680D01*
X132849339Y-104255246D01*
X132849632Y-104255738D01*
X132849635Y-104255743D01*
X132879784Y-104306259D01*
X132880060Y-104306721D01*
X132928582Y-104361566D01*
X132931514Y-104369675D01*
X132928092Y-104377591D01*
X132837591Y-104468092D01*
X132829675Y-104471514D01*
X132821566Y-104468582D01*
X132766721Y-104420060D01*
X132766259Y-104419784D01*
X132715743Y-104389635D01*
X132715738Y-104389632D01*
X132715246Y-104389339D01*
X132714704Y-104389146D01*
X132714700Y-104389145D01*
X132664844Y-104371474D01*
X132664840Y-104371472D01*
X132664680Y-104371416D01*
X132664507Y-104371366D01*
X132604693Y-104354101D01*
X132603962Y-104353864D01*
X132534931Y-104328920D01*
X132529859Y-104325333D01*
X132527337Y-104319656D01*
X132528076Y-104313490D01*
X132597435Y-104143835D01*
X132599992Y-104139992D01*
X132603835Y-104137435D01*
X132773490Y-104068076D01*
X132779656Y-104067337D01*
X132785333Y-104069859D01*
G37*
%TD.AperFunction*%
%TA.AperFunction,Conductor*%
G36*
X123307192Y-102613069D02*
G01*
X123310946Y-102620665D01*
X123317579Y-102695380D01*
X123338130Y-102752929D01*
X123338485Y-102753484D01*
X123338488Y-102753489D01*
X123359075Y-102785626D01*
X123368369Y-102800135D01*
X123368415Y-102800203D01*
X123404599Y-102853870D01*
X123405348Y-102855150D01*
X123439137Y-102922264D01*
X123440349Y-102928463D01*
X123438163Y-102934388D01*
X123433214Y-102938314D01*
X123264527Y-103009100D01*
X123260000Y-103010011D01*
X123255473Y-103009100D01*
X123086785Y-102938314D01*
X123081836Y-102934388D01*
X123079650Y-102928463D01*
X123080862Y-102922264D01*
X123114658Y-102855135D01*
X123115390Y-102853884D01*
X123151630Y-102800135D01*
X123181868Y-102752929D01*
X123202420Y-102695380D01*
X123209053Y-102620664D01*
X123212808Y-102613069D01*
X123220707Y-102610000D01*
X123299293Y-102610000D01*
X123307192Y-102613069D01*
G37*
%TD.AperFunction*%
%TA.AperFunction,Conductor*%
G36*
X126507192Y-109533069D02*
G01*
X126510946Y-109540665D01*
X126517579Y-109615380D01*
X126538130Y-109672929D01*
X126538485Y-109673484D01*
X126538488Y-109673489D01*
X126559075Y-109705626D01*
X126568369Y-109720135D01*
X126568415Y-109720203D01*
X126604599Y-109773870D01*
X126605348Y-109775150D01*
X126639137Y-109842264D01*
X126640349Y-109848463D01*
X126638163Y-109854388D01*
X126633214Y-109858314D01*
X126464527Y-109929100D01*
X126460000Y-109930011D01*
X126455473Y-109929100D01*
X126286785Y-109858314D01*
X126281836Y-109854388D01*
X126279650Y-109848463D01*
X126280862Y-109842264D01*
X126314658Y-109775135D01*
X126315390Y-109773884D01*
X126351630Y-109720135D01*
X126381868Y-109672929D01*
X126402420Y-109615380D01*
X126409053Y-109540664D01*
X126412808Y-109533069D01*
X126420707Y-109530000D01*
X126499293Y-109530000D01*
X126507192Y-109533069D01*
G37*
%TD.AperFunction*%
%TA.AperFunction,Conductor*%
G36*
X128724524Y-92580898D02*
G01*
X128893214Y-92651685D01*
X128898163Y-92655611D01*
X128900349Y-92661537D01*
X128899137Y-92667735D01*
X128865348Y-92734847D01*
X128864599Y-92736127D01*
X128828415Y-92789795D01*
X128828397Y-92789822D01*
X128828369Y-92789864D01*
X128828334Y-92789918D01*
X128828320Y-92789940D01*
X128798488Y-92836508D01*
X128798486Y-92836513D01*
X128798130Y-92837069D01*
X128797907Y-92837691D01*
X128797907Y-92837693D01*
X128777828Y-92893920D01*
X128777827Y-92893924D01*
X128777579Y-92894619D01*
X128777513Y-92895358D01*
X128777513Y-92895360D01*
X128770947Y-92969334D01*
X128767192Y-92976931D01*
X128759293Y-92980000D01*
X128680707Y-92980000D01*
X128672808Y-92976931D01*
X128669053Y-92969335D01*
X128669053Y-92969334D01*
X128662420Y-92894619D01*
X128641868Y-92837069D01*
X128611630Y-92789864D01*
X128575394Y-92736120D01*
X128574654Y-92734855D01*
X128540862Y-92667735D01*
X128539650Y-92661536D01*
X128541836Y-92655611D01*
X128546783Y-92651686D01*
X128715475Y-92580898D01*
X128720000Y-92579988D01*
X128724524Y-92580898D01*
G37*
%TD.AperFunction*%
%TA.AperFunction,Conductor*%
G36*
X120934388Y-94441836D02*
G01*
X120938314Y-94446785D01*
X121009100Y-94615473D01*
X121010011Y-94620000D01*
X121009100Y-94624527D01*
X120938314Y-94793214D01*
X120934388Y-94798163D01*
X120928463Y-94800349D01*
X120922264Y-94799137D01*
X120855150Y-94765348D01*
X120853870Y-94764599D01*
X120800203Y-94728415D01*
X120800135Y-94728369D01*
X120785626Y-94719075D01*
X120753489Y-94698488D01*
X120753484Y-94698485D01*
X120752929Y-94698130D01*
X120728486Y-94689401D01*
X120696078Y-94677828D01*
X120696076Y-94677827D01*
X120695380Y-94677579D01*
X120694639Y-94677513D01*
X120694638Y-94677513D01*
X120665103Y-94674891D01*
X120620665Y-94670946D01*
X120613069Y-94667192D01*
X120610000Y-94659293D01*
X120610000Y-94580707D01*
X120613069Y-94572808D01*
X120620664Y-94569053D01*
X120695380Y-94562420D01*
X120752929Y-94541868D01*
X120800135Y-94511630D01*
X120853884Y-94475390D01*
X120855135Y-94474658D01*
X120922264Y-94440861D01*
X120928463Y-94439650D01*
X120934388Y-94441836D01*
G37*
%TD.AperFunction*%
%TA.AperFunction,Conductor*%
G36*
X125395057Y-97209373D02*
G01*
X125450625Y-97264941D01*
X125454041Y-97272696D01*
X125451324Y-97280723D01*
X125403663Y-97337670D01*
X125403658Y-97337676D01*
X125403183Y-97338245D01*
X125402867Y-97338910D01*
X125402863Y-97338918D01*
X125377304Y-97392873D01*
X125377021Y-97393471D01*
X125376879Y-97394115D01*
X125376879Y-97394118D01*
X125365024Y-97448232D01*
X125352645Y-97511846D01*
X125352270Y-97513280D01*
X125328707Y-97584631D01*
X125325181Y-97589871D01*
X125319444Y-97592515D01*
X125313169Y-97591792D01*
X125271740Y-97574854D01*
X125143837Y-97522564D01*
X125139992Y-97520007D01*
X125137435Y-97516162D01*
X125068207Y-97346829D01*
X125067484Y-97340554D01*
X125070128Y-97334817D01*
X125075364Y-97331293D01*
X125146730Y-97307723D01*
X125148141Y-97307354D01*
X125211766Y-97294974D01*
X125266528Y-97282977D01*
X125321753Y-97256816D01*
X125379278Y-97208672D01*
X125387302Y-97205957D01*
X125395057Y-97209373D01*
G37*
%TD.AperFunction*%
%TA.AperFunction,Conductor*%
G36*
X120147934Y-70140193D02*
G01*
X120916513Y-70458143D01*
X120920315Y-70460683D01*
X120922853Y-70464488D01*
X121240963Y-71234843D01*
X121241028Y-71243614D01*
X121234979Y-71249966D01*
X120879729Y-71410965D01*
X120879695Y-71410981D01*
X120879676Y-71410990D01*
X120879640Y-71411007D01*
X120879617Y-71411019D01*
X120619002Y-71540706D01*
X120618180Y-71541076D01*
X120475955Y-71598645D01*
X120471565Y-71599500D01*
X120337647Y-71599500D01*
X120262353Y-71599500D01*
X120261021Y-71600268D01*
X120261016Y-71600270D01*
X120247099Y-71608305D01*
X120244279Y-71609473D01*
X120228760Y-71613632D01*
X120228759Y-71613632D01*
X120227272Y-71614031D01*
X120226184Y-71615118D01*
X120226182Y-71615120D01*
X120213727Y-71627575D01*
X120162700Y-71678601D01*
X120156779Y-71681789D01*
X120112724Y-71690829D01*
X120110934Y-71691054D01*
X119729317Y-71709410D01*
X119723233Y-71708039D01*
X119718718Y-71703736D01*
X119717055Y-71697724D01*
X119717055Y-71618910D01*
X119719446Y-71611822D01*
X119725643Y-71607631D01*
X120025366Y-71524935D01*
X120025365Y-71524935D01*
X120026711Y-71524564D01*
X120110757Y-71294683D01*
X120081740Y-70959991D01*
X120052320Y-70561682D01*
X120052503Y-70558593D01*
X120071490Y-70460683D01*
X120131976Y-70148774D01*
X120135160Y-70142759D01*
X120141157Y-70139533D01*
X120147934Y-70140193D01*
G37*
%TD.AperFunction*%
%TA.AperFunction,Conductor*%
G36*
X117797421Y-110174914D02*
G01*
X117801291Y-110182225D01*
X117846784Y-110542983D01*
X117846784Y-110542985D01*
X117846912Y-110543994D01*
X117969748Y-110783992D01*
X117970251Y-110784551D01*
X117970252Y-110784553D01*
X118141583Y-110975177D01*
X118141753Y-110975371D01*
X118335003Y-111200159D01*
X118336376Y-111202136D01*
X118518988Y-111533277D01*
X118520424Y-111539586D01*
X118518288Y-111545694D01*
X118513232Y-111549732D01*
X117744489Y-111869134D01*
X117740000Y-111870029D01*
X117735511Y-111869134D01*
X116966824Y-111549755D01*
X116961758Y-111545702D01*
X116959630Y-111539573D01*
X116961092Y-111533256D01*
X117146369Y-111200951D01*
X117147812Y-111198914D01*
X117346119Y-110974782D01*
X117346211Y-110974681D01*
X117523731Y-110784775D01*
X117651181Y-110545388D01*
X117698668Y-110182172D01*
X117702552Y-110174896D01*
X117710270Y-110171989D01*
X117789683Y-110171989D01*
X117797421Y-110174914D01*
G37*
%TD.AperFunction*%
%TA.AperFunction,Conductor*%
G36*
X144847052Y-90674786D02*
G01*
X144882599Y-90703573D01*
X144895096Y-90713694D01*
X144943927Y-90731570D01*
X144993757Y-90731861D01*
X145052649Y-90724685D01*
X145053305Y-90724625D01*
X145117640Y-90720745D01*
X145123769Y-90722058D01*
X145128342Y-90726348D01*
X145130043Y-90732383D01*
X145130689Y-90915802D01*
X145129795Y-90920328D01*
X145127221Y-90924157D01*
X144997523Y-91052565D01*
X144991987Y-91055636D01*
X144985662Y-91055374D01*
X144980399Y-91051855D01*
X144926570Y-90988909D01*
X144925335Y-90987164D01*
X144891377Y-90928472D01*
X144890872Y-90927496D01*
X144865634Y-90872294D01*
X144830859Y-90812191D01*
X144775189Y-90747090D01*
X144772390Y-90739030D01*
X144775807Y-90731214D01*
X144831417Y-90675604D01*
X144839077Y-90672194D01*
X144847052Y-90674786D01*
G37*
%TD.AperFunction*%
%TA.AperFunction,Conductor*%
G36*
X128287735Y-109600862D02*
G01*
X128354855Y-109634654D01*
X128356120Y-109635394D01*
X128409864Y-109671630D01*
X128457069Y-109701868D01*
X128514619Y-109722420D01*
X128589335Y-109729053D01*
X128596931Y-109732808D01*
X128600000Y-109740707D01*
X128600000Y-109819293D01*
X128596931Y-109827192D01*
X128589334Y-109830946D01*
X128553253Y-109834149D01*
X128515360Y-109837513D01*
X128515358Y-109837513D01*
X128514619Y-109837579D01*
X128513924Y-109837827D01*
X128513920Y-109837828D01*
X128457693Y-109857907D01*
X128457069Y-109858130D01*
X128456517Y-109858483D01*
X128456508Y-109858488D01*
X128409940Y-109888320D01*
X128409864Y-109888369D01*
X128409822Y-109888397D01*
X128409795Y-109888415D01*
X128356127Y-109924599D01*
X128354847Y-109925348D01*
X128287735Y-109959137D01*
X128281536Y-109960349D01*
X128275611Y-109958163D01*
X128271685Y-109953214D01*
X128259677Y-109924599D01*
X128200898Y-109784524D01*
X128199988Y-109779999D01*
X128200898Y-109775476D01*
X128271686Y-109606783D01*
X128275611Y-109601836D01*
X128281536Y-109599650D01*
X128287735Y-109600862D01*
G37*
%TD.AperFunction*%
%TA.AperFunction,Conductor*%
G36*
X122686802Y-70139715D02*
G01*
X123456216Y-70457438D01*
X123460021Y-70459978D01*
X123462562Y-70463785D01*
X123780283Y-71233196D01*
X123781002Y-71239635D01*
X123778184Y-71245468D01*
X123772695Y-71248908D01*
X123407669Y-71353612D01*
X123405249Y-71354038D01*
X123107857Y-71374563D01*
X123107571Y-71374579D01*
X122849929Y-71386045D01*
X122849928Y-71386045D01*
X122849166Y-71386079D01*
X122848445Y-71386305D01*
X122848439Y-71386307D01*
X122591950Y-71467082D01*
X122591947Y-71467083D01*
X122590964Y-71467393D01*
X122590148Y-71468023D01*
X122590145Y-71468025D01*
X122301420Y-71691141D01*
X122293521Y-71693559D01*
X122285993Y-71690156D01*
X122229843Y-71634006D01*
X122226440Y-71626478D01*
X122228857Y-71618580D01*
X122452606Y-71329035D01*
X122533919Y-71070832D01*
X122545419Y-70812405D01*
X122545434Y-70812140D01*
X122565960Y-70514749D01*
X122566386Y-70512329D01*
X122581599Y-70459293D01*
X122671092Y-70147300D01*
X122674531Y-70141815D01*
X122680364Y-70138997D01*
X122686802Y-70139715D01*
G37*
%TD.AperFunction*%
%TA.AperFunction,Conductor*%
G36*
X136954388Y-92201836D02*
G01*
X136958314Y-92206785D01*
X137029100Y-92375473D01*
X137030011Y-92380000D01*
X137029100Y-92384527D01*
X136958314Y-92553214D01*
X136954388Y-92558163D01*
X136948463Y-92560349D01*
X136942264Y-92559137D01*
X136875150Y-92525348D01*
X136873870Y-92524599D01*
X136820203Y-92488415D01*
X136820135Y-92488369D01*
X136805626Y-92479075D01*
X136773489Y-92458488D01*
X136773484Y-92458485D01*
X136772929Y-92458130D01*
X136748486Y-92449401D01*
X136716078Y-92437828D01*
X136716076Y-92437827D01*
X136715380Y-92437579D01*
X136714639Y-92437513D01*
X136714638Y-92437513D01*
X136685103Y-92434891D01*
X136640665Y-92430946D01*
X136633069Y-92427192D01*
X136630000Y-92419293D01*
X136630000Y-92340707D01*
X136633069Y-92332808D01*
X136640664Y-92329053D01*
X136715380Y-92322420D01*
X136772929Y-92301868D01*
X136820135Y-92271630D01*
X136873884Y-92235390D01*
X136875135Y-92234658D01*
X136942264Y-92200861D01*
X136948463Y-92199650D01*
X136954388Y-92201836D01*
G37*
%TD.AperFunction*%
%TA.AperFunction,Conductor*%
G36*
X141778180Y-89770652D02*
G01*
X141844434Y-89795074D01*
X141845372Y-89795468D01*
X141899052Y-89820895D01*
X141900767Y-89821896D01*
X141955870Y-89860715D01*
X141957075Y-89861690D01*
X142018849Y-89918811D01*
X142022124Y-89924078D01*
X142022245Y-89930281D01*
X142019178Y-89935673D01*
X141963608Y-89991243D01*
X141956697Y-89994590D01*
X141949199Y-89992932D01*
X141904315Y-89965284D01*
X141904314Y-89965283D01*
X141902339Y-89964067D01*
X141900079Y-89964600D01*
X141857444Y-89974662D01*
X141857441Y-89974663D01*
X141856112Y-89974977D01*
X141855066Y-89975852D01*
X141855064Y-89975854D01*
X141810278Y-90013374D01*
X141810248Y-90013399D01*
X141810197Y-90013443D01*
X141810137Y-90013497D01*
X141810108Y-90013523D01*
X141757243Y-90061633D01*
X141755436Y-90062984D01*
X141698173Y-90097717D01*
X141691771Y-90099408D01*
X141685476Y-90097354D01*
X141681304Y-90092211D01*
X141669132Y-90062984D01*
X141611172Y-89923806D01*
X141610274Y-89919294D01*
X141611184Y-89914785D01*
X141682137Y-89745708D01*
X141688344Y-89739471D01*
X141697142Y-89739324D01*
X141778180Y-89770652D01*
G37*
%TD.AperFunction*%
%TA.AperFunction,Conductor*%
G36*
X134968658Y-91055082D02*
G01*
X134972184Y-91060322D01*
X134995747Y-91131672D01*
X134996122Y-91133106D01*
X135008497Y-91196703D01*
X135008501Y-91196719D01*
X135008501Y-91196720D01*
X135020498Y-91251482D01*
X135046660Y-91306707D01*
X135094802Y-91364230D01*
X135097519Y-91372256D01*
X135094103Y-91380011D01*
X135038534Y-91435580D01*
X135030779Y-91438996D01*
X135022753Y-91436279D01*
X134965230Y-91388137D01*
X134910005Y-91361975D01*
X134909357Y-91361833D01*
X134855263Y-91349982D01*
X134855226Y-91349974D01*
X134791629Y-91337599D01*
X134790195Y-91337224D01*
X134718845Y-91313661D01*
X134713605Y-91310135D01*
X134710961Y-91304398D01*
X134711683Y-91298127D01*
X134780912Y-91128789D01*
X134783469Y-91124946D01*
X134787312Y-91122389D01*
X134956650Y-91053160D01*
X134962921Y-91052438D01*
X134968658Y-91055082D01*
G37*
%TD.AperFunction*%
%TA.AperFunction,Conductor*%
G36*
X110399623Y-85249911D02*
G01*
X110403456Y-85252480D01*
X110532525Y-85382462D01*
X110535607Y-85388005D01*
X110535344Y-85394341D01*
X110531813Y-85399610D01*
X110482764Y-85441423D01*
X110481843Y-85442133D01*
X110432532Y-85476337D01*
X110432520Y-85476345D01*
X110432294Y-85476503D01*
X110432074Y-85476690D01*
X110432071Y-85476693D01*
X110394484Y-85508761D01*
X110394481Y-85508763D01*
X110393682Y-85509446D01*
X110393175Y-85510364D01*
X110393172Y-85510369D01*
X110369348Y-85553581D01*
X110369346Y-85553584D01*
X110368808Y-85554562D01*
X110368671Y-85555666D01*
X110368670Y-85555671D01*
X110361269Y-85615516D01*
X110357406Y-85622846D01*
X110349657Y-85625780D01*
X110270948Y-85625780D01*
X110262954Y-85622623D01*
X110259274Y-85614856D01*
X110258581Y-85604445D01*
X110253760Y-85531901D01*
X110238880Y-85466106D01*
X110221265Y-85410134D01*
X110221015Y-85409210D01*
X110217652Y-85394341D01*
X110206440Y-85344766D01*
X110206179Y-85342962D01*
X110200825Y-85262413D01*
X110202109Y-85256258D01*
X110206393Y-85251657D01*
X110212438Y-85249937D01*
X110395098Y-85249024D01*
X110399623Y-85249911D01*
G37*
%TD.AperFunction*%
%TA.AperFunction,Conductor*%
G36*
X110372904Y-91707928D02*
G01*
X110379207Y-91714284D01*
X110405005Y-91777285D01*
X110428319Y-91829690D01*
X110453464Y-91872190D01*
X110489190Y-91916300D01*
X110489365Y-91916482D01*
X110489366Y-91916483D01*
X110536290Y-91965266D01*
X110539557Y-91973491D01*
X110536131Y-91981650D01*
X110480592Y-92037189D01*
X110473245Y-92040579D01*
X110465455Y-92038391D01*
X110403405Y-91993436D01*
X110403404Y-91993435D01*
X110402378Y-91992692D01*
X110401135Y-91992446D01*
X110401132Y-91992445D01*
X110340330Y-91980430D01*
X110340325Y-91980429D01*
X110339527Y-91980272D01*
X110338715Y-91980341D01*
X110338708Y-91980341D01*
X110276597Y-91985651D01*
X110275914Y-91985690D01*
X110205417Y-91987574D01*
X110202236Y-91987221D01*
X110126522Y-91968078D01*
X110120851Y-91964734D01*
X110117884Y-91958856D01*
X110118559Y-91952309D01*
X110187435Y-91783835D01*
X110189992Y-91779992D01*
X110193835Y-91777435D01*
X110363952Y-91707888D01*
X110372904Y-91707928D01*
G37*
%TD.AperFunction*%
%TA.AperFunction,Conductor*%
G36*
X134405505Y-70141755D02*
G01*
X134408960Y-70147209D01*
X134515003Y-70508890D01*
X134515432Y-70511167D01*
X134541010Y-70804817D01*
X134541026Y-70805023D01*
X134558617Y-71058857D01*
X134558669Y-71059605D01*
X134558907Y-71060312D01*
X134558908Y-71060314D01*
X134621397Y-71245505D01*
X134644597Y-71314258D01*
X134645205Y-71315036D01*
X134645206Y-71315037D01*
X134868735Y-71600890D01*
X134871196Y-71608809D01*
X134867791Y-71616370D01*
X134776370Y-71707791D01*
X134768809Y-71711196D01*
X134760890Y-71708735D01*
X134633408Y-71609048D01*
X134474258Y-71484597D01*
X134473322Y-71484281D01*
X134473320Y-71484280D01*
X134220314Y-71398908D01*
X134220312Y-71398907D01*
X134219605Y-71398669D01*
X134218858Y-71398617D01*
X134218857Y-71398617D01*
X133965023Y-71381026D01*
X133964817Y-71381010D01*
X133671167Y-71355432D01*
X133668890Y-71355003D01*
X133307209Y-71248960D01*
X133301755Y-71245505D01*
X133298965Y-71239683D01*
X133299687Y-71233267D01*
X133617439Y-70463780D01*
X133619978Y-70459978D01*
X133623780Y-70457439D01*
X134393267Y-70139686D01*
X134399683Y-70138965D01*
X134405505Y-70141755D01*
G37*
%TD.AperFunction*%
%TA.AperFunction,Conductor*%
G36*
X131944524Y-111010898D02*
G01*
X132113214Y-111081685D01*
X132118163Y-111085611D01*
X132120349Y-111091537D01*
X132119137Y-111097735D01*
X132085348Y-111164847D01*
X132084599Y-111166127D01*
X132048415Y-111219795D01*
X132048397Y-111219822D01*
X132048369Y-111219864D01*
X132048334Y-111219918D01*
X132048320Y-111219940D01*
X132018488Y-111266508D01*
X132018486Y-111266513D01*
X132018130Y-111267069D01*
X132017907Y-111267691D01*
X132017907Y-111267693D01*
X131997828Y-111323920D01*
X131997827Y-111323924D01*
X131997579Y-111324619D01*
X131997513Y-111325358D01*
X131997513Y-111325360D01*
X131990947Y-111399334D01*
X131987192Y-111406931D01*
X131979293Y-111410000D01*
X131900707Y-111410000D01*
X131892808Y-111406931D01*
X131889053Y-111399335D01*
X131889053Y-111399334D01*
X131882420Y-111324619D01*
X131861868Y-111267069D01*
X131831630Y-111219864D01*
X131795394Y-111166120D01*
X131794654Y-111164855D01*
X131760862Y-111097735D01*
X131759650Y-111091536D01*
X131761836Y-111085611D01*
X131766783Y-111081686D01*
X131935475Y-111010898D01*
X131940000Y-111009988D01*
X131944524Y-111010898D01*
G37*
%TD.AperFunction*%
%TA.AperFunction,Conductor*%
G36*
X137204524Y-94310898D02*
G01*
X137373214Y-94381685D01*
X137378163Y-94385611D01*
X137380349Y-94391537D01*
X137379137Y-94397735D01*
X137345348Y-94464847D01*
X137344599Y-94466127D01*
X137308415Y-94519795D01*
X137308397Y-94519822D01*
X137308369Y-94519864D01*
X137308334Y-94519918D01*
X137308320Y-94519940D01*
X137278488Y-94566508D01*
X137278486Y-94566513D01*
X137278130Y-94567069D01*
X137277907Y-94567691D01*
X137277907Y-94567693D01*
X137257828Y-94623920D01*
X137257827Y-94623924D01*
X137257579Y-94624619D01*
X137257513Y-94625358D01*
X137257513Y-94625360D01*
X137250947Y-94699334D01*
X137247192Y-94706931D01*
X137239293Y-94710000D01*
X137160707Y-94710000D01*
X137152808Y-94706931D01*
X137149053Y-94699335D01*
X137149053Y-94699334D01*
X137142420Y-94624619D01*
X137121868Y-94567069D01*
X137091630Y-94519864D01*
X137055394Y-94466120D01*
X137054654Y-94464855D01*
X137020862Y-94397735D01*
X137019650Y-94391536D01*
X137021836Y-94385611D01*
X137026783Y-94381686D01*
X137195475Y-94310898D01*
X137200000Y-94309988D01*
X137204524Y-94310898D01*
G37*
%TD.AperFunction*%
%TA.AperFunction,Conductor*%
G36*
X108844524Y-103630898D02*
G01*
X109013214Y-103701685D01*
X109018163Y-103705611D01*
X109020349Y-103711537D01*
X109019137Y-103717735D01*
X108985348Y-103784847D01*
X108984599Y-103786127D01*
X108948415Y-103839795D01*
X108948397Y-103839822D01*
X108948369Y-103839864D01*
X108948334Y-103839918D01*
X108948320Y-103839940D01*
X108918488Y-103886508D01*
X108918486Y-103886513D01*
X108918130Y-103887069D01*
X108917907Y-103887691D01*
X108917907Y-103887693D01*
X108897828Y-103943920D01*
X108897827Y-103943924D01*
X108897579Y-103944619D01*
X108897513Y-103945358D01*
X108897513Y-103945360D01*
X108890947Y-104019334D01*
X108887192Y-104026931D01*
X108879293Y-104030000D01*
X108800707Y-104030000D01*
X108792808Y-104026931D01*
X108789053Y-104019335D01*
X108789053Y-104019334D01*
X108782420Y-103944619D01*
X108761868Y-103887069D01*
X108731630Y-103839864D01*
X108695394Y-103786120D01*
X108694654Y-103784855D01*
X108660862Y-103717735D01*
X108659650Y-103711536D01*
X108661836Y-103705611D01*
X108666783Y-103701686D01*
X108835475Y-103630898D01*
X108840000Y-103629988D01*
X108844524Y-103630898D01*
G37*
%TD.AperFunction*%
%TA.AperFunction,Conductor*%
G36*
X116727192Y-95593069D02*
G01*
X116730946Y-95600665D01*
X116737579Y-95675380D01*
X116758130Y-95732929D01*
X116758485Y-95733484D01*
X116758488Y-95733489D01*
X116779075Y-95765626D01*
X116788369Y-95780135D01*
X116788415Y-95780203D01*
X116824599Y-95833870D01*
X116825348Y-95835150D01*
X116859137Y-95902264D01*
X116860349Y-95908463D01*
X116858163Y-95914388D01*
X116853214Y-95918314D01*
X116684527Y-95989100D01*
X116680000Y-95990011D01*
X116675473Y-95989100D01*
X116506785Y-95918314D01*
X116501836Y-95914388D01*
X116499650Y-95908463D01*
X116500862Y-95902264D01*
X116534658Y-95835135D01*
X116535390Y-95833884D01*
X116571630Y-95780135D01*
X116601868Y-95732929D01*
X116622420Y-95675380D01*
X116629053Y-95600664D01*
X116632808Y-95593069D01*
X116640707Y-95590000D01*
X116719293Y-95590000D01*
X116727192Y-95593069D01*
G37*
%TD.AperFunction*%
%TA.AperFunction,Conductor*%
G36*
X129670723Y-96958675D02*
G01*
X129727670Y-97006335D01*
X129728245Y-97006816D01*
X129783471Y-97032977D01*
X129838232Y-97044974D01*
X129901853Y-97057354D01*
X129903272Y-97057725D01*
X129974633Y-97081292D01*
X129979871Y-97084817D01*
X129982515Y-97090554D01*
X129981792Y-97096829D01*
X129912564Y-97266162D01*
X129910007Y-97270007D01*
X129906162Y-97272564D01*
X129736829Y-97341792D01*
X129730554Y-97342515D01*
X129724817Y-97339871D01*
X129721292Y-97334633D01*
X129697725Y-97263272D01*
X129697354Y-97261853D01*
X129684974Y-97198232D01*
X129672977Y-97143471D01*
X129646816Y-97088245D01*
X129610604Y-97044977D01*
X129598675Y-97030723D01*
X129595958Y-97022696D01*
X129599373Y-97014942D01*
X129654942Y-96959373D01*
X129662696Y-96955958D01*
X129670723Y-96958675D01*
G37*
%TD.AperFunction*%
%TA.AperFunction,Conductor*%
G36*
X131336827Y-110138206D02*
G01*
X131470899Y-110193018D01*
X131506162Y-110207435D01*
X131510007Y-110209992D01*
X131512564Y-110213837D01*
X131581792Y-110383169D01*
X131582515Y-110389444D01*
X131579871Y-110395181D01*
X131574631Y-110398707D01*
X131503280Y-110422270D01*
X131501846Y-110422645D01*
X131438248Y-110435020D01*
X131438211Y-110435028D01*
X131384118Y-110446879D01*
X131384115Y-110446879D01*
X131383471Y-110447021D01*
X131382875Y-110447303D01*
X131382873Y-110447304D01*
X131328918Y-110472863D01*
X131328910Y-110472867D01*
X131328245Y-110473183D01*
X131327676Y-110473658D01*
X131327670Y-110473663D01*
X131270723Y-110521324D01*
X131262696Y-110524041D01*
X131254941Y-110520625D01*
X131199373Y-110465057D01*
X131195957Y-110457302D01*
X131198672Y-110449278D01*
X131246816Y-110391753D01*
X131272977Y-110336528D01*
X131284974Y-110281766D01*
X131297354Y-110218141D01*
X131297723Y-110216730D01*
X131321293Y-110145364D01*
X131324817Y-110140128D01*
X131330554Y-110137484D01*
X131336827Y-110138206D01*
G37*
%TD.AperFunction*%
M02*
