%TF.GenerationSoftware,KiCad,Pcbnew,(7.0.0)*%
%TF.CreationDate,2023-04-01T17:32:58+03:00*%
%TF.ProjectId,base_board,62617365-5f62-46f6-9172-642e6b696361,rev?*%
%TF.SameCoordinates,Original*%
%TF.FileFunction,Drillmap*%
%TF.FilePolarity,Positive*%
%FSLAX45Y45*%
G04 Gerber Fmt 4.5, Leading zero omitted, Abs format (unit mm)*
G04 Created by KiCad (PCBNEW (7.0.0)) date 2023-04-01 17:32:58*
%MOMM*%
%LPD*%
G01*
G04 APERTURE LIST*
%ADD10C,0.100000*%
%ADD11C,0.200000*%
%ADD12C,0.020000*%
%ADD13C,0.030000*%
%ADD14C,0.040000*%
%ADD15C,0.060000*%
G04 APERTURE END LIST*
D10*
X10300000Y-11400000D02*
G75*
G03*
X10700000Y-11800000I400000J0D01*
G01*
X14900000Y-11800000D02*
G75*
G03*
X15300000Y-11400000I0J400000D01*
G01*
X10700000Y-6800000D02*
G75*
G03*
X10300000Y-7200000I0J-400000D01*
G01*
X15300000Y-7200000D02*
G75*
G03*
X14900000Y-6800000I-400000J0D01*
G01*
X10300000Y-11400000D02*
X10300000Y-7200000D01*
X10700000Y-6800000D02*
X14900000Y-6800000D01*
X14900000Y-11800000D02*
X10700000Y-11800000D01*
X15300000Y-7200000D02*
X15300000Y-11400000D01*
D11*
D12*
X10642500Y-8541000D02*
X10662500Y-8561000D01*
X10662500Y-8541000D02*
X10642500Y-8561000D01*
X10642500Y-8586000D02*
X10662500Y-8606000D01*
X10662500Y-8586000D02*
X10642500Y-8606000D01*
X10737000Y-7816000D02*
X10757000Y-7836000D01*
X10757000Y-7816000D02*
X10737000Y-7836000D01*
X10741500Y-8329000D02*
X10761500Y-8349000D01*
X10761500Y-8329000D02*
X10741500Y-8349000D01*
X10853500Y-8330000D02*
X10873500Y-8350000D01*
X10873500Y-8330000D02*
X10853500Y-8350000D01*
X10856500Y-8513000D02*
X10876500Y-8533000D01*
X10876500Y-8513000D02*
X10856500Y-8533000D01*
X10874000Y-10353000D02*
X10894000Y-10373000D01*
X10894000Y-10353000D02*
X10874000Y-10373000D01*
X10929000Y-8337000D02*
X10949000Y-8357000D01*
X10949000Y-8337000D02*
X10929000Y-8357000D01*
X11009000Y-9168000D02*
X11029000Y-9188000D01*
X11029000Y-9168000D02*
X11009000Y-9188000D01*
X11030000Y-8455000D02*
X11050000Y-8475000D01*
X11050000Y-8455000D02*
X11030000Y-8475000D01*
X11030000Y-8515000D02*
X11050000Y-8535000D01*
X11050000Y-8515000D02*
X11030000Y-8535000D01*
X11091000Y-8830000D02*
X11111000Y-8850000D01*
X11111000Y-8830000D02*
X11091000Y-8850000D01*
X11104000Y-8558000D02*
X11124000Y-8578000D01*
X11124000Y-8558000D02*
X11104000Y-8578000D01*
X11114000Y-8975000D02*
X11134000Y-8995000D01*
X11134000Y-8975000D02*
X11114000Y-8995000D01*
X11232000Y-9005000D02*
X11252000Y-9025000D01*
X11252000Y-9005000D02*
X11232000Y-9025000D01*
X11475000Y-9751000D02*
X11495000Y-9771000D01*
X11495000Y-9751000D02*
X11475000Y-9771000D01*
X11479000Y-10699000D02*
X11499000Y-10719000D01*
X11499000Y-10699000D02*
X11479000Y-10719000D01*
X11658000Y-9589000D02*
X11678000Y-9609000D01*
X11678000Y-9589000D02*
X11658000Y-9609000D01*
X11730000Y-10855000D02*
X11750000Y-10875000D01*
X11750000Y-10855000D02*
X11730000Y-10875000D01*
X11801000Y-10858000D02*
X11821000Y-10878000D01*
X11821000Y-10858000D02*
X11801000Y-10878000D01*
X11826000Y-10929000D02*
X11846000Y-10949000D01*
X11846000Y-10929000D02*
X11826000Y-10949000D01*
X11882000Y-9501000D02*
X11902000Y-9521000D01*
X11902000Y-9501000D02*
X11882000Y-9521000D01*
X11906000Y-10591000D02*
X11926000Y-10611000D01*
X11926000Y-10591000D02*
X11906000Y-10611000D01*
X11926000Y-10379000D02*
X11946000Y-10399000D01*
X11946000Y-10379000D02*
X11926000Y-10399000D01*
X12019000Y-10619000D02*
X12039000Y-10639000D01*
X12039000Y-10619000D02*
X12019000Y-10639000D01*
X12069000Y-10976000D02*
X12089000Y-10996000D01*
X12089000Y-10976000D02*
X12069000Y-10996000D01*
X12074000Y-10465000D02*
X12094000Y-10485000D01*
X12094000Y-10465000D02*
X12074000Y-10485000D01*
X12080000Y-9695000D02*
X12100000Y-9715000D01*
X12100000Y-9695000D02*
X12080000Y-9715000D01*
X12091000Y-9452000D02*
X12111000Y-9472000D01*
X12111000Y-9452000D02*
X12091000Y-9472000D01*
X12100000Y-10381000D02*
X12120000Y-10401000D01*
X12120000Y-10381000D02*
X12100000Y-10401000D01*
X12108000Y-10779000D02*
X12128000Y-10799000D01*
X12128000Y-10779000D02*
X12108000Y-10799000D01*
X12172000Y-9819000D02*
X12192000Y-9839000D01*
X12192000Y-9819000D02*
X12172000Y-9839000D01*
X12214000Y-10360000D02*
X12234000Y-10380000D01*
X12234000Y-10360000D02*
X12214000Y-10380000D01*
X12273000Y-10891000D02*
X12293000Y-10911000D01*
X12293000Y-10891000D02*
X12273000Y-10911000D01*
X12315000Y-10050000D02*
X12335000Y-10070000D01*
X12335000Y-10050000D02*
X12315000Y-10070000D01*
X12316000Y-10291000D02*
X12336000Y-10311000D01*
X12336000Y-10291000D02*
X12316000Y-10311000D01*
X12330000Y-8958000D02*
X12350000Y-8978000D01*
X12350000Y-8958000D02*
X12330000Y-8978000D01*
X12395000Y-10130000D02*
X12415000Y-10150000D01*
X12415000Y-10130000D02*
X12395000Y-10150000D01*
X12395000Y-10290000D02*
X12415000Y-10310000D01*
X12415000Y-10290000D02*
X12395000Y-10310000D01*
X12395000Y-10370000D02*
X12415000Y-10390000D01*
X12415000Y-10370000D02*
X12395000Y-10390000D01*
X12395000Y-10691000D02*
X12415000Y-10711000D01*
X12415000Y-10691000D02*
X12395000Y-10711000D01*
X12423000Y-9204000D02*
X12443000Y-9224000D01*
X12443000Y-9204000D02*
X12423000Y-9224000D01*
X12425000Y-9856000D02*
X12445000Y-9876000D01*
X12445000Y-9856000D02*
X12425000Y-9876000D01*
X12430000Y-9613000D02*
X12450000Y-9633000D01*
X12450000Y-9613000D02*
X12430000Y-9633000D01*
X12443000Y-8698000D02*
X12463000Y-8718000D01*
X12463000Y-8698000D02*
X12443000Y-8718000D01*
X12471050Y-11104192D02*
X12491050Y-11124192D01*
X12491050Y-11104192D02*
X12471050Y-11124192D01*
X12475000Y-10130000D02*
X12495000Y-10150000D01*
X12495000Y-10130000D02*
X12475000Y-10150000D01*
X12475000Y-10210000D02*
X12495000Y-10230000D01*
X12495000Y-10210000D02*
X12475000Y-10230000D01*
X12475000Y-10530000D02*
X12495000Y-10550000D01*
X12495000Y-10530000D02*
X12475000Y-10550000D01*
X12504000Y-9742000D02*
X12524000Y-9762000D01*
X12524000Y-9742000D02*
X12504000Y-9762000D01*
X12515000Y-9860000D02*
X12535000Y-9880000D01*
X12535000Y-9860000D02*
X12515000Y-9880000D01*
X12555000Y-10050000D02*
X12575000Y-10070000D01*
X12575000Y-10050000D02*
X12555000Y-10070000D01*
X12555000Y-10130000D02*
X12575000Y-10150000D01*
X12575000Y-10130000D02*
X12555000Y-10150000D01*
X12555000Y-10290000D02*
X12575000Y-10310000D01*
X12575000Y-10290000D02*
X12555000Y-10310000D01*
X12555000Y-10530000D02*
X12575000Y-10550000D01*
X12575000Y-10530000D02*
X12555000Y-10550000D01*
X12571000Y-9217000D02*
X12591000Y-9237000D01*
X12591000Y-9217000D02*
X12571000Y-9237000D01*
X12571000Y-11093000D02*
X12591000Y-11113000D01*
X12591000Y-11093000D02*
X12571000Y-11113000D01*
X12572000Y-11029274D02*
X12592000Y-11049274D01*
X12592000Y-11029274D02*
X12572000Y-11049274D01*
X12635000Y-10050000D02*
X12655000Y-10070000D01*
X12655000Y-10050000D02*
X12635000Y-10070000D01*
X12635000Y-10290000D02*
X12655000Y-10310000D01*
X12655000Y-10290000D02*
X12635000Y-10310000D01*
X12636000Y-10983000D02*
X12656000Y-11003000D01*
X12656000Y-10983000D02*
X12636000Y-11003000D01*
X12637000Y-10212000D02*
X12657000Y-10232000D01*
X12657000Y-10212000D02*
X12637000Y-10232000D01*
X12642000Y-9591000D02*
X12662000Y-9611000D01*
X12662000Y-9591000D02*
X12642000Y-9611000D01*
X12698000Y-11066000D02*
X12718000Y-11086000D01*
X12718000Y-11066000D02*
X12698000Y-11086000D01*
X12715000Y-10130000D02*
X12735000Y-10150000D01*
X12735000Y-10130000D02*
X12715000Y-10150000D01*
X12715000Y-10530000D02*
X12735000Y-10550000D01*
X12735000Y-10530000D02*
X12715000Y-10550000D01*
X12749000Y-8570000D02*
X12769000Y-8590000D01*
X12769000Y-8570000D02*
X12749000Y-8590000D01*
X12754000Y-9400000D02*
X12774000Y-9420000D01*
X12774000Y-9400000D02*
X12754000Y-9420000D01*
X12754000Y-9747000D02*
X12774000Y-9767000D01*
X12774000Y-9747000D02*
X12754000Y-9767000D01*
X12758000Y-9847000D02*
X12778000Y-9867000D01*
X12778000Y-9847000D02*
X12758000Y-9867000D01*
X12794000Y-10131000D02*
X12814000Y-10151000D01*
X12814000Y-10131000D02*
X12794000Y-10151000D01*
X12794000Y-10210000D02*
X12814000Y-10230000D01*
X12814000Y-10210000D02*
X12794000Y-10230000D01*
X12795000Y-10371000D02*
X12815000Y-10391000D01*
X12815000Y-10371000D02*
X12795000Y-10391000D01*
X12810000Y-10968000D02*
X12830000Y-10988000D01*
X12830000Y-10968000D02*
X12810000Y-10988000D01*
X12862000Y-9248000D02*
X12882000Y-9268000D01*
X12882000Y-9248000D02*
X12862000Y-9268000D01*
X12875000Y-10530000D02*
X12895000Y-10550000D01*
X12895000Y-10530000D02*
X12875000Y-10550000D01*
X12906000Y-11098000D02*
X12926000Y-11118000D01*
X12926000Y-11098000D02*
X12906000Y-11118000D01*
X12954000Y-10531000D02*
X12974000Y-10551000D01*
X12974000Y-10531000D02*
X12954000Y-10551000D01*
X12955000Y-10609000D02*
X12975000Y-10629000D01*
X12975000Y-10609000D02*
X12955000Y-10629000D01*
X12978000Y-8577000D02*
X12998000Y-8597000D01*
X12998000Y-8577000D02*
X12978000Y-8597000D01*
X12980000Y-9410000D02*
X13000000Y-9430000D01*
X13000000Y-9410000D02*
X12980000Y-9430000D01*
X12981000Y-9717000D02*
X13001000Y-9737000D01*
X13001000Y-9717000D02*
X12981000Y-9737000D01*
X13039000Y-10994000D02*
X13059000Y-11014000D01*
X13059000Y-10994000D02*
X13039000Y-11014000D01*
X13065000Y-9872000D02*
X13085000Y-9892000D01*
X13085000Y-9872000D02*
X13065000Y-9892000D01*
X13076000Y-8869000D02*
X13096000Y-8889000D01*
X13096000Y-8869000D02*
X13076000Y-8889000D01*
X13088000Y-10914000D02*
X13108000Y-10934000D01*
X13108000Y-10914000D02*
X13088000Y-10934000D01*
X13091000Y-8688000D02*
X13111000Y-8708000D01*
X13111000Y-8688000D02*
X13091000Y-8708000D01*
X13108000Y-9586000D02*
X13128000Y-9606000D01*
X13128000Y-9586000D02*
X13108000Y-9606000D01*
X13115000Y-10610000D02*
X13135000Y-10630000D01*
X13135000Y-10610000D02*
X13115000Y-10630000D01*
X13124000Y-9761000D02*
X13144000Y-9781000D01*
X13144000Y-9761000D02*
X13124000Y-9781000D01*
X13141000Y-11011000D02*
X13161000Y-11031000D01*
X13161000Y-11011000D02*
X13141000Y-11031000D01*
X13178000Y-10862000D02*
X13198000Y-10882000D01*
X13198000Y-10862000D02*
X13178000Y-10882000D01*
X13184000Y-11091000D02*
X13204000Y-11111000D01*
X13204000Y-11091000D02*
X13184000Y-11111000D01*
X13232000Y-8891000D02*
X13252000Y-8911000D01*
X13252000Y-8891000D02*
X13232000Y-8911000D01*
X13249000Y-9418000D02*
X13269000Y-9438000D01*
X13269000Y-9418000D02*
X13249000Y-9438000D01*
X13250000Y-10404000D02*
X13270000Y-10424000D01*
X13270000Y-10404000D02*
X13250000Y-10424000D01*
X13274000Y-9505000D02*
X13294000Y-9525000D01*
X13294000Y-9505000D02*
X13274000Y-9525000D01*
X13305000Y-8956000D02*
X13325000Y-8976000D01*
X13325000Y-8956000D02*
X13305000Y-8976000D01*
X13310000Y-9769000D02*
X13330000Y-9789000D01*
X13330000Y-9769000D02*
X13310000Y-9789000D01*
X13334000Y-9576000D02*
X13354000Y-9596000D01*
X13354000Y-9576000D02*
X13334000Y-9596000D01*
X13337729Y-10169258D02*
X13357729Y-10189258D01*
X13357729Y-10169258D02*
X13337729Y-10189258D01*
X13367000Y-10398000D02*
X13387000Y-10418000D01*
X13387000Y-10398000D02*
X13367000Y-10418000D01*
X13383000Y-7930000D02*
X13403000Y-7950000D01*
X13403000Y-7930000D02*
X13383000Y-7950000D01*
X13386000Y-9736000D02*
X13406000Y-9756000D01*
X13406000Y-9736000D02*
X13386000Y-9756000D01*
X13395000Y-9161000D02*
X13415000Y-9181000D01*
X13415000Y-9161000D02*
X13395000Y-9181000D01*
X13437000Y-7997000D02*
X13457000Y-8017000D01*
X13457000Y-7997000D02*
X13437000Y-8017000D01*
X13448506Y-9592506D02*
X13468506Y-9612506D01*
X13468506Y-9592506D02*
X13448506Y-9612506D01*
X13460000Y-9692000D02*
X13480000Y-9712000D01*
X13480000Y-9692000D02*
X13460000Y-9712000D01*
X13468348Y-9102495D02*
X13488348Y-9122495D01*
X13488348Y-9102495D02*
X13468348Y-9122495D01*
X13501000Y-8036000D02*
X13521000Y-8056000D01*
X13521000Y-8036000D02*
X13501000Y-8056000D01*
X13534000Y-8123000D02*
X13554000Y-8143000D01*
X13554000Y-8123000D02*
X13534000Y-8143000D01*
X13606000Y-8173000D02*
X13626000Y-8193000D01*
X13626000Y-8173000D02*
X13606000Y-8193000D01*
X13620000Y-9414000D02*
X13640000Y-9434000D01*
X13640000Y-9414000D02*
X13620000Y-9434000D01*
X13651000Y-9294000D02*
X13671000Y-9314000D01*
X13671000Y-9294000D02*
X13651000Y-9314000D01*
X13671000Y-10015000D02*
X13691000Y-10035000D01*
X13691000Y-10015000D02*
X13671000Y-10035000D01*
X13673000Y-9835000D02*
X13693000Y-9855000D01*
X13693000Y-9835000D02*
X13673000Y-9855000D01*
X13681000Y-8324000D02*
X13701000Y-8344000D01*
X13701000Y-8324000D02*
X13681000Y-8344000D01*
X13693000Y-9228000D02*
X13713000Y-9248000D01*
X13713000Y-9228000D02*
X13693000Y-9248000D01*
X13710000Y-9421000D02*
X13730000Y-9441000D01*
X13730000Y-9421000D02*
X13710000Y-9441000D01*
X13770506Y-9509506D02*
X13790506Y-9529506D01*
X13790506Y-9509506D02*
X13770506Y-9529506D01*
X13775000Y-9197000D02*
X13795000Y-9217000D01*
X13795000Y-9197000D02*
X13775000Y-9217000D01*
X13819000Y-10013000D02*
X13839000Y-10033000D01*
X13839000Y-10013000D02*
X13819000Y-10033000D01*
X13822000Y-8393000D02*
X13842000Y-8413000D01*
X13842000Y-8393000D02*
X13822000Y-8413000D01*
X13831000Y-7929000D02*
X13851000Y-7949000D01*
X13851000Y-7929000D02*
X13831000Y-7949000D01*
X13871000Y-10617000D02*
X13891000Y-10637000D01*
X13891000Y-10617000D02*
X13871000Y-10637000D01*
X13877000Y-8603000D02*
X13897000Y-8623000D01*
X13897000Y-8603000D02*
X13877000Y-8623000D01*
X13885000Y-9039000D02*
X13905000Y-9059000D01*
X13905000Y-9039000D02*
X13885000Y-9059000D01*
X13886000Y-10078000D02*
X13906000Y-10098000D01*
X13906000Y-10078000D02*
X13886000Y-10098000D01*
X13887000Y-9172000D02*
X13907000Y-9192000D01*
X13907000Y-9172000D02*
X13887000Y-9192000D01*
X13891000Y-8453000D02*
X13911000Y-8473000D01*
X13911000Y-8453000D02*
X13891000Y-8473000D01*
X13902000Y-9709000D02*
X13922000Y-9729000D01*
X13922000Y-9709000D02*
X13902000Y-9729000D01*
X13936000Y-9543000D02*
X13956000Y-9563000D01*
X13956000Y-9543000D02*
X13936000Y-9563000D01*
X14031000Y-9415000D02*
X14051000Y-9435000D01*
X14051000Y-9415000D02*
X14031000Y-9435000D01*
X14042000Y-9626000D02*
X14062000Y-9646000D01*
X14062000Y-9626000D02*
X14042000Y-9646000D01*
X14054000Y-9870000D02*
X14074000Y-9890000D01*
X14074000Y-9870000D02*
X14054000Y-9890000D01*
X14061000Y-8608000D02*
X14081000Y-8628000D01*
X14081000Y-8608000D02*
X14061000Y-8628000D01*
X14077000Y-7937000D02*
X14097000Y-7957000D01*
X14097000Y-7937000D02*
X14077000Y-7957000D01*
X14129000Y-8652000D02*
X14149000Y-8672000D01*
X14149000Y-8652000D02*
X14129000Y-8672000D01*
X14134000Y-9909000D02*
X14154000Y-9929000D01*
X14154000Y-9909000D02*
X14134000Y-9929000D01*
X14151000Y-8982000D02*
X14171000Y-9002000D01*
X14171000Y-8982000D02*
X14151000Y-9002000D01*
X14218000Y-8806000D02*
X14238000Y-8826000D01*
X14238000Y-8806000D02*
X14218000Y-8826000D01*
X14312000Y-10339000D02*
X14332000Y-10359000D01*
X14332000Y-10339000D02*
X14312000Y-10359000D01*
X14320000Y-8233000D02*
X14340000Y-8253000D01*
X14340000Y-8233000D02*
X14320000Y-8253000D01*
X14336000Y-10512000D02*
X14356000Y-10532000D01*
X14356000Y-10512000D02*
X14336000Y-10532000D01*
X14342500Y-11354500D02*
X14362500Y-11374500D01*
X14362500Y-11354500D02*
X14342500Y-11374500D01*
X14426000Y-10226000D02*
X14446000Y-10246000D01*
X14446000Y-10226000D02*
X14426000Y-10246000D01*
X14445000Y-8346000D02*
X14465000Y-8366000D01*
X14465000Y-8346000D02*
X14445000Y-8366000D01*
X14501000Y-10026000D02*
X14521000Y-10046000D01*
X14521000Y-10026000D02*
X14501000Y-10046000D01*
X14503000Y-9082000D02*
X14523000Y-9102000D01*
X14523000Y-9082000D02*
X14503000Y-9102000D01*
X14665000Y-8787000D02*
X14685000Y-8807000D01*
X14685000Y-8787000D02*
X14665000Y-8807000D01*
X14786000Y-9396000D02*
X14806000Y-9416000D01*
X14806000Y-9396000D02*
X14786000Y-9416000D01*
X14870000Y-9387000D02*
X14890000Y-9407000D01*
X14890000Y-9387000D02*
X14870000Y-9407000D01*
X14897000Y-9922000D02*
X14917000Y-9942000D01*
X14917000Y-9922000D02*
X14897000Y-9942000D01*
X15146000Y-10390000D02*
X15166000Y-10410000D01*
X15166000Y-10390000D02*
X15146000Y-10410000D01*
D13*
X10466500Y-8542000D02*
G75*
G03*
X10466500Y-8542000I-15000J0D01*
G01*
X10612500Y-8727000D02*
G75*
G03*
X10612500Y-8727000I-15000J0D01*
G01*
X10619500Y-8344000D02*
G75*
G03*
X10619500Y-8344000I-15000J0D01*
G01*
X10780000Y-8950000D02*
G75*
G03*
X10780000Y-8950000I-15000J0D01*
G01*
X10833500Y-7961000D02*
G75*
G03*
X10833500Y-7961000I-15000J0D01*
G01*
X11030500Y-7971500D02*
G75*
G03*
X11030500Y-7971500I-15000J0D01*
G01*
X11243000Y-8840500D02*
G75*
G03*
X11243000Y-8840500I-15000J0D01*
G01*
X11255000Y-8302500D02*
G75*
G03*
X11255000Y-8302500I-15000J0D01*
G01*
X11690750Y-8800600D02*
G75*
G03*
X11690750Y-8800600I-15000J0D01*
G01*
X11715500Y-8142450D02*
G75*
G03*
X11715500Y-8142450I-15000J0D01*
G01*
X11832000Y-10310000D02*
G75*
G03*
X11832000Y-10310000I-15000J0D01*
G01*
X11863500Y-7981450D02*
G75*
G03*
X11863500Y-7981450I-15000J0D01*
G01*
X11869250Y-9350525D02*
G75*
G03*
X11869250Y-9350525I-15000J0D01*
G01*
X11875750Y-8825125D02*
G75*
G03*
X11875750Y-8825125I-15000J0D01*
G01*
X11948000Y-10177000D02*
G75*
G03*
X11948000Y-10177000I-15000J0D01*
G01*
X11967000Y-7683450D02*
G75*
G03*
X11967000Y-7683450I-15000J0D01*
G01*
X12185000Y-10180000D02*
G75*
G03*
X12185000Y-10180000I-15000J0D01*
G01*
X12257500Y-7698450D02*
G75*
G03*
X12257500Y-7698450I-15000J0D01*
G01*
X12505000Y-10930000D02*
G75*
G03*
X12505000Y-10930000I-15000J0D01*
G01*
X12567000Y-7683450D02*
G75*
G03*
X12567000Y-7683450I-15000J0D01*
G01*
X12606500Y-8526450D02*
G75*
G03*
X12606500Y-8526450I-15000J0D01*
G01*
X12614741Y-10936486D02*
G75*
G03*
X12614741Y-10936486I-15000J0D01*
G01*
X12691500Y-7982450D02*
G75*
G03*
X12691500Y-7982450I-15000J0D01*
G01*
X12700000Y-7603000D02*
G75*
G03*
X12700000Y-7603000I-15000J0D01*
G01*
X12716000Y-8318450D02*
G75*
G03*
X12716000Y-8318450I-15000J0D01*
G01*
X12925000Y-10930000D02*
G75*
G03*
X12925000Y-10930000I-15000J0D01*
G01*
X13192000Y-7567000D02*
G75*
G03*
X13192000Y-7567000I-15000J0D01*
G01*
X13406886Y-10731678D02*
G75*
G03*
X13406886Y-10731678I-15000J0D01*
G01*
X13428500Y-10908000D02*
G75*
G03*
X13428500Y-10908000I-15000J0D01*
G01*
X13800000Y-10322000D02*
G75*
G03*
X13800000Y-10322000I-15000J0D01*
G01*
X13846000Y-10492000D02*
G75*
G03*
X13846000Y-10492000I-15000J0D01*
G01*
X13890000Y-11657000D02*
G75*
G03*
X13890000Y-11657000I-15000J0D01*
G01*
X13975500Y-11028500D02*
G75*
G03*
X13975500Y-11028500I-15000J0D01*
G01*
X14380500Y-11082500D02*
G75*
G03*
X14380500Y-11082500I-15000J0D01*
G01*
X14385000Y-11627000D02*
G75*
G03*
X14385000Y-11627000I-15000J0D01*
G01*
X14392000Y-7105000D02*
G75*
G03*
X14392000Y-7105000I-15000J0D01*
G01*
D14*
X10660000Y-9953000D02*
X10660000Y-9993000D01*
X10640000Y-9973000D02*
X10680000Y-9973000D01*
X10674000Y-10149000D02*
X10674000Y-10189000D01*
X10654000Y-10169000D02*
X10694000Y-10169000D01*
X10953000Y-10263000D02*
X10953000Y-10303000D01*
X10933000Y-10283000D02*
X10973000Y-10283000D01*
X11060000Y-10753000D02*
X11060000Y-10793000D01*
X11040000Y-10773000D02*
X11080000Y-10773000D01*
X11223000Y-10327000D02*
X11223000Y-10367000D01*
X11203000Y-10347000D02*
X11243000Y-10347000D01*
X11239000Y-9961000D02*
X11239000Y-10001000D01*
X11219000Y-9981000D02*
X11259000Y-9981000D01*
X11245000Y-9758000D02*
X11245000Y-9798000D01*
X11225000Y-9778000D02*
X11265000Y-9778000D01*
X11250000Y-9845000D02*
X11250000Y-9885000D01*
X11230000Y-9865000D02*
X11270000Y-9865000D01*
X11259000Y-10437000D02*
X11259000Y-10477000D01*
X11239000Y-10457000D02*
X11279000Y-10457000D01*
X11589000Y-8370125D02*
X11589000Y-8410125D01*
X11569000Y-8390125D02*
X11609000Y-8390125D01*
D15*
X10644713Y-9687213D02*
X10644713Y-9644787D01*
X10602287Y-9644787D01*
X10602287Y-9687213D01*
X10644713Y-9687213D01*
D11*
X10653500Y-9636000D02*
X10593500Y-9636000D01*
X10593500Y-9636000D02*
G75*
G03*
X10593500Y-9696000I0J-30000D01*
G01*
X10593500Y-9696000D02*
X10653500Y-9696000D01*
X10653500Y-9696000D02*
G75*
G03*
X10653500Y-9636000I0J30000D01*
G01*
D15*
X10644713Y-10551213D02*
X10644713Y-10508787D01*
X10602287Y-10508787D01*
X10602287Y-10551213D01*
X10644713Y-10551213D01*
D11*
X10653500Y-10500000D02*
X10593500Y-10500000D01*
X10593500Y-10500000D02*
G75*
G03*
X10593500Y-10560000I0J-30000D01*
G01*
X10593500Y-10560000D02*
X10653500Y-10560000D01*
X10653500Y-10560000D02*
G75*
G03*
X10653500Y-10500000I0J30000D01*
G01*
D15*
X11062713Y-9687213D02*
X11062713Y-9644787D01*
X11020287Y-9644787D01*
X11020287Y-9687213D01*
X11062713Y-9687213D01*
D11*
X11096500Y-9636000D02*
X10986500Y-9636000D01*
X10986500Y-9636000D02*
G75*
G03*
X10986500Y-9696000I0J-30000D01*
G01*
X10986500Y-9696000D02*
X11096500Y-9696000D01*
X11096500Y-9696000D02*
G75*
G03*
X11096500Y-9636000I0J30000D01*
G01*
D15*
X11062713Y-10551213D02*
X11062713Y-10508787D01*
X11020287Y-10508787D01*
X11020287Y-10551213D01*
X11062713Y-10551213D01*
D11*
X11096500Y-10500000D02*
X10986500Y-10500000D01*
X10986500Y-10500000D02*
G75*
G03*
X10986500Y-10560000I0J-30000D01*
G01*
X10986500Y-10560000D02*
X11096500Y-10560000D01*
X11096500Y-10560000D02*
G75*
G03*
X11096500Y-10500000I0J30000D01*
G01*
D10*
X11266000Y-11237000D02*
X11316000Y-11187000D01*
X11266000Y-11137000D01*
X11216000Y-11187000D01*
X11266000Y-11237000D01*
X11520000Y-11237000D02*
X11570000Y-11187000D01*
X11520000Y-11137000D01*
X11470000Y-11187000D01*
X11520000Y-11237000D01*
X11584000Y-7096000D02*
X11634000Y-7046000D01*
X11584000Y-6996000D01*
X11534000Y-7046000D01*
X11584000Y-7096000D01*
X11584000Y-7350000D02*
X11634000Y-7300000D01*
X11584000Y-7250000D01*
X11534000Y-7300000D01*
X11584000Y-7350000D01*
X11774000Y-11237000D02*
X11824000Y-11187000D01*
X11774000Y-11137000D01*
X11724000Y-11187000D01*
X11774000Y-11237000D01*
X11838000Y-7096000D02*
X11888000Y-7046000D01*
X11838000Y-6996000D01*
X11788000Y-7046000D01*
X11838000Y-7096000D01*
X11838000Y-7350000D02*
X11888000Y-7300000D01*
X11838000Y-7250000D01*
X11788000Y-7300000D01*
X11838000Y-7350000D01*
X12028000Y-11237000D02*
X12078000Y-11187000D01*
X12028000Y-11137000D01*
X11978000Y-11187000D01*
X12028000Y-11237000D01*
X12047000Y-11625000D02*
X12097000Y-11575000D01*
X12047000Y-11525000D01*
X11997000Y-11575000D01*
X12047000Y-11625000D01*
X12092000Y-7096000D02*
X12142000Y-7046000D01*
X12092000Y-6996000D01*
X12042000Y-7046000D01*
X12092000Y-7096000D01*
X12092000Y-7350000D02*
X12142000Y-7300000D01*
X12092000Y-7250000D01*
X12042000Y-7300000D01*
X12092000Y-7350000D01*
X12301000Y-11625000D02*
X12351000Y-11575000D01*
X12301000Y-11525000D01*
X12251000Y-11575000D01*
X12301000Y-11625000D01*
X12346000Y-7096000D02*
X12396000Y-7046000D01*
X12346000Y-6996000D01*
X12296000Y-7046000D01*
X12346000Y-7096000D01*
X12346000Y-7350000D02*
X12396000Y-7300000D01*
X12346000Y-7250000D01*
X12296000Y-7300000D01*
X12346000Y-7350000D01*
X12555000Y-11625000D02*
X12605000Y-11575000D01*
X12555000Y-11525000D01*
X12505000Y-11575000D01*
X12555000Y-11625000D01*
X12600000Y-7096000D02*
X12650000Y-7046000D01*
X12600000Y-6996000D01*
X12550000Y-7046000D01*
X12600000Y-7096000D01*
X12600000Y-7350000D02*
X12650000Y-7300000D01*
X12600000Y-7250000D01*
X12550000Y-7300000D01*
X12600000Y-7350000D01*
X12809000Y-11625000D02*
X12859000Y-11575000D01*
X12809000Y-11525000D01*
X12759000Y-11575000D01*
X12809000Y-11625000D01*
X12854000Y-7096000D02*
X12904000Y-7046000D01*
X12854000Y-6996000D01*
X12804000Y-7046000D01*
X12854000Y-7096000D01*
X12854000Y-7350000D02*
X12904000Y-7300000D01*
X12854000Y-7250000D01*
X12804000Y-7300000D01*
X12854000Y-7350000D01*
X13063000Y-11625000D02*
X13113000Y-11575000D01*
X13063000Y-11525000D01*
X13013000Y-11575000D01*
X13063000Y-11625000D01*
X13108000Y-7096000D02*
X13158000Y-7046000D01*
X13108000Y-6996000D01*
X13058000Y-7046000D01*
X13108000Y-7096000D01*
X13108000Y-7350000D02*
X13158000Y-7300000D01*
X13108000Y-7250000D01*
X13058000Y-7300000D01*
X13108000Y-7350000D01*
X13317000Y-11625000D02*
X13367000Y-11575000D01*
X13317000Y-11525000D01*
X13267000Y-11575000D01*
X13317000Y-11625000D01*
X13362000Y-7096000D02*
X13412000Y-7046000D01*
X13362000Y-6996000D01*
X13312000Y-7046000D01*
X13362000Y-7096000D01*
X13362000Y-7350000D02*
X13412000Y-7300000D01*
X13362000Y-7250000D01*
X13312000Y-7300000D01*
X13362000Y-7350000D01*
X13616000Y-7096000D02*
X13666000Y-7046000D01*
X13616000Y-6996000D01*
X13566000Y-7046000D01*
X13616000Y-7096000D01*
X13616000Y-7350000D02*
X13666000Y-7300000D01*
X13616000Y-7250000D01*
X13566000Y-7300000D01*
X13616000Y-7350000D01*
X13870000Y-7096000D02*
X13920000Y-7046000D01*
X13870000Y-6996000D01*
X13820000Y-7046000D01*
X13870000Y-7096000D01*
X13870000Y-7350000D02*
X13920000Y-7300000D01*
X13870000Y-7250000D01*
X13820000Y-7300000D01*
X13870000Y-7350000D01*
D11*
X10542619Y-12098476D02*
X10542619Y-11898476D01*
X10542619Y-11898476D02*
X10590238Y-11898476D01*
X10590238Y-11898476D02*
X10618810Y-11908000D01*
X10618810Y-11908000D02*
X10637857Y-11927048D01*
X10637857Y-11927048D02*
X10647381Y-11946095D01*
X10647381Y-11946095D02*
X10656905Y-11984190D01*
X10656905Y-11984190D02*
X10656905Y-12012762D01*
X10656905Y-12012762D02*
X10647381Y-12050857D01*
X10647381Y-12050857D02*
X10637857Y-12069905D01*
X10637857Y-12069905D02*
X10618810Y-12088952D01*
X10618810Y-12088952D02*
X10590238Y-12098476D01*
X10590238Y-12098476D02*
X10542619Y-12098476D01*
X10742619Y-12098476D02*
X10742619Y-11965143D01*
X10742619Y-12003238D02*
X10752143Y-11984190D01*
X10752143Y-11984190D02*
X10761667Y-11974667D01*
X10761667Y-11974667D02*
X10780714Y-11965143D01*
X10780714Y-11965143D02*
X10799762Y-11965143D01*
X10866429Y-12098476D02*
X10866429Y-11965143D01*
X10866429Y-11898476D02*
X10856905Y-11908000D01*
X10856905Y-11908000D02*
X10866429Y-11917524D01*
X10866429Y-11917524D02*
X10875952Y-11908000D01*
X10875952Y-11908000D02*
X10866429Y-11898476D01*
X10866429Y-11898476D02*
X10866429Y-11917524D01*
X10990238Y-12098476D02*
X10971190Y-12088952D01*
X10971190Y-12088952D02*
X10961667Y-12069905D01*
X10961667Y-12069905D02*
X10961667Y-11898476D01*
X11095000Y-12098476D02*
X11075952Y-12088952D01*
X11075952Y-12088952D02*
X11066429Y-12069905D01*
X11066429Y-12069905D02*
X11066429Y-11898476D01*
X11291190Y-12098476D02*
X11291190Y-11898476D01*
X11291190Y-11898476D02*
X11357857Y-12041333D01*
X11357857Y-12041333D02*
X11424524Y-11898476D01*
X11424524Y-11898476D02*
X11424524Y-12098476D01*
X11605476Y-12098476D02*
X11605476Y-11993714D01*
X11605476Y-11993714D02*
X11595952Y-11974667D01*
X11595952Y-11974667D02*
X11576905Y-11965143D01*
X11576905Y-11965143D02*
X11538809Y-11965143D01*
X11538809Y-11965143D02*
X11519762Y-11974667D01*
X11605476Y-12088952D02*
X11586428Y-12098476D01*
X11586428Y-12098476D02*
X11538809Y-12098476D01*
X11538809Y-12098476D02*
X11519762Y-12088952D01*
X11519762Y-12088952D02*
X11510238Y-12069905D01*
X11510238Y-12069905D02*
X11510238Y-12050857D01*
X11510238Y-12050857D02*
X11519762Y-12031809D01*
X11519762Y-12031809D02*
X11538809Y-12022286D01*
X11538809Y-12022286D02*
X11586428Y-12022286D01*
X11586428Y-12022286D02*
X11605476Y-12012762D01*
X11700714Y-11965143D02*
X11700714Y-12165143D01*
X11700714Y-11974667D02*
X11719762Y-11965143D01*
X11719762Y-11965143D02*
X11757857Y-11965143D01*
X11757857Y-11965143D02*
X11776905Y-11974667D01*
X11776905Y-11974667D02*
X11786428Y-11984190D01*
X11786428Y-11984190D02*
X11795952Y-12003238D01*
X11795952Y-12003238D02*
X11795952Y-12060381D01*
X11795952Y-12060381D02*
X11786428Y-12079428D01*
X11786428Y-12079428D02*
X11776905Y-12088952D01*
X11776905Y-12088952D02*
X11757857Y-12098476D01*
X11757857Y-12098476D02*
X11719762Y-12098476D01*
X11719762Y-12098476D02*
X11700714Y-12088952D01*
X11881667Y-12079428D02*
X11891190Y-12088952D01*
X11891190Y-12088952D02*
X11881667Y-12098476D01*
X11881667Y-12098476D02*
X11872143Y-12088952D01*
X11872143Y-12088952D02*
X11881667Y-12079428D01*
X11881667Y-12079428D02*
X11881667Y-12098476D01*
X11881667Y-11974667D02*
X11891190Y-11984190D01*
X11891190Y-11984190D02*
X11881667Y-11993714D01*
X11881667Y-11993714D02*
X11872143Y-11984190D01*
X11872143Y-11984190D02*
X11881667Y-11974667D01*
X11881667Y-11974667D02*
X11881667Y-11993714D01*
D12*
X10275000Y-12435000D02*
X10295000Y-12455000D01*
X10295000Y-12435000D02*
X10275000Y-12455000D01*
D11*
X10580714Y-12318476D02*
X10599762Y-12318476D01*
X10599762Y-12318476D02*
X10618810Y-12328000D01*
X10618810Y-12328000D02*
X10628333Y-12337524D01*
X10628333Y-12337524D02*
X10637857Y-12356571D01*
X10637857Y-12356571D02*
X10647381Y-12394667D01*
X10647381Y-12394667D02*
X10647381Y-12442286D01*
X10647381Y-12442286D02*
X10637857Y-12480381D01*
X10637857Y-12480381D02*
X10628333Y-12499428D01*
X10628333Y-12499428D02*
X10618810Y-12508952D01*
X10618810Y-12508952D02*
X10599762Y-12518476D01*
X10599762Y-12518476D02*
X10580714Y-12518476D01*
X10580714Y-12518476D02*
X10561667Y-12508952D01*
X10561667Y-12508952D02*
X10552143Y-12499428D01*
X10552143Y-12499428D02*
X10542619Y-12480381D01*
X10542619Y-12480381D02*
X10533095Y-12442286D01*
X10533095Y-12442286D02*
X10533095Y-12394667D01*
X10533095Y-12394667D02*
X10542619Y-12356571D01*
X10542619Y-12356571D02*
X10552143Y-12337524D01*
X10552143Y-12337524D02*
X10561667Y-12328000D01*
X10561667Y-12328000D02*
X10580714Y-12318476D01*
X10733095Y-12499428D02*
X10742619Y-12508952D01*
X10742619Y-12508952D02*
X10733095Y-12518476D01*
X10733095Y-12518476D02*
X10723571Y-12508952D01*
X10723571Y-12508952D02*
X10733095Y-12499428D01*
X10733095Y-12499428D02*
X10733095Y-12518476D01*
X10818810Y-12337524D02*
X10828333Y-12328000D01*
X10828333Y-12328000D02*
X10847381Y-12318476D01*
X10847381Y-12318476D02*
X10895000Y-12318476D01*
X10895000Y-12318476D02*
X10914048Y-12328000D01*
X10914048Y-12328000D02*
X10923571Y-12337524D01*
X10923571Y-12337524D02*
X10933095Y-12356571D01*
X10933095Y-12356571D02*
X10933095Y-12375619D01*
X10933095Y-12375619D02*
X10923571Y-12404190D01*
X10923571Y-12404190D02*
X10809286Y-12518476D01*
X10809286Y-12518476D02*
X10933095Y-12518476D01*
X11056905Y-12318476D02*
X11075952Y-12318476D01*
X11075952Y-12318476D02*
X11095000Y-12328000D01*
X11095000Y-12328000D02*
X11104524Y-12337524D01*
X11104524Y-12337524D02*
X11114048Y-12356571D01*
X11114048Y-12356571D02*
X11123571Y-12394667D01*
X11123571Y-12394667D02*
X11123571Y-12442286D01*
X11123571Y-12442286D02*
X11114048Y-12480381D01*
X11114048Y-12480381D02*
X11104524Y-12499428D01*
X11104524Y-12499428D02*
X11095000Y-12508952D01*
X11095000Y-12508952D02*
X11075952Y-12518476D01*
X11075952Y-12518476D02*
X11056905Y-12518476D01*
X11056905Y-12518476D02*
X11037857Y-12508952D01*
X11037857Y-12508952D02*
X11028333Y-12499428D01*
X11028333Y-12499428D02*
X11018810Y-12480381D01*
X11018810Y-12480381D02*
X11009286Y-12442286D01*
X11009286Y-12442286D02*
X11009286Y-12394667D01*
X11009286Y-12394667D02*
X11018810Y-12356571D01*
X11018810Y-12356571D02*
X11028333Y-12337524D01*
X11028333Y-12337524D02*
X11037857Y-12328000D01*
X11037857Y-12328000D02*
X11056905Y-12318476D01*
X11247381Y-12318476D02*
X11266429Y-12318476D01*
X11266429Y-12318476D02*
X11285476Y-12328000D01*
X11285476Y-12328000D02*
X11295000Y-12337524D01*
X11295000Y-12337524D02*
X11304524Y-12356571D01*
X11304524Y-12356571D02*
X11314048Y-12394667D01*
X11314048Y-12394667D02*
X11314048Y-12442286D01*
X11314048Y-12442286D02*
X11304524Y-12480381D01*
X11304524Y-12480381D02*
X11295000Y-12499428D01*
X11295000Y-12499428D02*
X11285476Y-12508952D01*
X11285476Y-12508952D02*
X11266429Y-12518476D01*
X11266429Y-12518476D02*
X11247381Y-12518476D01*
X11247381Y-12518476D02*
X11228333Y-12508952D01*
X11228333Y-12508952D02*
X11218809Y-12499428D01*
X11218809Y-12499428D02*
X11209286Y-12480381D01*
X11209286Y-12480381D02*
X11199762Y-12442286D01*
X11199762Y-12442286D02*
X11199762Y-12394667D01*
X11199762Y-12394667D02*
X11209286Y-12356571D01*
X11209286Y-12356571D02*
X11218809Y-12337524D01*
X11218809Y-12337524D02*
X11228333Y-12328000D01*
X11228333Y-12328000D02*
X11247381Y-12318476D01*
X11399762Y-12518476D02*
X11399762Y-12385143D01*
X11399762Y-12404190D02*
X11409286Y-12394667D01*
X11409286Y-12394667D02*
X11428333Y-12385143D01*
X11428333Y-12385143D02*
X11456905Y-12385143D01*
X11456905Y-12385143D02*
X11475952Y-12394667D01*
X11475952Y-12394667D02*
X11485476Y-12413714D01*
X11485476Y-12413714D02*
X11485476Y-12518476D01*
X11485476Y-12413714D02*
X11495000Y-12394667D01*
X11495000Y-12394667D02*
X11514048Y-12385143D01*
X11514048Y-12385143D02*
X11542619Y-12385143D01*
X11542619Y-12385143D02*
X11561667Y-12394667D01*
X11561667Y-12394667D02*
X11571190Y-12413714D01*
X11571190Y-12413714D02*
X11571190Y-12518476D01*
X11666429Y-12518476D02*
X11666429Y-12385143D01*
X11666429Y-12404190D02*
X11675952Y-12394667D01*
X11675952Y-12394667D02*
X11695000Y-12385143D01*
X11695000Y-12385143D02*
X11723571Y-12385143D01*
X11723571Y-12385143D02*
X11742619Y-12394667D01*
X11742619Y-12394667D02*
X11752143Y-12413714D01*
X11752143Y-12413714D02*
X11752143Y-12518476D01*
X11752143Y-12413714D02*
X11761667Y-12394667D01*
X11761667Y-12394667D02*
X11780714Y-12385143D01*
X11780714Y-12385143D02*
X11809286Y-12385143D01*
X11809286Y-12385143D02*
X11828333Y-12394667D01*
X11828333Y-12394667D02*
X11837857Y-12413714D01*
X11837857Y-12413714D02*
X11837857Y-12518476D01*
X12195952Y-12308952D02*
X12024524Y-12566095D01*
X12420714Y-12318476D02*
X12439762Y-12318476D01*
X12439762Y-12318476D02*
X12458810Y-12328000D01*
X12458810Y-12328000D02*
X12468333Y-12337524D01*
X12468333Y-12337524D02*
X12477857Y-12356571D01*
X12477857Y-12356571D02*
X12487381Y-12394667D01*
X12487381Y-12394667D02*
X12487381Y-12442286D01*
X12487381Y-12442286D02*
X12477857Y-12480381D01*
X12477857Y-12480381D02*
X12468333Y-12499428D01*
X12468333Y-12499428D02*
X12458810Y-12508952D01*
X12458810Y-12508952D02*
X12439762Y-12518476D01*
X12439762Y-12518476D02*
X12420714Y-12518476D01*
X12420714Y-12518476D02*
X12401667Y-12508952D01*
X12401667Y-12508952D02*
X12392143Y-12499428D01*
X12392143Y-12499428D02*
X12382619Y-12480381D01*
X12382619Y-12480381D02*
X12373095Y-12442286D01*
X12373095Y-12442286D02*
X12373095Y-12394667D01*
X12373095Y-12394667D02*
X12382619Y-12356571D01*
X12382619Y-12356571D02*
X12392143Y-12337524D01*
X12392143Y-12337524D02*
X12401667Y-12328000D01*
X12401667Y-12328000D02*
X12420714Y-12318476D01*
X12573095Y-12499428D02*
X12582619Y-12508952D01*
X12582619Y-12508952D02*
X12573095Y-12518476D01*
X12573095Y-12518476D02*
X12563571Y-12508952D01*
X12563571Y-12508952D02*
X12573095Y-12499428D01*
X12573095Y-12499428D02*
X12573095Y-12518476D01*
X12706429Y-12318476D02*
X12725476Y-12318476D01*
X12725476Y-12318476D02*
X12744524Y-12328000D01*
X12744524Y-12328000D02*
X12754048Y-12337524D01*
X12754048Y-12337524D02*
X12763571Y-12356571D01*
X12763571Y-12356571D02*
X12773095Y-12394667D01*
X12773095Y-12394667D02*
X12773095Y-12442286D01*
X12773095Y-12442286D02*
X12763571Y-12480381D01*
X12763571Y-12480381D02*
X12754048Y-12499428D01*
X12754048Y-12499428D02*
X12744524Y-12508952D01*
X12744524Y-12508952D02*
X12725476Y-12518476D01*
X12725476Y-12518476D02*
X12706429Y-12518476D01*
X12706429Y-12518476D02*
X12687381Y-12508952D01*
X12687381Y-12508952D02*
X12677857Y-12499428D01*
X12677857Y-12499428D02*
X12668333Y-12480381D01*
X12668333Y-12480381D02*
X12658810Y-12442286D01*
X12658810Y-12442286D02*
X12658810Y-12394667D01*
X12658810Y-12394667D02*
X12668333Y-12356571D01*
X12668333Y-12356571D02*
X12677857Y-12337524D01*
X12677857Y-12337524D02*
X12687381Y-12328000D01*
X12687381Y-12328000D02*
X12706429Y-12318476D01*
X12896905Y-12318476D02*
X12915952Y-12318476D01*
X12915952Y-12318476D02*
X12935000Y-12328000D01*
X12935000Y-12328000D02*
X12944524Y-12337524D01*
X12944524Y-12337524D02*
X12954048Y-12356571D01*
X12954048Y-12356571D02*
X12963571Y-12394667D01*
X12963571Y-12394667D02*
X12963571Y-12442286D01*
X12963571Y-12442286D02*
X12954048Y-12480381D01*
X12954048Y-12480381D02*
X12944524Y-12499428D01*
X12944524Y-12499428D02*
X12935000Y-12508952D01*
X12935000Y-12508952D02*
X12915952Y-12518476D01*
X12915952Y-12518476D02*
X12896905Y-12518476D01*
X12896905Y-12518476D02*
X12877857Y-12508952D01*
X12877857Y-12508952D02*
X12868333Y-12499428D01*
X12868333Y-12499428D02*
X12858810Y-12480381D01*
X12858810Y-12480381D02*
X12849286Y-12442286D01*
X12849286Y-12442286D02*
X12849286Y-12394667D01*
X12849286Y-12394667D02*
X12858810Y-12356571D01*
X12858810Y-12356571D02*
X12868333Y-12337524D01*
X12868333Y-12337524D02*
X12877857Y-12328000D01*
X12877857Y-12328000D02*
X12896905Y-12318476D01*
X13030238Y-12318476D02*
X13163571Y-12318476D01*
X13163571Y-12318476D02*
X13077857Y-12518476D01*
X13249286Y-12518476D02*
X13287381Y-12518476D01*
X13287381Y-12518476D02*
X13306429Y-12508952D01*
X13306429Y-12508952D02*
X13315952Y-12499428D01*
X13315952Y-12499428D02*
X13335000Y-12470857D01*
X13335000Y-12470857D02*
X13344524Y-12432762D01*
X13344524Y-12432762D02*
X13344524Y-12356571D01*
X13344524Y-12356571D02*
X13335000Y-12337524D01*
X13335000Y-12337524D02*
X13325476Y-12328000D01*
X13325476Y-12328000D02*
X13306429Y-12318476D01*
X13306429Y-12318476D02*
X13268333Y-12318476D01*
X13268333Y-12318476D02*
X13249286Y-12328000D01*
X13249286Y-12328000D02*
X13239762Y-12337524D01*
X13239762Y-12337524D02*
X13230238Y-12356571D01*
X13230238Y-12356571D02*
X13230238Y-12404190D01*
X13230238Y-12404190D02*
X13239762Y-12423238D01*
X13239762Y-12423238D02*
X13249286Y-12432762D01*
X13249286Y-12432762D02*
X13268333Y-12442286D01*
X13268333Y-12442286D02*
X13306429Y-12442286D01*
X13306429Y-12442286D02*
X13325476Y-12432762D01*
X13325476Y-12432762D02*
X13335000Y-12423238D01*
X13335000Y-12423238D02*
X13344524Y-12404190D01*
X13420714Y-12318476D02*
X13420714Y-12356571D01*
X13496905Y-12318476D02*
X13496905Y-12356571D01*
X13759762Y-12594667D02*
X13750238Y-12585143D01*
X13750238Y-12585143D02*
X13731191Y-12556571D01*
X13731191Y-12556571D02*
X13721667Y-12537524D01*
X13721667Y-12537524D02*
X13712143Y-12508952D01*
X13712143Y-12508952D02*
X13702619Y-12461333D01*
X13702619Y-12461333D02*
X13702619Y-12423238D01*
X13702619Y-12423238D02*
X13712143Y-12375619D01*
X13712143Y-12375619D02*
X13721667Y-12347048D01*
X13721667Y-12347048D02*
X13731191Y-12328000D01*
X13731191Y-12328000D02*
X13750238Y-12299428D01*
X13750238Y-12299428D02*
X13759762Y-12289905D01*
X13940714Y-12518476D02*
X13826429Y-12518476D01*
X13883571Y-12518476D02*
X13883571Y-12318476D01*
X13883571Y-12318476D02*
X13864524Y-12347048D01*
X13864524Y-12347048D02*
X13845476Y-12366095D01*
X13845476Y-12366095D02*
X13826429Y-12375619D01*
X14121667Y-12318476D02*
X14026429Y-12318476D01*
X14026429Y-12318476D02*
X14016905Y-12413714D01*
X14016905Y-12413714D02*
X14026429Y-12404190D01*
X14026429Y-12404190D02*
X14045476Y-12394667D01*
X14045476Y-12394667D02*
X14093095Y-12394667D01*
X14093095Y-12394667D02*
X14112143Y-12404190D01*
X14112143Y-12404190D02*
X14121667Y-12413714D01*
X14121667Y-12413714D02*
X14131191Y-12432762D01*
X14131191Y-12432762D02*
X14131191Y-12480381D01*
X14131191Y-12480381D02*
X14121667Y-12499428D01*
X14121667Y-12499428D02*
X14112143Y-12508952D01*
X14112143Y-12508952D02*
X14093095Y-12518476D01*
X14093095Y-12518476D02*
X14045476Y-12518476D01*
X14045476Y-12518476D02*
X14026429Y-12508952D01*
X14026429Y-12508952D02*
X14016905Y-12499428D01*
X14302619Y-12385143D02*
X14302619Y-12518476D01*
X14255000Y-12308952D02*
X14207381Y-12451809D01*
X14207381Y-12451809D02*
X14331191Y-12451809D01*
X14527381Y-12518476D02*
X14527381Y-12318476D01*
X14613095Y-12518476D02*
X14613095Y-12413714D01*
X14613095Y-12413714D02*
X14603572Y-12394667D01*
X14603572Y-12394667D02*
X14584524Y-12385143D01*
X14584524Y-12385143D02*
X14555952Y-12385143D01*
X14555952Y-12385143D02*
X14536905Y-12394667D01*
X14536905Y-12394667D02*
X14527381Y-12404190D01*
X14736905Y-12518476D02*
X14717857Y-12508952D01*
X14717857Y-12508952D02*
X14708333Y-12499428D01*
X14708333Y-12499428D02*
X14698810Y-12480381D01*
X14698810Y-12480381D02*
X14698810Y-12423238D01*
X14698810Y-12423238D02*
X14708333Y-12404190D01*
X14708333Y-12404190D02*
X14717857Y-12394667D01*
X14717857Y-12394667D02*
X14736905Y-12385143D01*
X14736905Y-12385143D02*
X14765476Y-12385143D01*
X14765476Y-12385143D02*
X14784524Y-12394667D01*
X14784524Y-12394667D02*
X14794048Y-12404190D01*
X14794048Y-12404190D02*
X14803572Y-12423238D01*
X14803572Y-12423238D02*
X14803572Y-12480381D01*
X14803572Y-12480381D02*
X14794048Y-12499428D01*
X14794048Y-12499428D02*
X14784524Y-12508952D01*
X14784524Y-12508952D02*
X14765476Y-12518476D01*
X14765476Y-12518476D02*
X14736905Y-12518476D01*
X14917857Y-12518476D02*
X14898810Y-12508952D01*
X14898810Y-12508952D02*
X14889286Y-12489905D01*
X14889286Y-12489905D02*
X14889286Y-12318476D01*
X15070238Y-12508952D02*
X15051191Y-12518476D01*
X15051191Y-12518476D02*
X15013095Y-12518476D01*
X15013095Y-12518476D02*
X14994048Y-12508952D01*
X14994048Y-12508952D02*
X14984524Y-12489905D01*
X14984524Y-12489905D02*
X14984524Y-12413714D01*
X14984524Y-12413714D02*
X14994048Y-12394667D01*
X14994048Y-12394667D02*
X15013095Y-12385143D01*
X15013095Y-12385143D02*
X15051191Y-12385143D01*
X15051191Y-12385143D02*
X15070238Y-12394667D01*
X15070238Y-12394667D02*
X15079762Y-12413714D01*
X15079762Y-12413714D02*
X15079762Y-12432762D01*
X15079762Y-12432762D02*
X14984524Y-12451809D01*
X15155953Y-12508952D02*
X15175000Y-12518476D01*
X15175000Y-12518476D02*
X15213095Y-12518476D01*
X15213095Y-12518476D02*
X15232143Y-12508952D01*
X15232143Y-12508952D02*
X15241667Y-12489905D01*
X15241667Y-12489905D02*
X15241667Y-12480381D01*
X15241667Y-12480381D02*
X15232143Y-12461333D01*
X15232143Y-12461333D02*
X15213095Y-12451809D01*
X15213095Y-12451809D02*
X15184524Y-12451809D01*
X15184524Y-12451809D02*
X15165476Y-12442286D01*
X15165476Y-12442286D02*
X15155953Y-12423238D01*
X15155953Y-12423238D02*
X15155953Y-12413714D01*
X15155953Y-12413714D02*
X15165476Y-12394667D01*
X15165476Y-12394667D02*
X15184524Y-12385143D01*
X15184524Y-12385143D02*
X15213095Y-12385143D01*
X15213095Y-12385143D02*
X15232143Y-12394667D01*
X15308334Y-12594667D02*
X15317857Y-12585143D01*
X15317857Y-12585143D02*
X15336905Y-12556571D01*
X15336905Y-12556571D02*
X15346429Y-12537524D01*
X15346429Y-12537524D02*
X15355953Y-12508952D01*
X15355953Y-12508952D02*
X15365476Y-12461333D01*
X15365476Y-12461333D02*
X15365476Y-12423238D01*
X15365476Y-12423238D02*
X15355953Y-12375619D01*
X15355953Y-12375619D02*
X15346429Y-12347048D01*
X15346429Y-12347048D02*
X15336905Y-12328000D01*
X15336905Y-12328000D02*
X15317857Y-12299428D01*
X15317857Y-12299428D02*
X15308334Y-12289905D01*
D13*
X10295000Y-12709000D02*
G75*
G03*
X10295000Y-12709000I-15000J0D01*
G01*
D11*
X10580714Y-12582476D02*
X10599762Y-12582476D01*
X10599762Y-12582476D02*
X10618810Y-12592000D01*
X10618810Y-12592000D02*
X10628333Y-12601524D01*
X10628333Y-12601524D02*
X10637857Y-12620571D01*
X10637857Y-12620571D02*
X10647381Y-12658667D01*
X10647381Y-12658667D02*
X10647381Y-12706286D01*
X10647381Y-12706286D02*
X10637857Y-12744381D01*
X10637857Y-12744381D02*
X10628333Y-12763428D01*
X10628333Y-12763428D02*
X10618810Y-12772952D01*
X10618810Y-12772952D02*
X10599762Y-12782476D01*
X10599762Y-12782476D02*
X10580714Y-12782476D01*
X10580714Y-12782476D02*
X10561667Y-12772952D01*
X10561667Y-12772952D02*
X10552143Y-12763428D01*
X10552143Y-12763428D02*
X10542619Y-12744381D01*
X10542619Y-12744381D02*
X10533095Y-12706286D01*
X10533095Y-12706286D02*
X10533095Y-12658667D01*
X10533095Y-12658667D02*
X10542619Y-12620571D01*
X10542619Y-12620571D02*
X10552143Y-12601524D01*
X10552143Y-12601524D02*
X10561667Y-12592000D01*
X10561667Y-12592000D02*
X10580714Y-12582476D01*
X10733095Y-12763428D02*
X10742619Y-12772952D01*
X10742619Y-12772952D02*
X10733095Y-12782476D01*
X10733095Y-12782476D02*
X10723571Y-12772952D01*
X10723571Y-12772952D02*
X10733095Y-12763428D01*
X10733095Y-12763428D02*
X10733095Y-12782476D01*
X10809286Y-12582476D02*
X10933095Y-12582476D01*
X10933095Y-12582476D02*
X10866429Y-12658667D01*
X10866429Y-12658667D02*
X10895000Y-12658667D01*
X10895000Y-12658667D02*
X10914048Y-12668190D01*
X10914048Y-12668190D02*
X10923571Y-12677714D01*
X10923571Y-12677714D02*
X10933095Y-12696762D01*
X10933095Y-12696762D02*
X10933095Y-12744381D01*
X10933095Y-12744381D02*
X10923571Y-12763428D01*
X10923571Y-12763428D02*
X10914048Y-12772952D01*
X10914048Y-12772952D02*
X10895000Y-12782476D01*
X10895000Y-12782476D02*
X10837857Y-12782476D01*
X10837857Y-12782476D02*
X10818810Y-12772952D01*
X10818810Y-12772952D02*
X10809286Y-12763428D01*
X11056905Y-12582476D02*
X11075952Y-12582476D01*
X11075952Y-12582476D02*
X11095000Y-12592000D01*
X11095000Y-12592000D02*
X11104524Y-12601524D01*
X11104524Y-12601524D02*
X11114048Y-12620571D01*
X11114048Y-12620571D02*
X11123571Y-12658667D01*
X11123571Y-12658667D02*
X11123571Y-12706286D01*
X11123571Y-12706286D02*
X11114048Y-12744381D01*
X11114048Y-12744381D02*
X11104524Y-12763428D01*
X11104524Y-12763428D02*
X11095000Y-12772952D01*
X11095000Y-12772952D02*
X11075952Y-12782476D01*
X11075952Y-12782476D02*
X11056905Y-12782476D01*
X11056905Y-12782476D02*
X11037857Y-12772952D01*
X11037857Y-12772952D02*
X11028333Y-12763428D01*
X11028333Y-12763428D02*
X11018810Y-12744381D01*
X11018810Y-12744381D02*
X11009286Y-12706286D01*
X11009286Y-12706286D02*
X11009286Y-12658667D01*
X11009286Y-12658667D02*
X11018810Y-12620571D01*
X11018810Y-12620571D02*
X11028333Y-12601524D01*
X11028333Y-12601524D02*
X11037857Y-12592000D01*
X11037857Y-12592000D02*
X11056905Y-12582476D01*
X11247381Y-12582476D02*
X11266429Y-12582476D01*
X11266429Y-12582476D02*
X11285476Y-12592000D01*
X11285476Y-12592000D02*
X11295000Y-12601524D01*
X11295000Y-12601524D02*
X11304524Y-12620571D01*
X11304524Y-12620571D02*
X11314048Y-12658667D01*
X11314048Y-12658667D02*
X11314048Y-12706286D01*
X11314048Y-12706286D02*
X11304524Y-12744381D01*
X11304524Y-12744381D02*
X11295000Y-12763428D01*
X11295000Y-12763428D02*
X11285476Y-12772952D01*
X11285476Y-12772952D02*
X11266429Y-12782476D01*
X11266429Y-12782476D02*
X11247381Y-12782476D01*
X11247381Y-12782476D02*
X11228333Y-12772952D01*
X11228333Y-12772952D02*
X11218809Y-12763428D01*
X11218809Y-12763428D02*
X11209286Y-12744381D01*
X11209286Y-12744381D02*
X11199762Y-12706286D01*
X11199762Y-12706286D02*
X11199762Y-12658667D01*
X11199762Y-12658667D02*
X11209286Y-12620571D01*
X11209286Y-12620571D02*
X11218809Y-12601524D01*
X11218809Y-12601524D02*
X11228333Y-12592000D01*
X11228333Y-12592000D02*
X11247381Y-12582476D01*
X11399762Y-12782476D02*
X11399762Y-12649143D01*
X11399762Y-12668190D02*
X11409286Y-12658667D01*
X11409286Y-12658667D02*
X11428333Y-12649143D01*
X11428333Y-12649143D02*
X11456905Y-12649143D01*
X11456905Y-12649143D02*
X11475952Y-12658667D01*
X11475952Y-12658667D02*
X11485476Y-12677714D01*
X11485476Y-12677714D02*
X11485476Y-12782476D01*
X11485476Y-12677714D02*
X11495000Y-12658667D01*
X11495000Y-12658667D02*
X11514048Y-12649143D01*
X11514048Y-12649143D02*
X11542619Y-12649143D01*
X11542619Y-12649143D02*
X11561667Y-12658667D01*
X11561667Y-12658667D02*
X11571190Y-12677714D01*
X11571190Y-12677714D02*
X11571190Y-12782476D01*
X11666429Y-12782476D02*
X11666429Y-12649143D01*
X11666429Y-12668190D02*
X11675952Y-12658667D01*
X11675952Y-12658667D02*
X11695000Y-12649143D01*
X11695000Y-12649143D02*
X11723571Y-12649143D01*
X11723571Y-12649143D02*
X11742619Y-12658667D01*
X11742619Y-12658667D02*
X11752143Y-12677714D01*
X11752143Y-12677714D02*
X11752143Y-12782476D01*
X11752143Y-12677714D02*
X11761667Y-12658667D01*
X11761667Y-12658667D02*
X11780714Y-12649143D01*
X11780714Y-12649143D02*
X11809286Y-12649143D01*
X11809286Y-12649143D02*
X11828333Y-12658667D01*
X11828333Y-12658667D02*
X11837857Y-12677714D01*
X11837857Y-12677714D02*
X11837857Y-12782476D01*
X12195952Y-12572952D02*
X12024524Y-12830095D01*
X12420714Y-12582476D02*
X12439762Y-12582476D01*
X12439762Y-12582476D02*
X12458810Y-12592000D01*
X12458810Y-12592000D02*
X12468333Y-12601524D01*
X12468333Y-12601524D02*
X12477857Y-12620571D01*
X12477857Y-12620571D02*
X12487381Y-12658667D01*
X12487381Y-12658667D02*
X12487381Y-12706286D01*
X12487381Y-12706286D02*
X12477857Y-12744381D01*
X12477857Y-12744381D02*
X12468333Y-12763428D01*
X12468333Y-12763428D02*
X12458810Y-12772952D01*
X12458810Y-12772952D02*
X12439762Y-12782476D01*
X12439762Y-12782476D02*
X12420714Y-12782476D01*
X12420714Y-12782476D02*
X12401667Y-12772952D01*
X12401667Y-12772952D02*
X12392143Y-12763428D01*
X12392143Y-12763428D02*
X12382619Y-12744381D01*
X12382619Y-12744381D02*
X12373095Y-12706286D01*
X12373095Y-12706286D02*
X12373095Y-12658667D01*
X12373095Y-12658667D02*
X12382619Y-12620571D01*
X12382619Y-12620571D02*
X12392143Y-12601524D01*
X12392143Y-12601524D02*
X12401667Y-12592000D01*
X12401667Y-12592000D02*
X12420714Y-12582476D01*
X12573095Y-12763428D02*
X12582619Y-12772952D01*
X12582619Y-12772952D02*
X12573095Y-12782476D01*
X12573095Y-12782476D02*
X12563571Y-12772952D01*
X12563571Y-12772952D02*
X12573095Y-12763428D01*
X12573095Y-12763428D02*
X12573095Y-12782476D01*
X12706429Y-12582476D02*
X12725476Y-12582476D01*
X12725476Y-12582476D02*
X12744524Y-12592000D01*
X12744524Y-12592000D02*
X12754048Y-12601524D01*
X12754048Y-12601524D02*
X12763571Y-12620571D01*
X12763571Y-12620571D02*
X12773095Y-12658667D01*
X12773095Y-12658667D02*
X12773095Y-12706286D01*
X12773095Y-12706286D02*
X12763571Y-12744381D01*
X12763571Y-12744381D02*
X12754048Y-12763428D01*
X12754048Y-12763428D02*
X12744524Y-12772952D01*
X12744524Y-12772952D02*
X12725476Y-12782476D01*
X12725476Y-12782476D02*
X12706429Y-12782476D01*
X12706429Y-12782476D02*
X12687381Y-12772952D01*
X12687381Y-12772952D02*
X12677857Y-12763428D01*
X12677857Y-12763428D02*
X12668333Y-12744381D01*
X12668333Y-12744381D02*
X12658810Y-12706286D01*
X12658810Y-12706286D02*
X12658810Y-12658667D01*
X12658810Y-12658667D02*
X12668333Y-12620571D01*
X12668333Y-12620571D02*
X12677857Y-12601524D01*
X12677857Y-12601524D02*
X12687381Y-12592000D01*
X12687381Y-12592000D02*
X12706429Y-12582476D01*
X12963571Y-12782476D02*
X12849286Y-12782476D01*
X12906429Y-12782476D02*
X12906429Y-12582476D01*
X12906429Y-12582476D02*
X12887381Y-12611048D01*
X12887381Y-12611048D02*
X12868333Y-12630095D01*
X12868333Y-12630095D02*
X12849286Y-12639619D01*
X13154048Y-12782476D02*
X13039762Y-12782476D01*
X13096905Y-12782476D02*
X13096905Y-12582476D01*
X13096905Y-12582476D02*
X13077857Y-12611048D01*
X13077857Y-12611048D02*
X13058810Y-12630095D01*
X13058810Y-12630095D02*
X13039762Y-12639619D01*
X13268333Y-12668190D02*
X13249286Y-12658667D01*
X13249286Y-12658667D02*
X13239762Y-12649143D01*
X13239762Y-12649143D02*
X13230238Y-12630095D01*
X13230238Y-12630095D02*
X13230238Y-12620571D01*
X13230238Y-12620571D02*
X13239762Y-12601524D01*
X13239762Y-12601524D02*
X13249286Y-12592000D01*
X13249286Y-12592000D02*
X13268333Y-12582476D01*
X13268333Y-12582476D02*
X13306429Y-12582476D01*
X13306429Y-12582476D02*
X13325476Y-12592000D01*
X13325476Y-12592000D02*
X13335000Y-12601524D01*
X13335000Y-12601524D02*
X13344524Y-12620571D01*
X13344524Y-12620571D02*
X13344524Y-12630095D01*
X13344524Y-12630095D02*
X13335000Y-12649143D01*
X13335000Y-12649143D02*
X13325476Y-12658667D01*
X13325476Y-12658667D02*
X13306429Y-12668190D01*
X13306429Y-12668190D02*
X13268333Y-12668190D01*
X13268333Y-12668190D02*
X13249286Y-12677714D01*
X13249286Y-12677714D02*
X13239762Y-12687238D01*
X13239762Y-12687238D02*
X13230238Y-12706286D01*
X13230238Y-12706286D02*
X13230238Y-12744381D01*
X13230238Y-12744381D02*
X13239762Y-12763428D01*
X13239762Y-12763428D02*
X13249286Y-12772952D01*
X13249286Y-12772952D02*
X13268333Y-12782476D01*
X13268333Y-12782476D02*
X13306429Y-12782476D01*
X13306429Y-12782476D02*
X13325476Y-12772952D01*
X13325476Y-12772952D02*
X13335000Y-12763428D01*
X13335000Y-12763428D02*
X13344524Y-12744381D01*
X13344524Y-12744381D02*
X13344524Y-12706286D01*
X13344524Y-12706286D02*
X13335000Y-12687238D01*
X13335000Y-12687238D02*
X13325476Y-12677714D01*
X13325476Y-12677714D02*
X13306429Y-12668190D01*
X13420714Y-12582476D02*
X13420714Y-12620571D01*
X13496905Y-12582476D02*
X13496905Y-12620571D01*
X13759762Y-12858667D02*
X13750238Y-12849143D01*
X13750238Y-12849143D02*
X13731191Y-12820571D01*
X13731191Y-12820571D02*
X13721667Y-12801524D01*
X13721667Y-12801524D02*
X13712143Y-12772952D01*
X13712143Y-12772952D02*
X13702619Y-12725333D01*
X13702619Y-12725333D02*
X13702619Y-12687238D01*
X13702619Y-12687238D02*
X13712143Y-12639619D01*
X13712143Y-12639619D02*
X13721667Y-12611048D01*
X13721667Y-12611048D02*
X13731191Y-12592000D01*
X13731191Y-12592000D02*
X13750238Y-12563428D01*
X13750238Y-12563428D02*
X13759762Y-12553905D01*
X13816905Y-12582476D02*
X13940714Y-12582476D01*
X13940714Y-12582476D02*
X13874048Y-12658667D01*
X13874048Y-12658667D02*
X13902619Y-12658667D01*
X13902619Y-12658667D02*
X13921667Y-12668190D01*
X13921667Y-12668190D02*
X13931191Y-12677714D01*
X13931191Y-12677714D02*
X13940714Y-12696762D01*
X13940714Y-12696762D02*
X13940714Y-12744381D01*
X13940714Y-12744381D02*
X13931191Y-12763428D01*
X13931191Y-12763428D02*
X13921667Y-12772952D01*
X13921667Y-12772952D02*
X13902619Y-12782476D01*
X13902619Y-12782476D02*
X13845476Y-12782476D01*
X13845476Y-12782476D02*
X13826429Y-12772952D01*
X13826429Y-12772952D02*
X13816905Y-12763428D01*
X14112143Y-12582476D02*
X14074048Y-12582476D01*
X14074048Y-12582476D02*
X14055000Y-12592000D01*
X14055000Y-12592000D02*
X14045476Y-12601524D01*
X14045476Y-12601524D02*
X14026429Y-12630095D01*
X14026429Y-12630095D02*
X14016905Y-12668190D01*
X14016905Y-12668190D02*
X14016905Y-12744381D01*
X14016905Y-12744381D02*
X14026429Y-12763428D01*
X14026429Y-12763428D02*
X14035952Y-12772952D01*
X14035952Y-12772952D02*
X14055000Y-12782476D01*
X14055000Y-12782476D02*
X14093095Y-12782476D01*
X14093095Y-12782476D02*
X14112143Y-12772952D01*
X14112143Y-12772952D02*
X14121667Y-12763428D01*
X14121667Y-12763428D02*
X14131191Y-12744381D01*
X14131191Y-12744381D02*
X14131191Y-12696762D01*
X14131191Y-12696762D02*
X14121667Y-12677714D01*
X14121667Y-12677714D02*
X14112143Y-12668190D01*
X14112143Y-12668190D02*
X14093095Y-12658667D01*
X14093095Y-12658667D02*
X14055000Y-12658667D01*
X14055000Y-12658667D02*
X14035952Y-12668190D01*
X14035952Y-12668190D02*
X14026429Y-12677714D01*
X14026429Y-12677714D02*
X14016905Y-12696762D01*
X14336905Y-12782476D02*
X14336905Y-12582476D01*
X14422619Y-12782476D02*
X14422619Y-12677714D01*
X14422619Y-12677714D02*
X14413095Y-12658667D01*
X14413095Y-12658667D02*
X14394048Y-12649143D01*
X14394048Y-12649143D02*
X14365476Y-12649143D01*
X14365476Y-12649143D02*
X14346429Y-12658667D01*
X14346429Y-12658667D02*
X14336905Y-12668190D01*
X14546429Y-12782476D02*
X14527381Y-12772952D01*
X14527381Y-12772952D02*
X14517857Y-12763428D01*
X14517857Y-12763428D02*
X14508333Y-12744381D01*
X14508333Y-12744381D02*
X14508333Y-12687238D01*
X14508333Y-12687238D02*
X14517857Y-12668190D01*
X14517857Y-12668190D02*
X14527381Y-12658667D01*
X14527381Y-12658667D02*
X14546429Y-12649143D01*
X14546429Y-12649143D02*
X14575000Y-12649143D01*
X14575000Y-12649143D02*
X14594048Y-12658667D01*
X14594048Y-12658667D02*
X14603572Y-12668190D01*
X14603572Y-12668190D02*
X14613095Y-12687238D01*
X14613095Y-12687238D02*
X14613095Y-12744381D01*
X14613095Y-12744381D02*
X14603572Y-12763428D01*
X14603572Y-12763428D02*
X14594048Y-12772952D01*
X14594048Y-12772952D02*
X14575000Y-12782476D01*
X14575000Y-12782476D02*
X14546429Y-12782476D01*
X14727381Y-12782476D02*
X14708333Y-12772952D01*
X14708333Y-12772952D02*
X14698810Y-12753905D01*
X14698810Y-12753905D02*
X14698810Y-12582476D01*
X14879762Y-12772952D02*
X14860714Y-12782476D01*
X14860714Y-12782476D02*
X14822619Y-12782476D01*
X14822619Y-12782476D02*
X14803572Y-12772952D01*
X14803572Y-12772952D02*
X14794048Y-12753905D01*
X14794048Y-12753905D02*
X14794048Y-12677714D01*
X14794048Y-12677714D02*
X14803572Y-12658667D01*
X14803572Y-12658667D02*
X14822619Y-12649143D01*
X14822619Y-12649143D02*
X14860714Y-12649143D01*
X14860714Y-12649143D02*
X14879762Y-12658667D01*
X14879762Y-12658667D02*
X14889286Y-12677714D01*
X14889286Y-12677714D02*
X14889286Y-12696762D01*
X14889286Y-12696762D02*
X14794048Y-12715809D01*
X14965476Y-12772952D02*
X14984524Y-12782476D01*
X14984524Y-12782476D02*
X15022619Y-12782476D01*
X15022619Y-12782476D02*
X15041667Y-12772952D01*
X15041667Y-12772952D02*
X15051191Y-12753905D01*
X15051191Y-12753905D02*
X15051191Y-12744381D01*
X15051191Y-12744381D02*
X15041667Y-12725333D01*
X15041667Y-12725333D02*
X15022619Y-12715809D01*
X15022619Y-12715809D02*
X14994048Y-12715809D01*
X14994048Y-12715809D02*
X14975000Y-12706286D01*
X14975000Y-12706286D02*
X14965476Y-12687238D01*
X14965476Y-12687238D02*
X14965476Y-12677714D01*
X14965476Y-12677714D02*
X14975000Y-12658667D01*
X14975000Y-12658667D02*
X14994048Y-12649143D01*
X14994048Y-12649143D02*
X15022619Y-12649143D01*
X15022619Y-12649143D02*
X15041667Y-12658667D01*
X15117857Y-12858667D02*
X15127381Y-12849143D01*
X15127381Y-12849143D02*
X15146429Y-12820571D01*
X15146429Y-12820571D02*
X15155953Y-12801524D01*
X15155953Y-12801524D02*
X15165476Y-12772952D01*
X15165476Y-12772952D02*
X15175000Y-12725333D01*
X15175000Y-12725333D02*
X15175000Y-12687238D01*
X15175000Y-12687238D02*
X15165476Y-12639619D01*
X15165476Y-12639619D02*
X15155953Y-12611048D01*
X15155953Y-12611048D02*
X15146429Y-12592000D01*
X15146429Y-12592000D02*
X15127381Y-12563428D01*
X15127381Y-12563428D02*
X15117857Y-12553905D01*
D14*
X10275000Y-12953000D02*
X10275000Y-12993000D01*
X10255000Y-12973000D02*
X10295000Y-12973000D01*
D11*
X10580714Y-12846476D02*
X10599762Y-12846476D01*
X10599762Y-12846476D02*
X10618810Y-12856000D01*
X10618810Y-12856000D02*
X10628333Y-12865524D01*
X10628333Y-12865524D02*
X10637857Y-12884571D01*
X10637857Y-12884571D02*
X10647381Y-12922667D01*
X10647381Y-12922667D02*
X10647381Y-12970286D01*
X10647381Y-12970286D02*
X10637857Y-13008381D01*
X10637857Y-13008381D02*
X10628333Y-13027428D01*
X10628333Y-13027428D02*
X10618810Y-13036952D01*
X10618810Y-13036952D02*
X10599762Y-13046476D01*
X10599762Y-13046476D02*
X10580714Y-13046476D01*
X10580714Y-13046476D02*
X10561667Y-13036952D01*
X10561667Y-13036952D02*
X10552143Y-13027428D01*
X10552143Y-13027428D02*
X10542619Y-13008381D01*
X10542619Y-13008381D02*
X10533095Y-12970286D01*
X10533095Y-12970286D02*
X10533095Y-12922667D01*
X10533095Y-12922667D02*
X10542619Y-12884571D01*
X10542619Y-12884571D02*
X10552143Y-12865524D01*
X10552143Y-12865524D02*
X10561667Y-12856000D01*
X10561667Y-12856000D02*
X10580714Y-12846476D01*
X10733095Y-13027428D02*
X10742619Y-13036952D01*
X10742619Y-13036952D02*
X10733095Y-13046476D01*
X10733095Y-13046476D02*
X10723571Y-13036952D01*
X10723571Y-13036952D02*
X10733095Y-13027428D01*
X10733095Y-13027428D02*
X10733095Y-13046476D01*
X10914048Y-12913143D02*
X10914048Y-13046476D01*
X10866429Y-12836952D02*
X10818810Y-12979809D01*
X10818810Y-12979809D02*
X10942619Y-12979809D01*
X11056905Y-12846476D02*
X11075952Y-12846476D01*
X11075952Y-12846476D02*
X11095000Y-12856000D01*
X11095000Y-12856000D02*
X11104524Y-12865524D01*
X11104524Y-12865524D02*
X11114048Y-12884571D01*
X11114048Y-12884571D02*
X11123571Y-12922667D01*
X11123571Y-12922667D02*
X11123571Y-12970286D01*
X11123571Y-12970286D02*
X11114048Y-13008381D01*
X11114048Y-13008381D02*
X11104524Y-13027428D01*
X11104524Y-13027428D02*
X11095000Y-13036952D01*
X11095000Y-13036952D02*
X11075952Y-13046476D01*
X11075952Y-13046476D02*
X11056905Y-13046476D01*
X11056905Y-13046476D02*
X11037857Y-13036952D01*
X11037857Y-13036952D02*
X11028333Y-13027428D01*
X11028333Y-13027428D02*
X11018810Y-13008381D01*
X11018810Y-13008381D02*
X11009286Y-12970286D01*
X11009286Y-12970286D02*
X11009286Y-12922667D01*
X11009286Y-12922667D02*
X11018810Y-12884571D01*
X11018810Y-12884571D02*
X11028333Y-12865524D01*
X11028333Y-12865524D02*
X11037857Y-12856000D01*
X11037857Y-12856000D02*
X11056905Y-12846476D01*
X11247381Y-12846476D02*
X11266429Y-12846476D01*
X11266429Y-12846476D02*
X11285476Y-12856000D01*
X11285476Y-12856000D02*
X11295000Y-12865524D01*
X11295000Y-12865524D02*
X11304524Y-12884571D01*
X11304524Y-12884571D02*
X11314048Y-12922667D01*
X11314048Y-12922667D02*
X11314048Y-12970286D01*
X11314048Y-12970286D02*
X11304524Y-13008381D01*
X11304524Y-13008381D02*
X11295000Y-13027428D01*
X11295000Y-13027428D02*
X11285476Y-13036952D01*
X11285476Y-13036952D02*
X11266429Y-13046476D01*
X11266429Y-13046476D02*
X11247381Y-13046476D01*
X11247381Y-13046476D02*
X11228333Y-13036952D01*
X11228333Y-13036952D02*
X11218809Y-13027428D01*
X11218809Y-13027428D02*
X11209286Y-13008381D01*
X11209286Y-13008381D02*
X11199762Y-12970286D01*
X11199762Y-12970286D02*
X11199762Y-12922667D01*
X11199762Y-12922667D02*
X11209286Y-12884571D01*
X11209286Y-12884571D02*
X11218809Y-12865524D01*
X11218809Y-12865524D02*
X11228333Y-12856000D01*
X11228333Y-12856000D02*
X11247381Y-12846476D01*
X11399762Y-13046476D02*
X11399762Y-12913143D01*
X11399762Y-12932190D02*
X11409286Y-12922667D01*
X11409286Y-12922667D02*
X11428333Y-12913143D01*
X11428333Y-12913143D02*
X11456905Y-12913143D01*
X11456905Y-12913143D02*
X11475952Y-12922667D01*
X11475952Y-12922667D02*
X11485476Y-12941714D01*
X11485476Y-12941714D02*
X11485476Y-13046476D01*
X11485476Y-12941714D02*
X11495000Y-12922667D01*
X11495000Y-12922667D02*
X11514048Y-12913143D01*
X11514048Y-12913143D02*
X11542619Y-12913143D01*
X11542619Y-12913143D02*
X11561667Y-12922667D01*
X11561667Y-12922667D02*
X11571190Y-12941714D01*
X11571190Y-12941714D02*
X11571190Y-13046476D01*
X11666429Y-13046476D02*
X11666429Y-12913143D01*
X11666429Y-12932190D02*
X11675952Y-12922667D01*
X11675952Y-12922667D02*
X11695000Y-12913143D01*
X11695000Y-12913143D02*
X11723571Y-12913143D01*
X11723571Y-12913143D02*
X11742619Y-12922667D01*
X11742619Y-12922667D02*
X11752143Y-12941714D01*
X11752143Y-12941714D02*
X11752143Y-13046476D01*
X11752143Y-12941714D02*
X11761667Y-12922667D01*
X11761667Y-12922667D02*
X11780714Y-12913143D01*
X11780714Y-12913143D02*
X11809286Y-12913143D01*
X11809286Y-12913143D02*
X11828333Y-12922667D01*
X11828333Y-12922667D02*
X11837857Y-12941714D01*
X11837857Y-12941714D02*
X11837857Y-13046476D01*
X12195952Y-12836952D02*
X12024524Y-13094095D01*
X12420714Y-12846476D02*
X12439762Y-12846476D01*
X12439762Y-12846476D02*
X12458810Y-12856000D01*
X12458810Y-12856000D02*
X12468333Y-12865524D01*
X12468333Y-12865524D02*
X12477857Y-12884571D01*
X12477857Y-12884571D02*
X12487381Y-12922667D01*
X12487381Y-12922667D02*
X12487381Y-12970286D01*
X12487381Y-12970286D02*
X12477857Y-13008381D01*
X12477857Y-13008381D02*
X12468333Y-13027428D01*
X12468333Y-13027428D02*
X12458810Y-13036952D01*
X12458810Y-13036952D02*
X12439762Y-13046476D01*
X12439762Y-13046476D02*
X12420714Y-13046476D01*
X12420714Y-13046476D02*
X12401667Y-13036952D01*
X12401667Y-13036952D02*
X12392143Y-13027428D01*
X12392143Y-13027428D02*
X12382619Y-13008381D01*
X12382619Y-13008381D02*
X12373095Y-12970286D01*
X12373095Y-12970286D02*
X12373095Y-12922667D01*
X12373095Y-12922667D02*
X12382619Y-12884571D01*
X12382619Y-12884571D02*
X12392143Y-12865524D01*
X12392143Y-12865524D02*
X12401667Y-12856000D01*
X12401667Y-12856000D02*
X12420714Y-12846476D01*
X12573095Y-13027428D02*
X12582619Y-13036952D01*
X12582619Y-13036952D02*
X12573095Y-13046476D01*
X12573095Y-13046476D02*
X12563571Y-13036952D01*
X12563571Y-13036952D02*
X12573095Y-13027428D01*
X12573095Y-13027428D02*
X12573095Y-13046476D01*
X12706429Y-12846476D02*
X12725476Y-12846476D01*
X12725476Y-12846476D02*
X12744524Y-12856000D01*
X12744524Y-12856000D02*
X12754048Y-12865524D01*
X12754048Y-12865524D02*
X12763571Y-12884571D01*
X12763571Y-12884571D02*
X12773095Y-12922667D01*
X12773095Y-12922667D02*
X12773095Y-12970286D01*
X12773095Y-12970286D02*
X12763571Y-13008381D01*
X12763571Y-13008381D02*
X12754048Y-13027428D01*
X12754048Y-13027428D02*
X12744524Y-13036952D01*
X12744524Y-13036952D02*
X12725476Y-13046476D01*
X12725476Y-13046476D02*
X12706429Y-13046476D01*
X12706429Y-13046476D02*
X12687381Y-13036952D01*
X12687381Y-13036952D02*
X12677857Y-13027428D01*
X12677857Y-13027428D02*
X12668333Y-13008381D01*
X12668333Y-13008381D02*
X12658810Y-12970286D01*
X12658810Y-12970286D02*
X12658810Y-12922667D01*
X12658810Y-12922667D02*
X12668333Y-12884571D01*
X12668333Y-12884571D02*
X12677857Y-12865524D01*
X12677857Y-12865524D02*
X12687381Y-12856000D01*
X12687381Y-12856000D02*
X12706429Y-12846476D01*
X12963571Y-13046476D02*
X12849286Y-13046476D01*
X12906429Y-13046476D02*
X12906429Y-12846476D01*
X12906429Y-12846476D02*
X12887381Y-12875048D01*
X12887381Y-12875048D02*
X12868333Y-12894095D01*
X12868333Y-12894095D02*
X12849286Y-12903619D01*
X13144524Y-12846476D02*
X13049286Y-12846476D01*
X13049286Y-12846476D02*
X13039762Y-12941714D01*
X13039762Y-12941714D02*
X13049286Y-12932190D01*
X13049286Y-12932190D02*
X13068333Y-12922667D01*
X13068333Y-12922667D02*
X13115952Y-12922667D01*
X13115952Y-12922667D02*
X13135000Y-12932190D01*
X13135000Y-12932190D02*
X13144524Y-12941714D01*
X13144524Y-12941714D02*
X13154048Y-12960762D01*
X13154048Y-12960762D02*
X13154048Y-13008381D01*
X13154048Y-13008381D02*
X13144524Y-13027428D01*
X13144524Y-13027428D02*
X13135000Y-13036952D01*
X13135000Y-13036952D02*
X13115952Y-13046476D01*
X13115952Y-13046476D02*
X13068333Y-13046476D01*
X13068333Y-13046476D02*
X13049286Y-13036952D01*
X13049286Y-13036952D02*
X13039762Y-13027428D01*
X13220714Y-12846476D02*
X13354048Y-12846476D01*
X13354048Y-12846476D02*
X13268333Y-13046476D01*
X13420714Y-12846476D02*
X13420714Y-12884571D01*
X13496905Y-12846476D02*
X13496905Y-12884571D01*
X13759762Y-13122667D02*
X13750238Y-13113143D01*
X13750238Y-13113143D02*
X13731191Y-13084571D01*
X13731191Y-13084571D02*
X13721667Y-13065524D01*
X13721667Y-13065524D02*
X13712143Y-13036952D01*
X13712143Y-13036952D02*
X13702619Y-12989333D01*
X13702619Y-12989333D02*
X13702619Y-12951238D01*
X13702619Y-12951238D02*
X13712143Y-12903619D01*
X13712143Y-12903619D02*
X13721667Y-12875048D01*
X13721667Y-12875048D02*
X13731191Y-12856000D01*
X13731191Y-12856000D02*
X13750238Y-12827428D01*
X13750238Y-12827428D02*
X13759762Y-12817905D01*
X13940714Y-13046476D02*
X13826429Y-13046476D01*
X13883571Y-13046476D02*
X13883571Y-12846476D01*
X13883571Y-12846476D02*
X13864524Y-12875048D01*
X13864524Y-12875048D02*
X13845476Y-12894095D01*
X13845476Y-12894095D02*
X13826429Y-12903619D01*
X14064524Y-12846476D02*
X14083572Y-12846476D01*
X14083572Y-12846476D02*
X14102619Y-12856000D01*
X14102619Y-12856000D02*
X14112143Y-12865524D01*
X14112143Y-12865524D02*
X14121667Y-12884571D01*
X14121667Y-12884571D02*
X14131191Y-12922667D01*
X14131191Y-12922667D02*
X14131191Y-12970286D01*
X14131191Y-12970286D02*
X14121667Y-13008381D01*
X14121667Y-13008381D02*
X14112143Y-13027428D01*
X14112143Y-13027428D02*
X14102619Y-13036952D01*
X14102619Y-13036952D02*
X14083572Y-13046476D01*
X14083572Y-13046476D02*
X14064524Y-13046476D01*
X14064524Y-13046476D02*
X14045476Y-13036952D01*
X14045476Y-13036952D02*
X14035952Y-13027428D01*
X14035952Y-13027428D02*
X14026429Y-13008381D01*
X14026429Y-13008381D02*
X14016905Y-12970286D01*
X14016905Y-12970286D02*
X14016905Y-12922667D01*
X14016905Y-12922667D02*
X14026429Y-12884571D01*
X14026429Y-12884571D02*
X14035952Y-12865524D01*
X14035952Y-12865524D02*
X14045476Y-12856000D01*
X14045476Y-12856000D02*
X14064524Y-12846476D01*
X14336905Y-13046476D02*
X14336905Y-12846476D01*
X14422619Y-13046476D02*
X14422619Y-12941714D01*
X14422619Y-12941714D02*
X14413095Y-12922667D01*
X14413095Y-12922667D02*
X14394048Y-12913143D01*
X14394048Y-12913143D02*
X14365476Y-12913143D01*
X14365476Y-12913143D02*
X14346429Y-12922667D01*
X14346429Y-12922667D02*
X14336905Y-12932190D01*
X14546429Y-13046476D02*
X14527381Y-13036952D01*
X14527381Y-13036952D02*
X14517857Y-13027428D01*
X14517857Y-13027428D02*
X14508333Y-13008381D01*
X14508333Y-13008381D02*
X14508333Y-12951238D01*
X14508333Y-12951238D02*
X14517857Y-12932190D01*
X14517857Y-12932190D02*
X14527381Y-12922667D01*
X14527381Y-12922667D02*
X14546429Y-12913143D01*
X14546429Y-12913143D02*
X14575000Y-12913143D01*
X14575000Y-12913143D02*
X14594048Y-12922667D01*
X14594048Y-12922667D02*
X14603572Y-12932190D01*
X14603572Y-12932190D02*
X14613095Y-12951238D01*
X14613095Y-12951238D02*
X14613095Y-13008381D01*
X14613095Y-13008381D02*
X14603572Y-13027428D01*
X14603572Y-13027428D02*
X14594048Y-13036952D01*
X14594048Y-13036952D02*
X14575000Y-13046476D01*
X14575000Y-13046476D02*
X14546429Y-13046476D01*
X14727381Y-13046476D02*
X14708333Y-13036952D01*
X14708333Y-13036952D02*
X14698810Y-13017905D01*
X14698810Y-13017905D02*
X14698810Y-12846476D01*
X14879762Y-13036952D02*
X14860714Y-13046476D01*
X14860714Y-13046476D02*
X14822619Y-13046476D01*
X14822619Y-13046476D02*
X14803572Y-13036952D01*
X14803572Y-13036952D02*
X14794048Y-13017905D01*
X14794048Y-13017905D02*
X14794048Y-12941714D01*
X14794048Y-12941714D02*
X14803572Y-12922667D01*
X14803572Y-12922667D02*
X14822619Y-12913143D01*
X14822619Y-12913143D02*
X14860714Y-12913143D01*
X14860714Y-12913143D02*
X14879762Y-12922667D01*
X14879762Y-12922667D02*
X14889286Y-12941714D01*
X14889286Y-12941714D02*
X14889286Y-12960762D01*
X14889286Y-12960762D02*
X14794048Y-12979809D01*
X14965476Y-13036952D02*
X14984524Y-13046476D01*
X14984524Y-13046476D02*
X15022619Y-13046476D01*
X15022619Y-13046476D02*
X15041667Y-13036952D01*
X15041667Y-13036952D02*
X15051191Y-13017905D01*
X15051191Y-13017905D02*
X15051191Y-13008381D01*
X15051191Y-13008381D02*
X15041667Y-12989333D01*
X15041667Y-12989333D02*
X15022619Y-12979809D01*
X15022619Y-12979809D02*
X14994048Y-12979809D01*
X14994048Y-12979809D02*
X14975000Y-12970286D01*
X14975000Y-12970286D02*
X14965476Y-12951238D01*
X14965476Y-12951238D02*
X14965476Y-12941714D01*
X14965476Y-12941714D02*
X14975000Y-12922667D01*
X14975000Y-12922667D02*
X14994048Y-12913143D01*
X14994048Y-12913143D02*
X15022619Y-12913143D01*
X15022619Y-12913143D02*
X15041667Y-12922667D01*
X15117857Y-13122667D02*
X15127381Y-13113143D01*
X15127381Y-13113143D02*
X15146429Y-13084571D01*
X15146429Y-13084571D02*
X15155953Y-13065524D01*
X15155953Y-13065524D02*
X15165476Y-13036952D01*
X15165476Y-13036952D02*
X15175000Y-12989333D01*
X15175000Y-12989333D02*
X15175000Y-12951238D01*
X15175000Y-12951238D02*
X15165476Y-12903619D01*
X15165476Y-12903619D02*
X15155953Y-12875048D01*
X15155953Y-12875048D02*
X15146429Y-12856000D01*
X15146429Y-12856000D02*
X15127381Y-12827428D01*
X15127381Y-12827428D02*
X15117857Y-12817905D01*
D15*
X10286213Y-13258213D02*
X10286213Y-13215787D01*
X10243787Y-13215787D01*
X10243787Y-13258213D01*
X10286213Y-13258213D01*
D11*
X10580714Y-13110476D02*
X10599762Y-13110476D01*
X10599762Y-13110476D02*
X10618810Y-13120000D01*
X10618810Y-13120000D02*
X10628333Y-13129524D01*
X10628333Y-13129524D02*
X10637857Y-13148571D01*
X10637857Y-13148571D02*
X10647381Y-13186667D01*
X10647381Y-13186667D02*
X10647381Y-13234286D01*
X10647381Y-13234286D02*
X10637857Y-13272381D01*
X10637857Y-13272381D02*
X10628333Y-13291428D01*
X10628333Y-13291428D02*
X10618810Y-13300952D01*
X10618810Y-13300952D02*
X10599762Y-13310476D01*
X10599762Y-13310476D02*
X10580714Y-13310476D01*
X10580714Y-13310476D02*
X10561667Y-13300952D01*
X10561667Y-13300952D02*
X10552143Y-13291428D01*
X10552143Y-13291428D02*
X10542619Y-13272381D01*
X10542619Y-13272381D02*
X10533095Y-13234286D01*
X10533095Y-13234286D02*
X10533095Y-13186667D01*
X10533095Y-13186667D02*
X10542619Y-13148571D01*
X10542619Y-13148571D02*
X10552143Y-13129524D01*
X10552143Y-13129524D02*
X10561667Y-13120000D01*
X10561667Y-13120000D02*
X10580714Y-13110476D01*
X10733095Y-13291428D02*
X10742619Y-13300952D01*
X10742619Y-13300952D02*
X10733095Y-13310476D01*
X10733095Y-13310476D02*
X10723571Y-13300952D01*
X10723571Y-13300952D02*
X10733095Y-13291428D01*
X10733095Y-13291428D02*
X10733095Y-13310476D01*
X10914048Y-13110476D02*
X10875952Y-13110476D01*
X10875952Y-13110476D02*
X10856905Y-13120000D01*
X10856905Y-13120000D02*
X10847381Y-13129524D01*
X10847381Y-13129524D02*
X10828333Y-13158095D01*
X10828333Y-13158095D02*
X10818810Y-13196190D01*
X10818810Y-13196190D02*
X10818810Y-13272381D01*
X10818810Y-13272381D02*
X10828333Y-13291428D01*
X10828333Y-13291428D02*
X10837857Y-13300952D01*
X10837857Y-13300952D02*
X10856905Y-13310476D01*
X10856905Y-13310476D02*
X10895000Y-13310476D01*
X10895000Y-13310476D02*
X10914048Y-13300952D01*
X10914048Y-13300952D02*
X10923571Y-13291428D01*
X10923571Y-13291428D02*
X10933095Y-13272381D01*
X10933095Y-13272381D02*
X10933095Y-13224762D01*
X10933095Y-13224762D02*
X10923571Y-13205714D01*
X10923571Y-13205714D02*
X10914048Y-13196190D01*
X10914048Y-13196190D02*
X10895000Y-13186667D01*
X10895000Y-13186667D02*
X10856905Y-13186667D01*
X10856905Y-13186667D02*
X10837857Y-13196190D01*
X10837857Y-13196190D02*
X10828333Y-13205714D01*
X10828333Y-13205714D02*
X10818810Y-13224762D01*
X11056905Y-13110476D02*
X11075952Y-13110476D01*
X11075952Y-13110476D02*
X11095000Y-13120000D01*
X11095000Y-13120000D02*
X11104524Y-13129524D01*
X11104524Y-13129524D02*
X11114048Y-13148571D01*
X11114048Y-13148571D02*
X11123571Y-13186667D01*
X11123571Y-13186667D02*
X11123571Y-13234286D01*
X11123571Y-13234286D02*
X11114048Y-13272381D01*
X11114048Y-13272381D02*
X11104524Y-13291428D01*
X11104524Y-13291428D02*
X11095000Y-13300952D01*
X11095000Y-13300952D02*
X11075952Y-13310476D01*
X11075952Y-13310476D02*
X11056905Y-13310476D01*
X11056905Y-13310476D02*
X11037857Y-13300952D01*
X11037857Y-13300952D02*
X11028333Y-13291428D01*
X11028333Y-13291428D02*
X11018810Y-13272381D01*
X11018810Y-13272381D02*
X11009286Y-13234286D01*
X11009286Y-13234286D02*
X11009286Y-13186667D01*
X11009286Y-13186667D02*
X11018810Y-13148571D01*
X11018810Y-13148571D02*
X11028333Y-13129524D01*
X11028333Y-13129524D02*
X11037857Y-13120000D01*
X11037857Y-13120000D02*
X11056905Y-13110476D01*
X11247381Y-13110476D02*
X11266429Y-13110476D01*
X11266429Y-13110476D02*
X11285476Y-13120000D01*
X11285476Y-13120000D02*
X11295000Y-13129524D01*
X11295000Y-13129524D02*
X11304524Y-13148571D01*
X11304524Y-13148571D02*
X11314048Y-13186667D01*
X11314048Y-13186667D02*
X11314048Y-13234286D01*
X11314048Y-13234286D02*
X11304524Y-13272381D01*
X11304524Y-13272381D02*
X11295000Y-13291428D01*
X11295000Y-13291428D02*
X11285476Y-13300952D01*
X11285476Y-13300952D02*
X11266429Y-13310476D01*
X11266429Y-13310476D02*
X11247381Y-13310476D01*
X11247381Y-13310476D02*
X11228333Y-13300952D01*
X11228333Y-13300952D02*
X11218809Y-13291428D01*
X11218809Y-13291428D02*
X11209286Y-13272381D01*
X11209286Y-13272381D02*
X11199762Y-13234286D01*
X11199762Y-13234286D02*
X11199762Y-13186667D01*
X11199762Y-13186667D02*
X11209286Y-13148571D01*
X11209286Y-13148571D02*
X11218809Y-13129524D01*
X11218809Y-13129524D02*
X11228333Y-13120000D01*
X11228333Y-13120000D02*
X11247381Y-13110476D01*
X11399762Y-13310476D02*
X11399762Y-13177143D01*
X11399762Y-13196190D02*
X11409286Y-13186667D01*
X11409286Y-13186667D02*
X11428333Y-13177143D01*
X11428333Y-13177143D02*
X11456905Y-13177143D01*
X11456905Y-13177143D02*
X11475952Y-13186667D01*
X11475952Y-13186667D02*
X11485476Y-13205714D01*
X11485476Y-13205714D02*
X11485476Y-13310476D01*
X11485476Y-13205714D02*
X11495000Y-13186667D01*
X11495000Y-13186667D02*
X11514048Y-13177143D01*
X11514048Y-13177143D02*
X11542619Y-13177143D01*
X11542619Y-13177143D02*
X11561667Y-13186667D01*
X11561667Y-13186667D02*
X11571190Y-13205714D01*
X11571190Y-13205714D02*
X11571190Y-13310476D01*
X11666429Y-13310476D02*
X11666429Y-13177143D01*
X11666429Y-13196190D02*
X11675952Y-13186667D01*
X11675952Y-13186667D02*
X11695000Y-13177143D01*
X11695000Y-13177143D02*
X11723571Y-13177143D01*
X11723571Y-13177143D02*
X11742619Y-13186667D01*
X11742619Y-13186667D02*
X11752143Y-13205714D01*
X11752143Y-13205714D02*
X11752143Y-13310476D01*
X11752143Y-13205714D02*
X11761667Y-13186667D01*
X11761667Y-13186667D02*
X11780714Y-13177143D01*
X11780714Y-13177143D02*
X11809286Y-13177143D01*
X11809286Y-13177143D02*
X11828333Y-13186667D01*
X11828333Y-13186667D02*
X11837857Y-13205714D01*
X11837857Y-13205714D02*
X11837857Y-13310476D01*
X12195952Y-13100952D02*
X12024524Y-13358095D01*
X12420714Y-13110476D02*
X12439762Y-13110476D01*
X12439762Y-13110476D02*
X12458810Y-13120000D01*
X12458810Y-13120000D02*
X12468333Y-13129524D01*
X12468333Y-13129524D02*
X12477857Y-13148571D01*
X12477857Y-13148571D02*
X12487381Y-13186667D01*
X12487381Y-13186667D02*
X12487381Y-13234286D01*
X12487381Y-13234286D02*
X12477857Y-13272381D01*
X12477857Y-13272381D02*
X12468333Y-13291428D01*
X12468333Y-13291428D02*
X12458810Y-13300952D01*
X12458810Y-13300952D02*
X12439762Y-13310476D01*
X12439762Y-13310476D02*
X12420714Y-13310476D01*
X12420714Y-13310476D02*
X12401667Y-13300952D01*
X12401667Y-13300952D02*
X12392143Y-13291428D01*
X12392143Y-13291428D02*
X12382619Y-13272381D01*
X12382619Y-13272381D02*
X12373095Y-13234286D01*
X12373095Y-13234286D02*
X12373095Y-13186667D01*
X12373095Y-13186667D02*
X12382619Y-13148571D01*
X12382619Y-13148571D02*
X12392143Y-13129524D01*
X12392143Y-13129524D02*
X12401667Y-13120000D01*
X12401667Y-13120000D02*
X12420714Y-13110476D01*
X12573095Y-13291428D02*
X12582619Y-13300952D01*
X12582619Y-13300952D02*
X12573095Y-13310476D01*
X12573095Y-13310476D02*
X12563571Y-13300952D01*
X12563571Y-13300952D02*
X12573095Y-13291428D01*
X12573095Y-13291428D02*
X12573095Y-13310476D01*
X12706429Y-13110476D02*
X12725476Y-13110476D01*
X12725476Y-13110476D02*
X12744524Y-13120000D01*
X12744524Y-13120000D02*
X12754048Y-13129524D01*
X12754048Y-13129524D02*
X12763571Y-13148571D01*
X12763571Y-13148571D02*
X12773095Y-13186667D01*
X12773095Y-13186667D02*
X12773095Y-13234286D01*
X12773095Y-13234286D02*
X12763571Y-13272381D01*
X12763571Y-13272381D02*
X12754048Y-13291428D01*
X12754048Y-13291428D02*
X12744524Y-13300952D01*
X12744524Y-13300952D02*
X12725476Y-13310476D01*
X12725476Y-13310476D02*
X12706429Y-13310476D01*
X12706429Y-13310476D02*
X12687381Y-13300952D01*
X12687381Y-13300952D02*
X12677857Y-13291428D01*
X12677857Y-13291428D02*
X12668333Y-13272381D01*
X12668333Y-13272381D02*
X12658810Y-13234286D01*
X12658810Y-13234286D02*
X12658810Y-13186667D01*
X12658810Y-13186667D02*
X12668333Y-13148571D01*
X12668333Y-13148571D02*
X12677857Y-13129524D01*
X12677857Y-13129524D02*
X12687381Y-13120000D01*
X12687381Y-13120000D02*
X12706429Y-13110476D01*
X12849286Y-13129524D02*
X12858810Y-13120000D01*
X12858810Y-13120000D02*
X12877857Y-13110476D01*
X12877857Y-13110476D02*
X12925476Y-13110476D01*
X12925476Y-13110476D02*
X12944524Y-13120000D01*
X12944524Y-13120000D02*
X12954048Y-13129524D01*
X12954048Y-13129524D02*
X12963571Y-13148571D01*
X12963571Y-13148571D02*
X12963571Y-13167619D01*
X12963571Y-13167619D02*
X12954048Y-13196190D01*
X12954048Y-13196190D02*
X12839762Y-13310476D01*
X12839762Y-13310476D02*
X12963571Y-13310476D01*
X13030238Y-13110476D02*
X13154048Y-13110476D01*
X13154048Y-13110476D02*
X13087381Y-13186667D01*
X13087381Y-13186667D02*
X13115952Y-13186667D01*
X13115952Y-13186667D02*
X13135000Y-13196190D01*
X13135000Y-13196190D02*
X13144524Y-13205714D01*
X13144524Y-13205714D02*
X13154048Y-13224762D01*
X13154048Y-13224762D02*
X13154048Y-13272381D01*
X13154048Y-13272381D02*
X13144524Y-13291428D01*
X13144524Y-13291428D02*
X13135000Y-13300952D01*
X13135000Y-13300952D02*
X13115952Y-13310476D01*
X13115952Y-13310476D02*
X13058810Y-13310476D01*
X13058810Y-13310476D02*
X13039762Y-13300952D01*
X13039762Y-13300952D02*
X13030238Y-13291428D01*
X13325476Y-13110476D02*
X13287381Y-13110476D01*
X13287381Y-13110476D02*
X13268333Y-13120000D01*
X13268333Y-13120000D02*
X13258810Y-13129524D01*
X13258810Y-13129524D02*
X13239762Y-13158095D01*
X13239762Y-13158095D02*
X13230238Y-13196190D01*
X13230238Y-13196190D02*
X13230238Y-13272381D01*
X13230238Y-13272381D02*
X13239762Y-13291428D01*
X13239762Y-13291428D02*
X13249286Y-13300952D01*
X13249286Y-13300952D02*
X13268333Y-13310476D01*
X13268333Y-13310476D02*
X13306429Y-13310476D01*
X13306429Y-13310476D02*
X13325476Y-13300952D01*
X13325476Y-13300952D02*
X13335000Y-13291428D01*
X13335000Y-13291428D02*
X13344524Y-13272381D01*
X13344524Y-13272381D02*
X13344524Y-13224762D01*
X13344524Y-13224762D02*
X13335000Y-13205714D01*
X13335000Y-13205714D02*
X13325476Y-13196190D01*
X13325476Y-13196190D02*
X13306429Y-13186667D01*
X13306429Y-13186667D02*
X13268333Y-13186667D01*
X13268333Y-13186667D02*
X13249286Y-13196190D01*
X13249286Y-13196190D02*
X13239762Y-13205714D01*
X13239762Y-13205714D02*
X13230238Y-13224762D01*
X13420714Y-13110476D02*
X13420714Y-13148571D01*
X13496905Y-13110476D02*
X13496905Y-13148571D01*
X13759762Y-13386667D02*
X13750238Y-13377143D01*
X13750238Y-13377143D02*
X13731191Y-13348571D01*
X13731191Y-13348571D02*
X13721667Y-13329524D01*
X13721667Y-13329524D02*
X13712143Y-13300952D01*
X13712143Y-13300952D02*
X13702619Y-13253333D01*
X13702619Y-13253333D02*
X13702619Y-13215238D01*
X13702619Y-13215238D02*
X13712143Y-13167619D01*
X13712143Y-13167619D02*
X13721667Y-13139048D01*
X13721667Y-13139048D02*
X13731191Y-13120000D01*
X13731191Y-13120000D02*
X13750238Y-13091428D01*
X13750238Y-13091428D02*
X13759762Y-13081905D01*
X13874048Y-13110476D02*
X13893095Y-13110476D01*
X13893095Y-13110476D02*
X13912143Y-13120000D01*
X13912143Y-13120000D02*
X13921667Y-13129524D01*
X13921667Y-13129524D02*
X13931191Y-13148571D01*
X13931191Y-13148571D02*
X13940714Y-13186667D01*
X13940714Y-13186667D02*
X13940714Y-13234286D01*
X13940714Y-13234286D02*
X13931191Y-13272381D01*
X13931191Y-13272381D02*
X13921667Y-13291428D01*
X13921667Y-13291428D02*
X13912143Y-13300952D01*
X13912143Y-13300952D02*
X13893095Y-13310476D01*
X13893095Y-13310476D02*
X13874048Y-13310476D01*
X13874048Y-13310476D02*
X13855000Y-13300952D01*
X13855000Y-13300952D02*
X13845476Y-13291428D01*
X13845476Y-13291428D02*
X13835952Y-13272381D01*
X13835952Y-13272381D02*
X13826429Y-13234286D01*
X13826429Y-13234286D02*
X13826429Y-13186667D01*
X13826429Y-13186667D02*
X13835952Y-13148571D01*
X13835952Y-13148571D02*
X13845476Y-13129524D01*
X13845476Y-13129524D02*
X13855000Y-13120000D01*
X13855000Y-13120000D02*
X13874048Y-13110476D01*
X14146429Y-13310476D02*
X14146429Y-13110476D01*
X14232143Y-13310476D02*
X14232143Y-13205714D01*
X14232143Y-13205714D02*
X14222619Y-13186667D01*
X14222619Y-13186667D02*
X14203572Y-13177143D01*
X14203572Y-13177143D02*
X14175000Y-13177143D01*
X14175000Y-13177143D02*
X14155952Y-13186667D01*
X14155952Y-13186667D02*
X14146429Y-13196190D01*
X14355952Y-13310476D02*
X14336905Y-13300952D01*
X14336905Y-13300952D02*
X14327381Y-13291428D01*
X14327381Y-13291428D02*
X14317857Y-13272381D01*
X14317857Y-13272381D02*
X14317857Y-13215238D01*
X14317857Y-13215238D02*
X14327381Y-13196190D01*
X14327381Y-13196190D02*
X14336905Y-13186667D01*
X14336905Y-13186667D02*
X14355952Y-13177143D01*
X14355952Y-13177143D02*
X14384524Y-13177143D01*
X14384524Y-13177143D02*
X14403572Y-13186667D01*
X14403572Y-13186667D02*
X14413095Y-13196190D01*
X14413095Y-13196190D02*
X14422619Y-13215238D01*
X14422619Y-13215238D02*
X14422619Y-13272381D01*
X14422619Y-13272381D02*
X14413095Y-13291428D01*
X14413095Y-13291428D02*
X14403572Y-13300952D01*
X14403572Y-13300952D02*
X14384524Y-13310476D01*
X14384524Y-13310476D02*
X14355952Y-13310476D01*
X14536905Y-13310476D02*
X14517857Y-13300952D01*
X14517857Y-13300952D02*
X14508333Y-13281905D01*
X14508333Y-13281905D02*
X14508333Y-13110476D01*
X14689286Y-13300952D02*
X14670238Y-13310476D01*
X14670238Y-13310476D02*
X14632143Y-13310476D01*
X14632143Y-13310476D02*
X14613095Y-13300952D01*
X14613095Y-13300952D02*
X14603572Y-13281905D01*
X14603572Y-13281905D02*
X14603572Y-13205714D01*
X14603572Y-13205714D02*
X14613095Y-13186667D01*
X14613095Y-13186667D02*
X14632143Y-13177143D01*
X14632143Y-13177143D02*
X14670238Y-13177143D01*
X14670238Y-13177143D02*
X14689286Y-13186667D01*
X14689286Y-13186667D02*
X14698810Y-13205714D01*
X14698810Y-13205714D02*
X14698810Y-13224762D01*
X14698810Y-13224762D02*
X14603572Y-13243809D01*
X14775000Y-13300952D02*
X14794048Y-13310476D01*
X14794048Y-13310476D02*
X14832143Y-13310476D01*
X14832143Y-13310476D02*
X14851191Y-13300952D01*
X14851191Y-13300952D02*
X14860714Y-13281905D01*
X14860714Y-13281905D02*
X14860714Y-13272381D01*
X14860714Y-13272381D02*
X14851191Y-13253333D01*
X14851191Y-13253333D02*
X14832143Y-13243809D01*
X14832143Y-13243809D02*
X14803572Y-13243809D01*
X14803572Y-13243809D02*
X14784524Y-13234286D01*
X14784524Y-13234286D02*
X14775000Y-13215238D01*
X14775000Y-13215238D02*
X14775000Y-13205714D01*
X14775000Y-13205714D02*
X14784524Y-13186667D01*
X14784524Y-13186667D02*
X14803572Y-13177143D01*
X14803572Y-13177143D02*
X14832143Y-13177143D01*
X14832143Y-13177143D02*
X14851191Y-13186667D01*
X15066429Y-13234286D02*
X15218810Y-13234286D01*
X15142619Y-13310476D02*
X15142619Y-13158095D01*
X15519762Y-13177143D02*
X15519762Y-13310476D01*
X15472143Y-13100952D02*
X15424524Y-13243809D01*
X15424524Y-13243809D02*
X15548333Y-13243809D01*
X15735000Y-13300952D02*
X15754048Y-13310476D01*
X15754048Y-13310476D02*
X15792143Y-13310476D01*
X15792143Y-13310476D02*
X15811191Y-13300952D01*
X15811191Y-13300952D02*
X15820714Y-13281905D01*
X15820714Y-13281905D02*
X15820714Y-13272381D01*
X15820714Y-13272381D02*
X15811191Y-13253333D01*
X15811191Y-13253333D02*
X15792143Y-13243809D01*
X15792143Y-13243809D02*
X15763572Y-13243809D01*
X15763572Y-13243809D02*
X15744524Y-13234286D01*
X15744524Y-13234286D02*
X15735000Y-13215238D01*
X15735000Y-13215238D02*
X15735000Y-13205714D01*
X15735000Y-13205714D02*
X15744524Y-13186667D01*
X15744524Y-13186667D02*
X15763572Y-13177143D01*
X15763572Y-13177143D02*
X15792143Y-13177143D01*
X15792143Y-13177143D02*
X15811191Y-13186667D01*
X15935000Y-13310476D02*
X15915953Y-13300952D01*
X15915953Y-13300952D02*
X15906429Y-13281905D01*
X15906429Y-13281905D02*
X15906429Y-13110476D01*
X16039762Y-13310476D02*
X16020714Y-13300952D01*
X16020714Y-13300952D02*
X16011191Y-13291428D01*
X16011191Y-13291428D02*
X16001667Y-13272381D01*
X16001667Y-13272381D02*
X16001667Y-13215238D01*
X16001667Y-13215238D02*
X16011191Y-13196190D01*
X16011191Y-13196190D02*
X16020714Y-13186667D01*
X16020714Y-13186667D02*
X16039762Y-13177143D01*
X16039762Y-13177143D02*
X16068334Y-13177143D01*
X16068334Y-13177143D02*
X16087381Y-13186667D01*
X16087381Y-13186667D02*
X16096905Y-13196190D01*
X16096905Y-13196190D02*
X16106429Y-13215238D01*
X16106429Y-13215238D02*
X16106429Y-13272381D01*
X16106429Y-13272381D02*
X16096905Y-13291428D01*
X16096905Y-13291428D02*
X16087381Y-13300952D01*
X16087381Y-13300952D02*
X16068334Y-13310476D01*
X16068334Y-13310476D02*
X16039762Y-13310476D01*
X16163572Y-13177143D02*
X16239762Y-13177143D01*
X16192143Y-13110476D02*
X16192143Y-13281905D01*
X16192143Y-13281905D02*
X16201667Y-13300952D01*
X16201667Y-13300952D02*
X16220714Y-13310476D01*
X16220714Y-13310476D02*
X16239762Y-13310476D01*
X16296905Y-13300952D02*
X16315953Y-13310476D01*
X16315953Y-13310476D02*
X16354048Y-13310476D01*
X16354048Y-13310476D02*
X16373095Y-13300952D01*
X16373095Y-13300952D02*
X16382619Y-13281905D01*
X16382619Y-13281905D02*
X16382619Y-13272381D01*
X16382619Y-13272381D02*
X16373095Y-13253333D01*
X16373095Y-13253333D02*
X16354048Y-13243809D01*
X16354048Y-13243809D02*
X16325476Y-13243809D01*
X16325476Y-13243809D02*
X16306429Y-13234286D01*
X16306429Y-13234286D02*
X16296905Y-13215238D01*
X16296905Y-13215238D02*
X16296905Y-13205714D01*
X16296905Y-13205714D02*
X16306429Y-13186667D01*
X16306429Y-13186667D02*
X16325476Y-13177143D01*
X16325476Y-13177143D02*
X16354048Y-13177143D01*
X16354048Y-13177143D02*
X16373095Y-13186667D01*
X16449286Y-13386667D02*
X16458810Y-13377143D01*
X16458810Y-13377143D02*
X16477857Y-13348571D01*
X16477857Y-13348571D02*
X16487381Y-13329524D01*
X16487381Y-13329524D02*
X16496905Y-13300952D01*
X16496905Y-13300952D02*
X16506429Y-13253333D01*
X16506429Y-13253333D02*
X16506429Y-13215238D01*
X16506429Y-13215238D02*
X16496905Y-13167619D01*
X16496905Y-13167619D02*
X16487381Y-13139048D01*
X16487381Y-13139048D02*
X16477857Y-13120000D01*
X16477857Y-13120000D02*
X16458810Y-13091428D01*
X16458810Y-13091428D02*
X16449286Y-13081905D01*
D10*
X10245000Y-13551000D02*
X10295000Y-13501000D01*
X10245000Y-13451000D01*
X10195000Y-13501000D01*
X10245000Y-13551000D01*
D11*
X10647381Y-13574476D02*
X10533095Y-13574476D01*
X10590238Y-13574476D02*
X10590238Y-13374476D01*
X10590238Y-13374476D02*
X10571190Y-13403048D01*
X10571190Y-13403048D02*
X10552143Y-13422095D01*
X10552143Y-13422095D02*
X10533095Y-13431619D01*
X10733095Y-13555428D02*
X10742619Y-13564952D01*
X10742619Y-13564952D02*
X10733095Y-13574476D01*
X10733095Y-13574476D02*
X10723571Y-13564952D01*
X10723571Y-13564952D02*
X10733095Y-13555428D01*
X10733095Y-13555428D02*
X10733095Y-13574476D01*
X10866429Y-13374476D02*
X10885476Y-13374476D01*
X10885476Y-13374476D02*
X10904524Y-13384000D01*
X10904524Y-13384000D02*
X10914048Y-13393524D01*
X10914048Y-13393524D02*
X10923571Y-13412571D01*
X10923571Y-13412571D02*
X10933095Y-13450667D01*
X10933095Y-13450667D02*
X10933095Y-13498286D01*
X10933095Y-13498286D02*
X10923571Y-13536381D01*
X10923571Y-13536381D02*
X10914048Y-13555428D01*
X10914048Y-13555428D02*
X10904524Y-13564952D01*
X10904524Y-13564952D02*
X10885476Y-13574476D01*
X10885476Y-13574476D02*
X10866429Y-13574476D01*
X10866429Y-13574476D02*
X10847381Y-13564952D01*
X10847381Y-13564952D02*
X10837857Y-13555428D01*
X10837857Y-13555428D02*
X10828333Y-13536381D01*
X10828333Y-13536381D02*
X10818810Y-13498286D01*
X10818810Y-13498286D02*
X10818810Y-13450667D01*
X10818810Y-13450667D02*
X10828333Y-13412571D01*
X10828333Y-13412571D02*
X10837857Y-13393524D01*
X10837857Y-13393524D02*
X10847381Y-13384000D01*
X10847381Y-13384000D02*
X10866429Y-13374476D01*
X11056905Y-13374476D02*
X11075952Y-13374476D01*
X11075952Y-13374476D02*
X11095000Y-13384000D01*
X11095000Y-13384000D02*
X11104524Y-13393524D01*
X11104524Y-13393524D02*
X11114048Y-13412571D01*
X11114048Y-13412571D02*
X11123571Y-13450667D01*
X11123571Y-13450667D02*
X11123571Y-13498286D01*
X11123571Y-13498286D02*
X11114048Y-13536381D01*
X11114048Y-13536381D02*
X11104524Y-13555428D01*
X11104524Y-13555428D02*
X11095000Y-13564952D01*
X11095000Y-13564952D02*
X11075952Y-13574476D01*
X11075952Y-13574476D02*
X11056905Y-13574476D01*
X11056905Y-13574476D02*
X11037857Y-13564952D01*
X11037857Y-13564952D02*
X11028333Y-13555428D01*
X11028333Y-13555428D02*
X11018810Y-13536381D01*
X11018810Y-13536381D02*
X11009286Y-13498286D01*
X11009286Y-13498286D02*
X11009286Y-13450667D01*
X11009286Y-13450667D02*
X11018810Y-13412571D01*
X11018810Y-13412571D02*
X11028333Y-13393524D01*
X11028333Y-13393524D02*
X11037857Y-13384000D01*
X11037857Y-13384000D02*
X11056905Y-13374476D01*
X11247381Y-13374476D02*
X11266429Y-13374476D01*
X11266429Y-13374476D02*
X11285476Y-13384000D01*
X11285476Y-13384000D02*
X11295000Y-13393524D01*
X11295000Y-13393524D02*
X11304524Y-13412571D01*
X11304524Y-13412571D02*
X11314048Y-13450667D01*
X11314048Y-13450667D02*
X11314048Y-13498286D01*
X11314048Y-13498286D02*
X11304524Y-13536381D01*
X11304524Y-13536381D02*
X11295000Y-13555428D01*
X11295000Y-13555428D02*
X11285476Y-13564952D01*
X11285476Y-13564952D02*
X11266429Y-13574476D01*
X11266429Y-13574476D02*
X11247381Y-13574476D01*
X11247381Y-13574476D02*
X11228333Y-13564952D01*
X11228333Y-13564952D02*
X11218809Y-13555428D01*
X11218809Y-13555428D02*
X11209286Y-13536381D01*
X11209286Y-13536381D02*
X11199762Y-13498286D01*
X11199762Y-13498286D02*
X11199762Y-13450667D01*
X11199762Y-13450667D02*
X11209286Y-13412571D01*
X11209286Y-13412571D02*
X11218809Y-13393524D01*
X11218809Y-13393524D02*
X11228333Y-13384000D01*
X11228333Y-13384000D02*
X11247381Y-13374476D01*
X11399762Y-13574476D02*
X11399762Y-13441143D01*
X11399762Y-13460190D02*
X11409286Y-13450667D01*
X11409286Y-13450667D02*
X11428333Y-13441143D01*
X11428333Y-13441143D02*
X11456905Y-13441143D01*
X11456905Y-13441143D02*
X11475952Y-13450667D01*
X11475952Y-13450667D02*
X11485476Y-13469714D01*
X11485476Y-13469714D02*
X11485476Y-13574476D01*
X11485476Y-13469714D02*
X11495000Y-13450667D01*
X11495000Y-13450667D02*
X11514048Y-13441143D01*
X11514048Y-13441143D02*
X11542619Y-13441143D01*
X11542619Y-13441143D02*
X11561667Y-13450667D01*
X11561667Y-13450667D02*
X11571190Y-13469714D01*
X11571190Y-13469714D02*
X11571190Y-13574476D01*
X11666429Y-13574476D02*
X11666429Y-13441143D01*
X11666429Y-13460190D02*
X11675952Y-13450667D01*
X11675952Y-13450667D02*
X11695000Y-13441143D01*
X11695000Y-13441143D02*
X11723571Y-13441143D01*
X11723571Y-13441143D02*
X11742619Y-13450667D01*
X11742619Y-13450667D02*
X11752143Y-13469714D01*
X11752143Y-13469714D02*
X11752143Y-13574476D01*
X11752143Y-13469714D02*
X11761667Y-13450667D01*
X11761667Y-13450667D02*
X11780714Y-13441143D01*
X11780714Y-13441143D02*
X11809286Y-13441143D01*
X11809286Y-13441143D02*
X11828333Y-13450667D01*
X11828333Y-13450667D02*
X11837857Y-13469714D01*
X11837857Y-13469714D02*
X11837857Y-13574476D01*
X12195952Y-13364952D02*
X12024524Y-13622095D01*
X12420714Y-13374476D02*
X12439762Y-13374476D01*
X12439762Y-13374476D02*
X12458810Y-13384000D01*
X12458810Y-13384000D02*
X12468333Y-13393524D01*
X12468333Y-13393524D02*
X12477857Y-13412571D01*
X12477857Y-13412571D02*
X12487381Y-13450667D01*
X12487381Y-13450667D02*
X12487381Y-13498286D01*
X12487381Y-13498286D02*
X12477857Y-13536381D01*
X12477857Y-13536381D02*
X12468333Y-13555428D01*
X12468333Y-13555428D02*
X12458810Y-13564952D01*
X12458810Y-13564952D02*
X12439762Y-13574476D01*
X12439762Y-13574476D02*
X12420714Y-13574476D01*
X12420714Y-13574476D02*
X12401667Y-13564952D01*
X12401667Y-13564952D02*
X12392143Y-13555428D01*
X12392143Y-13555428D02*
X12382619Y-13536381D01*
X12382619Y-13536381D02*
X12373095Y-13498286D01*
X12373095Y-13498286D02*
X12373095Y-13450667D01*
X12373095Y-13450667D02*
X12382619Y-13412571D01*
X12382619Y-13412571D02*
X12392143Y-13393524D01*
X12392143Y-13393524D02*
X12401667Y-13384000D01*
X12401667Y-13384000D02*
X12420714Y-13374476D01*
X12573095Y-13555428D02*
X12582619Y-13564952D01*
X12582619Y-13564952D02*
X12573095Y-13574476D01*
X12573095Y-13574476D02*
X12563571Y-13564952D01*
X12563571Y-13564952D02*
X12573095Y-13555428D01*
X12573095Y-13555428D02*
X12573095Y-13574476D01*
X12706429Y-13374476D02*
X12725476Y-13374476D01*
X12725476Y-13374476D02*
X12744524Y-13384000D01*
X12744524Y-13384000D02*
X12754048Y-13393524D01*
X12754048Y-13393524D02*
X12763571Y-13412571D01*
X12763571Y-13412571D02*
X12773095Y-13450667D01*
X12773095Y-13450667D02*
X12773095Y-13498286D01*
X12773095Y-13498286D02*
X12763571Y-13536381D01*
X12763571Y-13536381D02*
X12754048Y-13555428D01*
X12754048Y-13555428D02*
X12744524Y-13564952D01*
X12744524Y-13564952D02*
X12725476Y-13574476D01*
X12725476Y-13574476D02*
X12706429Y-13574476D01*
X12706429Y-13574476D02*
X12687381Y-13564952D01*
X12687381Y-13564952D02*
X12677857Y-13555428D01*
X12677857Y-13555428D02*
X12668333Y-13536381D01*
X12668333Y-13536381D02*
X12658810Y-13498286D01*
X12658810Y-13498286D02*
X12658810Y-13450667D01*
X12658810Y-13450667D02*
X12668333Y-13412571D01*
X12668333Y-13412571D02*
X12677857Y-13393524D01*
X12677857Y-13393524D02*
X12687381Y-13384000D01*
X12687381Y-13384000D02*
X12706429Y-13374476D01*
X12839762Y-13374476D02*
X12963571Y-13374476D01*
X12963571Y-13374476D02*
X12896905Y-13450667D01*
X12896905Y-13450667D02*
X12925476Y-13450667D01*
X12925476Y-13450667D02*
X12944524Y-13460190D01*
X12944524Y-13460190D02*
X12954048Y-13469714D01*
X12954048Y-13469714D02*
X12963571Y-13488762D01*
X12963571Y-13488762D02*
X12963571Y-13536381D01*
X12963571Y-13536381D02*
X12954048Y-13555428D01*
X12954048Y-13555428D02*
X12944524Y-13564952D01*
X12944524Y-13564952D02*
X12925476Y-13574476D01*
X12925476Y-13574476D02*
X12868333Y-13574476D01*
X12868333Y-13574476D02*
X12849286Y-13564952D01*
X12849286Y-13564952D02*
X12839762Y-13555428D01*
X13058810Y-13574476D02*
X13096905Y-13574476D01*
X13096905Y-13574476D02*
X13115952Y-13564952D01*
X13115952Y-13564952D02*
X13125476Y-13555428D01*
X13125476Y-13555428D02*
X13144524Y-13526857D01*
X13144524Y-13526857D02*
X13154048Y-13488762D01*
X13154048Y-13488762D02*
X13154048Y-13412571D01*
X13154048Y-13412571D02*
X13144524Y-13393524D01*
X13144524Y-13393524D02*
X13135000Y-13384000D01*
X13135000Y-13384000D02*
X13115952Y-13374476D01*
X13115952Y-13374476D02*
X13077857Y-13374476D01*
X13077857Y-13374476D02*
X13058810Y-13384000D01*
X13058810Y-13384000D02*
X13049286Y-13393524D01*
X13049286Y-13393524D02*
X13039762Y-13412571D01*
X13039762Y-13412571D02*
X13039762Y-13460190D01*
X13039762Y-13460190D02*
X13049286Y-13479238D01*
X13049286Y-13479238D02*
X13058810Y-13488762D01*
X13058810Y-13488762D02*
X13077857Y-13498286D01*
X13077857Y-13498286D02*
X13115952Y-13498286D01*
X13115952Y-13498286D02*
X13135000Y-13488762D01*
X13135000Y-13488762D02*
X13144524Y-13479238D01*
X13144524Y-13479238D02*
X13154048Y-13460190D01*
X13325476Y-13441143D02*
X13325476Y-13574476D01*
X13277857Y-13364952D02*
X13230238Y-13507809D01*
X13230238Y-13507809D02*
X13354048Y-13507809D01*
X13420714Y-13374476D02*
X13420714Y-13412571D01*
X13496905Y-13374476D02*
X13496905Y-13412571D01*
X13759762Y-13650667D02*
X13750238Y-13641143D01*
X13750238Y-13641143D02*
X13731191Y-13612571D01*
X13731191Y-13612571D02*
X13721667Y-13593524D01*
X13721667Y-13593524D02*
X13712143Y-13564952D01*
X13712143Y-13564952D02*
X13702619Y-13517333D01*
X13702619Y-13517333D02*
X13702619Y-13479238D01*
X13702619Y-13479238D02*
X13712143Y-13431619D01*
X13712143Y-13431619D02*
X13721667Y-13403048D01*
X13721667Y-13403048D02*
X13731191Y-13384000D01*
X13731191Y-13384000D02*
X13750238Y-13355428D01*
X13750238Y-13355428D02*
X13759762Y-13345905D01*
X13816905Y-13374476D02*
X13940714Y-13374476D01*
X13940714Y-13374476D02*
X13874048Y-13450667D01*
X13874048Y-13450667D02*
X13902619Y-13450667D01*
X13902619Y-13450667D02*
X13921667Y-13460190D01*
X13921667Y-13460190D02*
X13931191Y-13469714D01*
X13931191Y-13469714D02*
X13940714Y-13488762D01*
X13940714Y-13488762D02*
X13940714Y-13536381D01*
X13940714Y-13536381D02*
X13931191Y-13555428D01*
X13931191Y-13555428D02*
X13921667Y-13564952D01*
X13921667Y-13564952D02*
X13902619Y-13574476D01*
X13902619Y-13574476D02*
X13845476Y-13574476D01*
X13845476Y-13574476D02*
X13826429Y-13564952D01*
X13826429Y-13564952D02*
X13816905Y-13555428D01*
X14064524Y-13374476D02*
X14083572Y-13374476D01*
X14083572Y-13374476D02*
X14102619Y-13384000D01*
X14102619Y-13384000D02*
X14112143Y-13393524D01*
X14112143Y-13393524D02*
X14121667Y-13412571D01*
X14121667Y-13412571D02*
X14131191Y-13450667D01*
X14131191Y-13450667D02*
X14131191Y-13498286D01*
X14131191Y-13498286D02*
X14121667Y-13536381D01*
X14121667Y-13536381D02*
X14112143Y-13555428D01*
X14112143Y-13555428D02*
X14102619Y-13564952D01*
X14102619Y-13564952D02*
X14083572Y-13574476D01*
X14083572Y-13574476D02*
X14064524Y-13574476D01*
X14064524Y-13574476D02*
X14045476Y-13564952D01*
X14045476Y-13564952D02*
X14035952Y-13555428D01*
X14035952Y-13555428D02*
X14026429Y-13536381D01*
X14026429Y-13536381D02*
X14016905Y-13498286D01*
X14016905Y-13498286D02*
X14016905Y-13450667D01*
X14016905Y-13450667D02*
X14026429Y-13412571D01*
X14026429Y-13412571D02*
X14035952Y-13393524D01*
X14035952Y-13393524D02*
X14045476Y-13384000D01*
X14045476Y-13384000D02*
X14064524Y-13374476D01*
X14336905Y-13574476D02*
X14336905Y-13374476D01*
X14422619Y-13574476D02*
X14422619Y-13469714D01*
X14422619Y-13469714D02*
X14413095Y-13450667D01*
X14413095Y-13450667D02*
X14394048Y-13441143D01*
X14394048Y-13441143D02*
X14365476Y-13441143D01*
X14365476Y-13441143D02*
X14346429Y-13450667D01*
X14346429Y-13450667D02*
X14336905Y-13460190D01*
X14546429Y-13574476D02*
X14527381Y-13564952D01*
X14527381Y-13564952D02*
X14517857Y-13555428D01*
X14517857Y-13555428D02*
X14508333Y-13536381D01*
X14508333Y-13536381D02*
X14508333Y-13479238D01*
X14508333Y-13479238D02*
X14517857Y-13460190D01*
X14517857Y-13460190D02*
X14527381Y-13450667D01*
X14527381Y-13450667D02*
X14546429Y-13441143D01*
X14546429Y-13441143D02*
X14575000Y-13441143D01*
X14575000Y-13441143D02*
X14594048Y-13450667D01*
X14594048Y-13450667D02*
X14603572Y-13460190D01*
X14603572Y-13460190D02*
X14613095Y-13479238D01*
X14613095Y-13479238D02*
X14613095Y-13536381D01*
X14613095Y-13536381D02*
X14603572Y-13555428D01*
X14603572Y-13555428D02*
X14594048Y-13564952D01*
X14594048Y-13564952D02*
X14575000Y-13574476D01*
X14575000Y-13574476D02*
X14546429Y-13574476D01*
X14727381Y-13574476D02*
X14708333Y-13564952D01*
X14708333Y-13564952D02*
X14698810Y-13545905D01*
X14698810Y-13545905D02*
X14698810Y-13374476D01*
X14879762Y-13564952D02*
X14860714Y-13574476D01*
X14860714Y-13574476D02*
X14822619Y-13574476D01*
X14822619Y-13574476D02*
X14803572Y-13564952D01*
X14803572Y-13564952D02*
X14794048Y-13545905D01*
X14794048Y-13545905D02*
X14794048Y-13469714D01*
X14794048Y-13469714D02*
X14803572Y-13450667D01*
X14803572Y-13450667D02*
X14822619Y-13441143D01*
X14822619Y-13441143D02*
X14860714Y-13441143D01*
X14860714Y-13441143D02*
X14879762Y-13450667D01*
X14879762Y-13450667D02*
X14889286Y-13469714D01*
X14889286Y-13469714D02*
X14889286Y-13488762D01*
X14889286Y-13488762D02*
X14794048Y-13507809D01*
X14965476Y-13564952D02*
X14984524Y-13574476D01*
X14984524Y-13574476D02*
X15022619Y-13574476D01*
X15022619Y-13574476D02*
X15041667Y-13564952D01*
X15041667Y-13564952D02*
X15051191Y-13545905D01*
X15051191Y-13545905D02*
X15051191Y-13536381D01*
X15051191Y-13536381D02*
X15041667Y-13517333D01*
X15041667Y-13517333D02*
X15022619Y-13507809D01*
X15022619Y-13507809D02*
X14994048Y-13507809D01*
X14994048Y-13507809D02*
X14975000Y-13498286D01*
X14975000Y-13498286D02*
X14965476Y-13479238D01*
X14965476Y-13479238D02*
X14965476Y-13469714D01*
X14965476Y-13469714D02*
X14975000Y-13450667D01*
X14975000Y-13450667D02*
X14994048Y-13441143D01*
X14994048Y-13441143D02*
X15022619Y-13441143D01*
X15022619Y-13441143D02*
X15041667Y-13450667D01*
X15117857Y-13650667D02*
X15127381Y-13641143D01*
X15127381Y-13641143D02*
X15146429Y-13612571D01*
X15146429Y-13612571D02*
X15155953Y-13593524D01*
X15155953Y-13593524D02*
X15165476Y-13564952D01*
X15165476Y-13564952D02*
X15175000Y-13517333D01*
X15175000Y-13517333D02*
X15175000Y-13479238D01*
X15175000Y-13479238D02*
X15165476Y-13431619D01*
X15165476Y-13431619D02*
X15155953Y-13403048D01*
X15155953Y-13403048D02*
X15146429Y-13384000D01*
X15146429Y-13384000D02*
X15127381Y-13355428D01*
X15127381Y-13355428D02*
X15117857Y-13345905D01*
M02*
